<svg width="148" height="184" viewBox="0 0 148 184" fill="none" xmlns="http://www.w3.org/2000/svg">
<path d="M45.1231 0.343018C46.0326 0.51916 46.541 1.01797 47.066 1.79249C47.1686 1.98147 47.2711 2.17045 47.3768 2.36515C47.4944 2.57923 47.6121 2.79332 47.7334 3.0139C47.8571 3.24361 47.9808 3.47333 48.1082 3.71001C48.2397 3.95051 48.3714 4.19088 48.5033 4.43112C48.7068 4.80182 48.9101 5.17262 49.1127 5.54387C49.7926 6.78988 50.4922 8.0237 51.1932 9.25716C52.2538 11.1294 53.2954 13.0116 54.3157 14.9075C54.4601 14.8515 54.6045 14.7954 54.7533 14.7377C59.3884 12.9511 63.9699 11.5588 68.9041 10.9858C69.1228 10.9587 69.3415 10.9315 69.5668 10.9036C77.8244 10.0632 85.8494 11.7525 93.4844 14.9075C94.4041 13.5385 95.2053 12.1226 95.9824 10.6633C96.9634 8.83738 97.9596 7.02213 98.98 5.21935C99.0924 5.02058 99.2049 4.82181 99.3207 4.61702C99.5349 4.23947 99.75 3.86243 99.9659 3.48597C100.18 3.10937 100.391 2.73048 100.598 2.34973C100.701 2.16404 100.804 1.97836 100.91 1.78705C101 1.62087 101.09 1.4547 101.183 1.28348C101.517 0.816947 101.75 0.649878 102.277 0.459121C103.042 0.487316 103.524 0.560459 104.163 1.00094C104.597 1.68174 104.535 2.1304 104.476 2.93599C104.23 3.54538 104.23 3.54538 103.882 4.15265C103.753 4.38134 103.624 4.61003 103.491 4.84565C103.349 5.09064 103.206 5.33562 103.064 5.58056C102.919 5.83583 102.774 6.09129 102.629 6.34692C102.33 6.87486 102.03 7.40183 101.728 7.92812C101.03 9.14715 100.35 10.3769 99.667 11.605C98.7435 13.2593 97.8144 14.9101 96.8817 16.5588C96.9889 16.6325 97.0961 16.7063 97.2065 16.7824C97.5017 16.9857 97.7968 17.1894 98.0917 17.3933C98.5159 17.6844 98.9414 17.9729 99.3688 18.2592C109.502 25.0831 116.577 35.4215 119.226 47.6486C119.265 47.8254 119.304 48.0021 119.344 48.1842C119.73 50.0751 119.885 51.9972 120.063 53.9182C120.187 53.9168 120.311 53.9154 120.438 53.914C121.748 53.9001 123.059 53.8909 124.369 53.8842C124.855 53.8811 125.342 53.8769 125.828 53.8715C132.294 53.8013 138.957 54.4779 143.894 59.246C147.078 62.6962 147.302 66.8451 147.293 71.3481C147.294 71.7764 147.295 72.2047 147.296 72.633C147.298 73.8056 147.297 74.9781 147.297 76.1507C147.296 77.417 147.298 78.6833 147.299 79.9497C147.302 82.4287 147.302 84.9078 147.302 87.3869C147.301 89.4022 147.302 91.4174 147.303 93.4327C147.303 93.7226 147.303 94.0124 147.303 94.3023C147.303 94.7392 147.303 95.176 147.304 95.6129C147.305 99.6726 147.306 103.732 147.305 107.792C147.305 107.945 147.305 108.098 147.305 108.255C147.305 109.031 147.305 109.806 147.305 110.581C147.305 110.735 147.305 110.888 147.305 111.047C147.305 111.358 147.304 111.67 147.304 111.981C147.303 116.824 147.305 121.667 147.309 126.511C147.313 131.956 147.315 137.402 147.314 142.848C147.314 143.428 147.314 144.009 147.314 144.59C147.314 144.733 147.314 144.877 147.314 145.024C147.314 147.18 147.315 149.337 147.317 151.493C147.319 153.946 147.32 156.399 147.317 158.852C147.316 160.104 147.316 161.355 147.318 162.606C147.32 163.752 147.32 164.899 147.317 166.045C147.316 166.459 147.317 166.872 147.319 167.286C147.336 172.154 146.415 175.997 143.12 179.658C140.553 182.216 137.232 183.365 133.712 183.369C133.528 183.37 133.344 183.371 133.155 183.371C132.769 183.372 132.382 183.373 131.996 183.373C131.403 183.373 130.81 183.377 130.218 183.381C129.842 183.382 129.466 183.382 129.09 183.382C128.913 183.384 128.735 183.385 128.552 183.387C127.303 183.382 127.303 183.382 126.858 182.922C126.809 182.497 126.809 182.497 126.81 181.963C126.809 181.66 126.809 181.66 126.808 181.351C126.809 181.129 126.811 180.906 126.812 180.677C126.812 180.443 126.812 180.21 126.812 179.969C126.812 179.194 126.816 178.419 126.819 177.644C126.819 177.108 126.82 176.571 126.82 176.035C126.822 174.766 126.825 173.497 126.829 172.228C126.834 170.642 126.836 169.056 126.838 167.47C126.842 164.639 126.85 161.809 126.858 158.979C120.197 159.047 113.536 159.115 106.674 159.185C107.861 161.705 109.048 164.226 110.271 166.822C113.343 173.387 113.343 173.387 113.468 174.872C113.499 175.236 113.499 175.236 113.531 175.607C113.498 177.564 112.767 179.447 111.47 180.858C111.353 180.987 111.236 181.116 111.115 181.25C109.688 182.678 108.139 183.167 106.174 183.231C104.096 183.166 102.407 182.529 100.878 181.064C99.9263 179.933 99.271 178.678 98.6428 177.336C98.5489 177.139 98.4549 176.941 98.3582 176.738C98.0637 176.117 97.7719 175.495 97.4812 174.872C97.3446 174.58 97.3446 174.58 97.2053 174.281C96.6552 173.102 96.1098 171.92 95.5655 170.737C95.0822 169.689 94.5954 168.643 94.1089 167.596C94.0115 167.386 93.9141 167.176 93.8137 166.96C93.3252 165.908 92.835 164.857 92.3412 163.808C92.0981 163.291 91.8555 162.774 91.6129 162.258C91.4388 161.887 91.2638 161.517 91.0888 161.147C90.9839 160.923 90.879 160.7 90.7709 160.469C90.6774 160.271 90.5838 160.073 90.4874 159.868C90.287 159.392 90.287 159.392 90.287 158.979C79.4057 159.047 68.5244 159.115 57.3133 159.185C55.5986 162.949 53.8868 166.712 52.1917 170.484C52.027 170.85 51.8624 171.216 51.6977 171.582C51.5721 171.862 51.4465 172.141 51.321 172.421C50.8962 173.367 50.4701 174.312 50.0427 175.257C49.9043 175.563 49.7663 175.869 49.6287 176.176C47.0391 181.946 47.0391 181.946 44.1395 183.185C42.2783 183.857 40.232 183.761 38.4206 182.974C36.7118 182.075 35.3233 180.673 34.5565 178.832C33.6242 175.793 34.5683 173.187 35.8555 170.434C36.0261 170.062 36.1966 169.69 36.3671 169.318C36.5523 168.915 36.7385 168.513 36.9249 168.111C37.3675 167.154 37.8048 166.195 38.2419 165.235C38.8389 163.926 39.4364 162.616 40.0358 161.307C40.0998 161.167 40.1638 161.027 40.2297 160.883C40.5222 160.245 40.8192 159.61 41.1263 158.979C40.9141 158.98 40.9141 158.98 40.6977 158.981C37.2445 158.999 33.7913 159.013 30.3381 159.021C28.6681 159.026 26.9981 159.031 25.3281 159.041C23.8713 159.049 22.4145 159.055 20.9576 159.056C20.1874 159.057 19.4172 159.06 18.647 159.066C17.9195 159.072 17.1921 159.073 16.4646 159.072C16.0754 159.072 15.6863 159.077 15.2971 159.081C11.2668 159.062 7.71663 157.392 4.83179 154.522C2.10712 151.652 0.724057 147.694 0.732322 143.726C0.731911 143.542 0.7315 143.359 0.731077 143.17C0.729945 142.553 0.730236 141.936 0.730519 141.319C0.730003 140.873 0.729401 140.427 0.72872 139.981C0.727107 138.754 0.726749 137.527 0.726601 136.3C0.726231 134.977 0.724724 133.654 0.723378 132.331C0.720521 129.286 0.71936 126.242 0.718444 123.198C0.717977 121.693 0.717255 120.188 0.716505 118.683C0.71394 113.53 0.7118 108.377 0.711111 103.224C0.711066 102.901 0.711021 102.577 0.710976 102.254C0.710932 101.93 0.710889 101.605 0.710845 101.281C0.710757 100.631 0.710667 99.9804 0.710577 99.33C0.710555 99.1687 0.710532 99.0075 0.71051 98.8413C0.709784 93.614 0.706603 88.3867 0.701944 83.1593C0.697026 77.6309 0.694288 72.1025 0.69405 66.5741C0.694015 65.9669 0.693974 65.3597 0.693925 64.7525C0.693908 64.5282 0.693905 64.5282 0.693888 64.2994C0.693658 61.896 0.691457 59.4927 0.688549 57.0893C0.685674 54.6722 0.685085 52.2552 0.68664 49.8381C0.68742 48.5293 0.687235 47.2206 0.684429 45.9118C0.681882 44.7126 0.682125 43.5135 0.684548 42.3144C0.684939 41.8815 0.684325 41.4487 0.682581 41.0159C0.66369 36.0097 1.63477 31.7616 5.05437 27.9965C7.76199 25.3003 11.344 23.5363 15.1485 23.5564C15.5023 23.5574 15.5023 23.5574 15.8632 23.5584C16.1192 23.5601 16.3753 23.5619 16.639 23.5637C16.9136 23.5647 17.1881 23.5657 17.4627 23.5665C18.0525 23.5684 18.6423 23.5707 19.2321 23.5733C20.1662 23.577 21.1003 23.5774 22.0344 23.5769C22.1924 23.5768 22.3504 23.5768 22.5131 23.5767C23.1643 23.5763 23.8155 23.5759 24.4667 23.5754C26.3118 23.5743 28.1568 23.5763 30.0019 23.5871C31.4698 23.5957 32.9376 23.5977 34.4056 23.5921C35.1813 23.5893 35.9568 23.5899 36.7325 23.5985C37.4629 23.6065 38.1928 23.6057 38.9233 23.5985C39.3162 23.5968 39.7091 23.6043 40.102 23.6121C41.4583 23.5893 42.2177 23.4248 43.2423 22.4735C43.5374 22.1544 43.8314 21.8342 44.1239 21.5125C44.7158 21.012 45.3291 20.5455 45.9474 20.0806C46.1085 19.9585 46.2696 19.8365 46.4356 19.7108C47.9483 18.5779 49.5157 17.5496 51.1183 16.5588C51.0432 16.4243 50.9681 16.2898 50.8907 16.1513C50.7842 15.9606 50.6777 15.77 50.568 15.5735C50.4481 15.3588 50.3282 15.1442 50.2046 14.923C49.9364 14.4429 49.6683 13.9628 49.4001 13.4826C48.5553 11.9702 48.5553 11.9702 47.7103 10.4579C47.6439 10.3392 47.5776 10.2205 47.5092 10.0982C47.3122 9.74583 47.1152 9.39353 46.9182 9.04123C46.6638 8.5857 46.4098 8.12992 46.1562 7.6739C45.6384 6.74339 45.1201 5.8144 44.5798 4.89765C44.503 4.76548 44.4262 4.63331 44.3471 4.49713C44.1565 4.17023 43.9628 3.84526 43.7687 3.52054C43.4665 2.79748 43.4506 2.27128 43.5244 1.49115C44.014 0.7921 44.2965 0.503088 45.1231 0.343018Z" fill="#4184F3"/>
<path d="M45.1231 0.343018C46.0326 0.519159 46.541 1.01797 47.066 1.79249C47.1686 1.98147 47.2711 2.17045 47.3768 2.36515C47.4945 2.57923 47.6121 2.79332 47.7334 3.0139C47.8571 3.24361 47.9808 3.47333 48.1082 3.71001C48.2397 3.95051 48.3714 4.19088 48.5033 4.43112C48.7068 4.80182 48.9101 5.17262 49.1127 5.54387C49.7926 6.78988 50.4922 8.0237 51.1932 9.25716C52.2538 11.1294 53.2954 13.0116 54.3157 14.9075C54.4601 14.8515 54.6045 14.7954 54.7533 14.7377C59.3884 12.9511 63.9699 11.5588 68.9041 10.9858C69.1228 10.9587 69.3415 10.9315 69.5668 10.9036C77.8244 10.0632 85.8494 11.7525 93.4844 14.9075C94.4041 13.5385 95.2053 12.1226 95.9824 10.6633C96.9634 8.83738 97.9596 7.02213 98.98 5.21935C99.0924 5.02058 99.2049 4.82181 99.3207 4.61702C99.5349 4.23947 99.75 3.86243 99.9659 3.48597C100.18 3.10937 100.391 2.73048 100.598 2.34973C100.701 2.16404 100.804 1.97836 100.91 1.78705C101 1.62087 101.09 1.4547 101.183 1.28348C101.517 0.816947 101.75 0.649878 102.277 0.459121C103.042 0.487316 103.524 0.560459 104.163 1.00094C104.597 1.68174 104.535 2.1304 104.476 2.93599C104.23 3.54538 104.23 3.54538 103.882 4.15265C103.753 4.38134 103.624 4.61003 103.491 4.84564C103.349 5.09064 103.206 5.33562 103.064 5.58056C102.919 5.83583 102.774 6.09129 102.629 6.34692C102.33 6.87486 102.03 7.40183 101.728 7.92812C101.03 9.14715 100.35 10.3769 99.667 11.605C98.7435 13.2593 97.8144 14.9101 96.8817 16.5588C96.9889 16.6325 97.0961 16.7063 97.2065 16.7824C97.5017 16.9857 97.7968 17.1894 98.0917 17.3933C98.5159 17.6844 98.9414 17.9729 99.3688 18.2592C109.497 25.0799 116.633 35.4545 119.226 47.7002C119.657 49.8141 120.078 51.9572 120.063 54.1246C108.572 54.1294 97.0803 54.133 85.5889 54.1351C84.2235 54.1354 82.8582 54.1357 81.4929 54.1359C81.3571 54.136 81.2213 54.136 81.0813 54.136C76.7136 54.1369 72.3459 54.1384 67.9781 54.1403C63.344 54.1424 58.7098 54.1436 54.0756 54.144C51.557 54.1443 49.0383 54.1449 46.5196 54.1464C28.3908 54.1571 28.3908 54.1571 20.5126 54.0689C19.9041 54.062 19.2958 54.0564 18.6873 54.052C11.4821 53.9968 11.4821 53.9968 8.87709 52.525C8.74406 52.4529 8.61102 52.3808 8.47395 52.3065C7.40982 51.7145 6.45361 51.0404 5.55475 50.2029C5.43522 50.0983 5.31569 49.9938 5.19254 49.886C2.33098 47.2009 1.08448 42.8589 0.688334 38.9901C0.570756 34.8556 2.35805 30.9652 5.05437 27.9965C7.76199 25.3003 11.344 23.5363 15.1485 23.5564C15.5023 23.5574 15.5023 23.5574 15.8632 23.5584C16.1192 23.5601 16.3753 23.5619 16.639 23.5637C16.9136 23.5647 17.1881 23.5657 17.4627 23.5665C18.0525 23.5684 18.6423 23.5707 19.2321 23.5733C20.1662 23.577 21.1003 23.5774 22.0344 23.5769C22.1924 23.5768 22.3504 23.5768 22.5131 23.5767C23.1643 23.5763 23.8155 23.5759 24.4667 23.5754C26.3118 23.5743 28.1568 23.5763 30.0019 23.5871C31.4698 23.5957 32.9376 23.5977 34.4056 23.5921C35.1813 23.5893 35.9568 23.5899 36.7325 23.5985C37.4629 23.6065 38.1929 23.6057 38.9233 23.5985C39.3162 23.5968 39.7091 23.6043 40.102 23.6121C41.4583 23.5893 42.2177 23.4248 43.2423 22.4735C43.5374 22.1544 43.8314 21.8342 44.1239 21.5125C44.7158 21.012 45.3291 20.5455 45.9474 20.0806C46.1085 19.9585 46.2696 19.8365 46.4356 19.7108C47.9483 18.5779 49.5157 17.5496 51.1183 16.5588C51.0432 16.4243 50.9681 16.2898 50.8907 16.1513C50.7842 15.9606 50.6777 15.7699 50.568 15.5735C50.4481 15.3588 50.3282 15.1442 50.2046 14.923C49.9364 14.4429 49.6683 13.9628 49.4001 13.4826C48.5553 11.9702 48.5553 11.9702 47.7103 10.4579C47.6439 10.3392 47.5776 10.2205 47.5092 10.0982C47.3122 9.74583 47.1152 9.39353 46.9182 9.04123C46.6638 8.5857 46.4098 8.12992 46.1562 7.6739C45.6384 6.74339 45.1201 5.8144 44.5798 4.89765C44.503 4.76548 44.4262 4.63331 44.3471 4.49713C44.1565 4.17023 43.9628 3.84526 43.7687 3.52054C43.4665 2.79748 43.4506 2.27128 43.5244 1.49115C44.014 0.7921 44.2965 0.503088 45.1231 0.343018Z" fill="#3DDB84"/>
<path d="M75.3614 69.8501C76.0008 70.2956 76.1868 70.5248 76.498 71.2563C76.5799 72.0129 76.5676 72.7638 76.5565 73.5243C76.5557 73.7428 76.5548 73.9612 76.5539 74.1863C76.5506 74.8824 76.5431 75.5784 76.5354 76.2745C76.5324 76.7471 76.5297 77.2197 76.5272 77.6923C76.5206 78.8495 76.5106 80.0066 76.498 81.1638C76.6214 81.1911 76.7449 81.2184 76.8721 81.2465C77.0341 81.2829 77.196 81.3192 77.3629 81.3567C77.5235 81.3925 77.684 81.4283 77.8494 81.4652C80.591 82.1479 83.1042 84.6414 84.6415 86.9818C86.4655 90.0882 87.103 94.0372 86.3089 97.5972C85.4731 100.709 83.86 102.869 81.6938 105.107C81.7676 105.818 81.9803 106.397 82.285 107.033C82.366 107.204 82.447 107.375 82.5305 107.551C82.6186 107.733 82.7068 107.916 82.7976 108.105C82.889 108.296 82.9804 108.488 83.0745 108.686C83.371 109.308 83.669 109.929 83.967 110.551C84.2721 111.19 84.5768 111.83 84.8814 112.47C85.0808 112.889 85.2804 113.307 85.4801 113.726C86.167 115.166 86.8467 116.609 87.5142 118.059C87.5958 118.236 87.6774 118.413 87.7616 118.596C87.9213 118.943 88.0809 119.289 88.2404 119.636C88.7161 120.668 89.1958 121.698 89.6749 122.729C89.8766 123.162 90.0782 123.596 90.2799 124.03C90.3801 124.245 90.4803 124.461 90.5835 124.683C91.0843 125.76 91.5849 126.837 92.0855 127.915C92.2853 128.345 92.4852 128.775 92.685 129.205C93.8841 131.785 95.0831 134.365 96.2821 136.945C96.4304 137.264 96.4304 137.264 96.5817 137.589C96.7822 138.021 96.9827 138.452 97.1832 138.884C97.672 139.936 98.1614 140.988 98.6521 142.04C99.7984 144.498 100.93 146.963 102.053 149.432C104.01 153.74 105.996 158.033 108.073 162.281C109.219 164.629 110.354 166.981 111.457 169.351C111.592 169.638 111.592 169.638 111.729 169.931C113.346 173.424 113.346 173.424 113.468 174.872C113.489 175.115 113.51 175.357 113.531 175.607C113.498 177.564 112.767 179.447 111.47 180.858C111.353 180.987 111.236 181.116 111.115 181.25C109.688 182.678 108.139 183.167 106.174 183.231C104.096 183.166 102.407 182.529 100.878 181.064C99.9263 179.933 99.271 178.678 98.6427 177.336C98.5488 177.139 98.4549 176.941 98.3582 176.738C98.0636 176.117 97.7719 175.495 97.4812 174.872C97.3901 174.677 97.299 174.482 97.2052 174.281C96.6552 173.102 96.1098 171.92 95.5654 170.737C95.0821 169.689 94.5954 168.643 94.1089 167.596C94.0115 167.386 93.914 167.176 93.8137 166.96C93.3251 165.908 92.835 164.857 92.3412 163.808C92.098 163.291 91.8555 162.774 91.6129 162.258C91.4387 161.887 91.2637 161.517 91.0887 161.147C90.9839 160.923 90.879 160.7 90.7709 160.469C90.6306 160.172 90.6306 160.172 90.4874 159.868C90.2869 159.392 90.2869 159.392 90.2869 158.979C79.4056 159.047 68.5243 159.115 57.3133 159.185C55.5986 162.949 53.8867 166.712 52.1916 170.484C52.027 170.85 51.8624 171.216 51.6977 171.582C51.5721 171.862 51.4465 172.141 51.321 172.421C50.8962 173.367 50.4701 174.312 50.0427 175.257C49.9043 175.563 49.7662 175.869 49.6286 176.176C47.0391 181.946 47.0391 181.946 44.1395 183.185C42.2783 183.857 40.232 183.761 38.4206 182.974C36.7117 182.075 35.3233 180.673 34.5565 178.832C33.6242 175.793 34.5682 173.187 35.8555 170.434C35.9698 170.185 36.084 169.937 36.198 169.688C36.4436 169.152 36.6904 168.617 36.938 168.082C37.3415 167.21 37.7393 166.336 38.1365 165.46C39.6304 162.172 41.1489 158.896 42.6912 155.632C43.7282 153.435 44.7415 151.23 45.7321 149.01C46.6165 147.03 47.5168 145.057 48.4204 143.085C49.4275 140.888 50.4295 138.687 51.418 136.48C52.3951 134.3 53.3838 132.125 54.3782 129.953C54.4497 129.797 54.5212 129.64 54.595 129.479C54.885 128.846 55.175 128.212 55.4651 127.579C56.2324 125.903 56.9983 124.226 57.763 122.548C57.8295 122.402 57.8961 122.256 57.9647 122.106C58.9521 119.939 59.9311 117.768 60.9046 115.594C61.5371 114.185 62.1757 112.778 62.8191 111.374C62.8969 111.204 62.9748 111.034 63.055 110.859C63.4406 110.017 63.8268 109.176 64.2136 108.335C64.3543 108.028 64.4949 107.722 64.6356 107.415C64.7331 107.204 64.7331 107.204 64.8326 106.988C65.0864 106.434 65.3189 105.895 65.5068 105.313C65.346 105.243 65.346 105.243 65.182 105.171C62.6309 103.715 61.211 100.805 60.3609 98.0374C59.3846 94.4029 59.9252 90.7813 61.663 87.5075C63.5111 84.2213 66.4111 82.0022 69.9407 80.9702C70.4961 80.8266 70.9267 80.7509 71.502 80.7509C71.5002 80.6317 71.4984 80.5125 71.4966 80.3896C71.4789 79.1474 71.4668 77.9052 71.4581 76.6629C71.454 76.1994 71.4486 75.7359 71.4417 75.2725C71.432 74.6059 71.4274 73.9394 71.4239 73.2728C71.4198 73.0659 71.4157 72.859 71.4114 72.6459C71.411 71.2016 71.411 71.2016 71.8847 70.4119C72.9323 69.4211 74.0483 69.3639 75.3614 69.8501Z" fill="#073042"/>
<path d="M147.042 69.8114C147.108 69.8114 147.173 69.8114 147.241 69.8114C147.252 79.4129 147.261 89.0143 147.267 98.6158C147.267 98.8291 147.267 98.8291 147.267 99.0467C147.269 102.137 147.27 105.227 147.272 108.317C147.273 109.833 147.274 111.348 147.274 112.864C147.274 113.015 147.274 113.165 147.275 113.321C147.277 118.206 147.282 123.091 147.287 127.976C147.293 132.998 147.296 138.02 147.298 143.041C147.298 143.751 147.298 144.461 147.298 145.171C147.298 145.38 147.298 145.38 147.298 145.594C147.299 147.84 147.302 150.085 147.305 152.331C147.309 154.591 147.31 156.85 147.309 159.11C147.309 160.333 147.31 161.557 147.313 162.78C147.316 163.901 147.316 165.023 147.314 166.144C147.314 166.548 147.314 166.953 147.316 167.357C147.338 172.196 146.392 176.022 143.12 179.658C140.553 182.216 137.232 183.365 133.712 183.369C133.528 183.37 133.344 183.371 133.155 183.371C132.769 183.372 132.382 183.373 131.996 183.373C131.403 183.373 130.81 183.377 130.218 183.381C129.842 183.381 129.466 183.382 129.09 183.382C128.913 183.384 128.735 183.385 128.552 183.387C127.303 183.382 127.303 183.382 126.858 182.922C126.808 182.506 126.808 182.506 126.808 181.982C126.807 181.783 126.806 181.584 126.805 181.378C126.806 181.158 126.807 180.937 126.808 180.709C126.808 180.476 126.807 180.242 126.807 180.002C126.806 179.211 126.807 178.421 126.809 177.631C126.809 177.065 126.809 176.498 126.808 175.932C126.807 174.541 126.808 173.15 126.81 171.759C126.812 170.114 126.812 168.469 126.812 166.825C126.811 163.655 126.814 160.486 126.817 157.317C126.819 154.579 126.821 151.841 126.822 149.103C126.83 130.424 126.862 111.744 127.058 83.4342C127.713 83.0958 128.44 83.1908 129.161 83.1842C129.513 83.1784 129.865 83.1725 130.217 83.1665C130.77 83.158 131.323 83.1504 131.877 83.1449C133.938 83.1227 135.873 83.0892 137.849 82.4021C138.076 82.3245 138.303 82.2468 138.537 82.1667C139.907 81.5812 141.074 80.8623 142.245 79.9253C142.493 79.7337 142.493 79.7337 142.747 79.5383C145.062 77.4988 146.475 74.2443 146.867 71.1788C146.9 70.9218 146.934 70.6648 146.968 70.4C147.004 70.1086 147.004 70.1086 147.042 69.8114Z" fill="#073042"/>
<path d="M15.162 23.5516C15.4007 23.5514 15.6394 23.5511 15.8854 23.5508C16.2742 23.5519 16.2742 23.5519 16.6708 23.553C16.9485 23.5531 17.2263 23.5531 17.5041 23.5529C18.2559 23.5529 19.0077 23.5541 19.7595 23.5555C20.546 23.5568 21.3325 23.5569 22.119 23.5572C23.6074 23.5578 25.0958 23.5595 26.5841 23.5616C28.279 23.5639 29.9739 23.565 31.6688 23.5661C35.1544 23.5682 38.6399 23.5719 42.1255 23.5765C41.9349 23.8082 41.744 24.0397 41.5531 24.271C41.4468 24.3999 41.3405 24.5289 41.2311 24.6617C40.8715 25.0862 40.487 25.4732 40.0896 25.8598C34.5068 31.5679 30.8309 39.5809 29.0485 47.3905C29.0015 47.5935 28.9546 47.7965 28.9063 48.0057C28.4883 49.9564 28.3166 51.932 28.1367 53.9181C26.2864 53.9325 24.4361 53.9435 22.5858 53.9502C21.7262 53.9534 20.8668 53.9577 20.0073 53.9648C19.1754 53.9716 18.3436 53.9753 17.5117 53.9769C17.1968 53.978 16.8819 53.9802 16.567 53.9836C13.9215 54.0108 11.2508 53.866 8.87709 52.5249C8.74406 52.4528 8.61102 52.3807 8.47395 52.3064C7.40982 51.7145 6.45361 51.0403 5.55475 50.2028C5.43522 50.0982 5.31569 49.9937 5.19254 49.8859C2.33098 47.2008 1.08448 42.8589 0.688334 38.99C0.570756 34.8555 2.35805 30.9651 5.05437 27.9964C7.77272 25.2895 11.3478 23.5481 15.162 23.5516Z" fill="#073042"/>
<path d="M76.4178 131.441C77.9461 132.372 78.8063 133.789 79.537 135.41C79.6711 135.697 79.6711 135.697 79.8078 135.989C80.0941 136.603 80.3757 137.219 80.6572 137.835C80.8545 138.26 81.0521 138.685 81.2501 139.11C81.7215 140.125 82.1894 141.14 82.6559 142.157C82.9585 142.815 83.2638 143.473 83.5697 144.13C83.9079 144.856 84.2447 145.584 84.5798 146.312C85.1472 147.544 85.7219 148.772 86.2967 150.001C86.4752 150.382 86.6534 150.763 86.8316 151.145C87.3617 152.279 87.8921 153.413 88.4248 154.546C88.7047 155.142 88.9836 155.738 89.2628 156.334C89.3663 156.554 89.4699 156.773 89.5766 156.999C89.7172 157.3 89.7172 157.3 89.8608 157.607C89.9847 157.871 89.9847 157.871 90.1112 158.14C90.287 158.566 90.287 158.566 90.287 158.979C79.4057 158.979 68.5244 158.979 57.3134 158.979C57.9872 156.891 57.9872 156.891 58.4484 155.924C58.5502 155.708 58.6521 155.493 58.757 155.271C58.8659 155.043 58.9747 154.815 59.0869 154.58C59.3228 154.08 59.5583 153.58 59.7934 153.08C59.8534 152.953 59.9134 152.825 59.9752 152.694C60.5896 151.386 61.1824 150.068 61.7723 148.749C62.4787 147.17 63.1876 145.592 63.9057 144.018C64.0076 143.795 64.0076 143.795 64.1114 143.567C64.4548 142.815 64.7987 142.064 65.1433 141.312C65.7573 139.971 66.3637 138.628 66.9416 137.27C67.0379 137.045 67.1342 136.82 67.2334 136.589C67.4068 136.182 67.5776 135.774 67.745 135.365C68.537 133.512 69.7034 131.913 71.5348 131.075C73.1357 130.601 74.9123 130.683 76.4178 131.441Z" fill="#4184F3"/>
<path d="M79.2958 69.6049C79.9802 70.0247 80.536 70.5156 80.8945 71.2562C80.9125 71.5745 80.918 71.8936 80.9172 72.2125C80.9172 72.4108 80.9171 72.6092 80.9171 72.8135C80.9161 73.0281 80.9151 73.2427 80.914 73.4638C80.9137 73.6831 80.9134 73.9024 80.9131 74.1284C80.912 74.8308 80.9095 75.5333 80.907 76.2357C80.906 76.7112 80.9051 77.1866 80.9042 77.662C80.902 78.8292 80.8987 79.9964 80.8945 81.1637C81.0167 81.1902 81.1389 81.2168 81.2647 81.2442C81.5062 81.298 81.5062 81.298 81.7525 81.3528C81.9118 81.3879 82.0711 81.423 82.2352 81.4592C85.4782 82.2901 87.9164 85.2633 89.586 88.0621C91.1402 90.9688 91.3183 94.6411 90.5742 97.8309C89.7421 100.627 88.4751 102.667 86.49 104.694C86.3581 104.83 86.2262 104.966 86.0903 105.107C86.1572 106.038 86.5791 106.83 86.9756 107.653C87.0447 107.799 87.1139 107.945 87.1851 108.095C87.4104 108.57 87.6372 109.044 87.8639 109.519C88.0204 109.848 88.1767 110.177 88.3328 110.507C88.5668 111.001 88.8009 111.494 89.0354 111.988C89.6477 113.277 90.2514 114.569 90.849 115.866C91.0213 116.239 91.1935 116.612 91.3658 116.985C91.4502 117.168 91.5347 117.351 91.6216 117.539C92.1036 118.582 92.588 119.623 93.0722 120.665C93.172 120.879 93.2718 121.094 93.3746 121.315C93.5767 121.75 93.7787 122.184 93.9808 122.619C94.4816 123.696 94.9822 124.773 95.4828 125.85C95.6827 126.281 95.8825 126.711 96.0823 127.141C98.8801 133.161 101.678 139.181 104.476 145.201C104.575 145.414 104.674 145.627 104.775 145.846C104.975 146.276 105.175 146.705 105.374 147.134C105.878 148.22 106.383 149.305 106.888 150.39C107.386 151.461 107.884 152.533 108.381 153.604C108.675 154.238 108.971 154.871 109.267 155.504C109.452 155.901 109.637 156.298 109.821 156.695C109.907 156.879 109.993 157.062 110.082 157.251C110.16 157.419 110.238 157.586 110.318 157.759C110.386 157.905 110.455 158.052 110.525 158.203C110.671 158.566 110.671 158.566 110.671 158.979C109.22 158.979 107.769 158.979 106.274 158.979C103.028 152.121 103.028 152.121 101.64 148.994C100.212 145.78 98.6947 142.612 97.187 139.437C97.0482 139.145 97.0482 139.145 96.9067 138.847C96.8157 138.655 96.7247 138.464 96.631 138.266C95.7182 136.343 94.8219 134.412 93.9322 132.477C93.4566 131.445 92.9769 130.415 92.4977 129.385C92.296 128.951 92.0944 128.518 91.8927 128.084C91.7925 127.868 91.6924 127.653 91.5892 127.431C91.0883 126.354 90.5878 125.277 90.0871 124.199C89.8873 123.769 89.6875 123.339 89.4876 122.909C88.2886 120.329 87.0895 117.749 85.8905 115.169C85.7914 114.956 85.6923 114.743 85.5902 114.523C85.392 114.096 85.1939 113.67 84.996 113.243C84.4726 112.115 83.946 110.988 83.4151 109.864C83.3047 109.629 83.1944 109.394 83.0806 109.152C82.8687 108.702 82.6559 108.251 82.4421 107.802C82.3469 107.599 82.2517 107.396 82.1536 107.187C82.0695 107.009 81.9853 106.831 81.8986 106.648C81.6883 106.125 81.5505 105.67 81.494 105.107C81.8625 104.634 81.8625 104.634 82.3933 104.152C84.6369 101.961 86.2377 98.8079 86.3503 95.5766C86.3542 95.1928 86.3549 94.809 86.3526 94.4252C86.3515 94.224 86.3504 94.0227 86.3492 93.8154C86.2878 90.0467 84.8086 87.1271 82.3184 84.4274C81.0207 83.1407 79.7142 82.3763 78.0343 81.7458C77.8863 81.6894 77.7383 81.633 77.5858 81.5749C77.2235 81.437 76.8608 81.3002 76.498 81.1637C76.4949 80.9795 76.4949 80.9795 76.4918 80.7917C76.4702 79.516 76.4473 78.2404 76.4236 76.9647C76.4149 76.4884 76.4066 76.0121 76.3986 75.5358C76.3871 74.8518 76.3744 74.1679 76.3614 73.4839C76.3581 73.2704 76.3547 73.0569 76.3513 72.8369C76.3473 72.6386 76.3433 72.4403 76.3392 72.236C76.3361 72.0613 76.333 71.8867 76.3298 71.7068C76.3136 71.2191 76.3136 71.2191 76.0983 70.637C77.0603 69.5911 77.9033 69.276 79.2958 69.6049Z" fill="#376FB1"/>
<path d="M77.8102 87.268C79.4537 88.5002 80.8647 90.2254 81.2941 92.3097C81.6558 95.0883 81.3158 97.4505 79.6954 99.7403C78.2055 101.532 76.0754 102.622 73.8056 102.896C71.3535 102.984 69.1652 102.015 67.3553 100.334C65.6961 98.5106 65.0012 96.0657 65.0446 93.6191C65.2679 91.1511 66.6083 89.0935 68.4029 87.5196C71.3178 85.3671 74.7704 85.3422 77.8102 87.268Z" fill="#4184F3"/>
<path d="M75.3817 131.12C75.5386 131.219 75.5386 131.219 75.6986 131.32C75.5948 131.395 75.491 131.47 75.3841 131.548C75.2447 131.651 75.1053 131.755 74.9617 131.862C74.8249 131.963 74.6882 132.063 74.5472 132.167C73.3451 133.22 72.7513 134.431 72.1015 135.887C72.0074 136.094 71.9134 136.301 71.8164 136.514C71.5099 137.19 71.2061 137.867 70.9025 138.544C70.6952 139.004 70.4878 139.464 70.2803 139.924C69.846 140.888 69.4129 141.852 68.9806 142.817C68.2962 144.344 67.6076 145.869 66.9182 147.394C66.8022 147.651 66.6862 147.907 66.5702 148.164C66.0255 149.369 65.4805 150.574 64.9353 151.779C64.6827 152.338 64.4301 152.896 64.1776 153.455C64.0016 153.844 63.8255 154.233 63.6494 154.622C62.9944 156.07 62.3478 157.522 61.7098 158.979C60.259 158.979 58.8082 158.979 57.3134 158.979C57.9872 156.891 57.9872 156.891 58.4484 155.924C58.5502 155.708 58.6521 155.493 58.757 155.271C58.8659 155.043 58.9747 154.815 59.0869 154.58C59.3228 154.08 59.5583 153.58 59.7934 153.08C59.8534 152.953 59.9134 152.825 59.9752 152.694C60.5896 151.386 61.1824 150.068 61.7723 148.749C62.4787 147.17 63.1876 145.592 63.9057 144.018C64.0076 143.795 64.0076 143.795 64.1114 143.567C64.4548 142.815 64.7987 142.064 65.1433 141.312C65.7573 139.971 66.3637 138.628 66.9416 137.27C67.0379 137.045 67.1342 136.821 67.2334 136.589C67.4068 136.182 67.5776 135.774 67.745 135.365C68.5381 133.51 69.7032 131.923 71.5301 131.074C72.7272 130.726 74.2186 130.608 75.3817 131.12Z" fill="#376FB1"/>
<path d="M73.3255 85.8724C73.5734 85.8695 73.8212 85.8665 74.0765 85.8635C74.6994 85.9111 74.6994 85.9111 75.0991 86.3239C74.9278 86.4263 74.7565 86.5288 74.58 86.6343C72.2268 88.0672 70.559 89.5286 69.8119 92.3379C69.3968 94.5991 69.6297 96.8467 70.8182 98.8187C71.9929 100.456 73.3557 101.501 75.0991 102.424C73.8767 103.145 72.5284 102.932 71.2022 102.604C69.2189 101.985 67.4322 100.806 66.3678 98.9421C65.2895 96.7897 64.7005 94.7424 65.2445 92.3161C66.002 89.995 67.3717 88.0138 69.4802 86.8246C70.8184 86.1814 71.8431 85.8804 73.3255 85.8724Z" fill="#376FB0"/>
<path d="M96.7193 32.8648C97.5886 33.5033 98.3987 34.3472 98.8801 35.3417C99.0241 36.7898 98.9913 38.0967 98.0807 39.2634C97.2137 40.1311 96.3843 40.5793 95.1706 40.6437C93.7955 40.5602 92.9286 39.9639 92.0106 38.9409C91.2908 37.8258 91.1192 37.0674 91.372 35.7045C91.7451 34.2916 92.4706 33.5712 93.6679 32.8358C94.6367 32.4228 95.7404 32.5476 96.7193 32.8648Z" fill="#FBFEFD"/>
<path d="M54.5531 32.968C55.4507 33.5049 56.099 34.1436 56.514 35.1353C56.7003 36.3341 56.734 37.5581 56.1768 38.6571C55.4449 39.6173 54.6125 40.3957 53.4133 40.5784C52.056 40.6124 51.1416 40.4262 50.1191 39.4698C49.1251 38.1535 48.9295 36.9772 49.1199 35.3417C49.5555 34.1703 50.2507 33.464 51.3181 32.8648C52.4075 32.4897 53.4915 32.4894 54.5531 32.968Z" fill="#FCFEFD"/>
</svg>
