<svg width="539" height="112" viewBox="0 0 539 112" fill="none" xmlns="http://www.w3.org/2000/svg">
<path d="M79.3938 0C81.0355 0.298626 82.1369 0.822031 83.358 1.38197C83.5885 1.48622 83.8191 1.59048 84.0567 1.69789C84.8292 2.04766 85.5989 2.39874 86.3685 2.74982C86.9217 3.00079 87.475 3.25168 88.0285 3.50249C89.532 4.18427 91.033 4.86718 92.5336 5.55031C94.1042 6.26493 95.6771 6.9785 97.2498 7.69218C100.23 9.04508 103.209 10.3989 106.186 11.7531C109.568 13.2908 112.952 14.8274 116.336 16.364C122.121 18.991 127.905 21.6188 133.686 24.2475C133.931 24.3586 134.175 24.4698 134.427 24.5843C134.875 24.7881 135.324 24.992 135.772 25.1958C136.719 25.6265 137.667 26.057 138.616 26.4869C139.265 26.7815 139.91 27.0781 140.551 27.3763C141.603 27.8557 141.603 27.8557 142.853 28.3043C143.978 28.7387 144.791 29.169 145.692 29.6963C146.744 30.1988 147.807 30.6498 148.991 31.0883C150.117 31.5227 150.929 31.9531 151.83 32.4804C152.811 32.948 153.788 33.3763 154.9 33.7796C156.702 34.4335 158.24 35.206 159.801 35.9744C163.515 37.8022 167.382 39.5583 171.261 41.3138C172.004 41.6506 172.747 41.9875 173.49 42.3244C175.076 43.0438 176.663 43.7629 178.25 44.4817C180.545 45.521 182.839 46.5608 185.132 47.6007C188.855 49.2887 192.579 50.9763 196.303 52.6636C199.917 54.3008 203.53 55.9381 207.143 57.5757C207.366 57.677 207.589 57.7783 207.82 57.8826C208.941 58.3908 210.062 58.899 211.183 59.4072C220.454 63.6099 229.726 67.812 239 72.0136C237.611 72.7604 236.208 73.4886 234.686 74.1807C234.336 74.3402 233.986 74.4997 233.625 74.6641C233.249 74.8347 232.872 75.0053 232.484 75.1811C232.078 75.3659 231.672 75.5508 231.266 75.7357C230.17 76.2342 229.073 76.7321 227.976 77.2298C227.29 77.5409 226.605 77.8521 225.92 78.1634C223.529 79.2494 221.137 80.3348 218.744 81.4199C216.513 82.4317 214.284 83.4446 212.056 84.4579C210.142 85.3287 208.225 86.1987 206.308 87.0682C205.163 87.5873 204.019 88.1066 202.877 88.6267C201.805 89.1145 200.732 89.6015 199.656 90.0878C199.072 90.3524 198.49 90.6179 197.908 90.8834C197.563 91.0392 197.218 91.1951 196.862 91.3557C196.561 91.4922 196.26 91.6288 195.95 91.7695C195.211 92.0586 195.211 92.0586 194.392 92.0586C194.266 92.2136 194.266 92.2136 194.136 92.3718C193.518 92.8433 192.78 93.1286 191.826 93.4615C190.846 93.8317 189.969 94.2463 189.072 94.657C188.857 94.7556 188.642 94.8541 188.42 94.9556C187.666 95.3009 186.914 95.6465 186.161 95.992C183.266 97.32 180.366 98.6456 177.463 99.97C175.708 100.771 173.955 101.572 172.206 102.376C170.513 103.154 168.814 103.93 167.113 104.704C166.464 105 165.818 105.296 165.174 105.594C164.275 106.008 163.371 106.419 162.464 106.829C162.198 106.954 161.932 107.078 161.657 107.206C161.41 107.317 161.163 107.427 160.908 107.542C160.695 107.639 160.482 107.737 160.262 107.837C159.606 108.02 159.606 108.02 158.834 107.975C157.817 107.81 157.327 107.613 156.565 107.267C156.158 107.084 156.158 107.084 155.743 106.897C155.448 106.762 155.153 106.626 154.85 106.487C154.376 106.273 154.376 106.273 153.893 106.054C152.831 105.574 151.773 105.091 150.716 104.608C149.957 104.264 149.198 103.92 148.439 103.576C146.802 102.834 145.167 102.091 143.534 101.347C141.171 100.271 138.804 99.1959 136.436 98.1214C132.592 96.3769 128.751 94.6311 124.912 92.8845C121.187 91.19 117.46 89.4962 113.732 87.8031C113.503 87.6989 113.274 87.5947 113.037 87.4873C111.886 86.9644 110.734 86.4415 109.583 85.9186C101.641 82.3122 93.7026 78.7045 85.7666 75.0955C85.4317 74.9433 85.0969 74.791 84.752 74.6341C84.1355 74.3538 83.519 74.0734 82.9025 73.793C81.4612 73.1375 80.019 72.4824 78.5753 71.828C78.0824 71.6044 77.5894 71.3808 77.0964 71.1573C76.8186 71.0313 76.5409 70.9053 76.2547 70.7755C53.2299 60.3333 30.2052 49.8911 0 36.1924C0.742342 35.4661 1.77628 34.9618 3.01819 34.4031C3.2331 34.3053 3.44801 34.2074 3.66943 34.1066C4.1225 33.9009 4.5766 33.6957 5.03165 33.4908C5.72989 33.1762 6.42363 32.8596 7.11705 32.5427C7.55801 32.343 7.99922 32.1433 8.44071 31.9438C8.64876 31.8487 8.85681 31.7536 9.07117 31.6556C10.5463 30.9955 10.5463 30.9955 11.4589 30.9955C11.5855 30.8462 11.5855 30.8462 11.7147 30.6939C12.4953 30.0824 13.5249 29.5861 14.7329 29.1395C15.003 29.1395 15.2731 29.1395 15.5514 29.1395C15.6442 29.0362 15.7371 28.9328 15.8327 28.8263C16.7462 28.0964 18.076 27.5911 19.5159 27.0747C20.5407 26.7331 20.5407 26.7331 21.2808 26.1699C21.5509 26.1699 21.821 26.1699 22.0993 26.1699C22.2344 25.9861 22.3694 25.8024 22.5086 25.6131C23.0969 25.2999 23.0969 25.2999 23.7363 25.0563C24.0064 25.0563 24.2765 25.0563 24.5548 25.0563C24.6898 24.8725 24.8249 24.6888 24.964 24.4995C25.6351 24.2459 26.3191 23.9993 27.0103 23.7571C28.0151 23.3231 28.929 22.9083 29.7471 22.3998C30.013 22.2448 30.013 22.2448 30.2842 22.0866C30.5543 22.0866 30.8245 22.0866 31.1027 22.0866C31.1027 21.9641 31.1027 21.8416 31.1027 21.7154C31.6897 21.4864 32.2791 21.2585 32.8836 21.039C33.8586 20.6754 34.7238 20.269 35.6045 19.8594C35.9505 19.7063 36.2966 19.5532 36.6531 19.3954C37.6485 18.9511 37.6485 18.9511 38.3924 18.4906C39.1475 18.0797 39.8534 17.7714 40.7461 17.4284C42.6889 16.6647 44.5011 15.8493 46.3144 15.0233C46.6741 14.8602 47.0338 14.6971 47.4045 14.529C48.3808 14.0861 49.3561 13.6429 50.3311 13.1994C51.3539 12.7344 52.3779 12.2699 53.4017 11.8053C55.3359 10.9275 57.2691 10.0493 59.2018 9.17086C61.4042 8.16998 63.6077 7.16963 65.8113 6.16933C70.3401 4.11347 74.8674 2.05696 79.3938 0Z" fill="#209AFD"/>
<path d="M159.102 35.1379C160.694 35.3047 161.005 35.375 162.102 35.8888C162.373 36.0147 162.645 36.1405 162.925 36.2702C163.368 36.4797 163.368 36.4797 163.819 36.6935C164.136 36.8408 164.452 36.9881 164.777 37.1398C165.84 37.6358 166.899 38.134 167.957 38.6321C168.717 38.9873 169.476 39.3423 170.236 39.6972C171.873 40.4625 173.509 41.229 175.143 41.9962C177.505 43.1055 179.871 44.213 182.237 45.3202C186.076 47.1165 189.913 48.9142 193.748 50.7127C197.473 52.46 201.2 54.2065 204.929 55.9523C205.158 56.0599 205.388 56.1674 205.625 56.2783C206.778 56.818 207.93 57.3577 209.083 57.8974C218.648 62.3755 228.209 66.8559 237.767 71.3377C236.433 72.1488 235.085 72.9407 233.619 73.6964C233.114 73.9576 233.114 73.9576 232.598 74.2242C232.236 74.4105 231.874 74.5968 231.501 74.7888C231.11 74.9906 230.718 75.1925 230.328 75.3944C229.273 75.9388 228.217 76.4825 227.161 77.026C226.501 77.3658 225.842 77.7056 225.182 78.0455C222.881 79.2314 220.579 80.4168 218.276 81.6017C216.128 82.7067 213.983 83.8127 211.838 84.9192C209.995 85.8701 208.151 86.8202 206.305 87.7697C205.204 88.3366 204.103 88.9037 203.003 89.4716C201.971 90.0043 200.938 90.5361 199.903 91.0672C199.341 91.3562 198.781 91.6461 198.221 91.936C197.888 92.1062 197.556 92.2764 197.213 92.4518C196.924 92.6009 196.634 92.7501 196.336 92.9037C195.623 93.2212 195.623 93.2212 194.825 93.2352C194.706 93.4009 194.706 93.4009 194.584 93.5698C193.994 94.0775 193.283 94.3909 192.362 94.7582C191.417 95.1654 190.572 95.6175 189.709 96.0659C189.502 96.1735 189.295 96.281 189.082 96.3918C188.357 96.7688 187.632 97.146 186.908 97.5232C184.122 98.9729 181.331 100.42 178.537 101.866C176.848 102.74 175.161 103.616 173.478 104.493C171.848 105.342 170.213 106.189 168.575 107.035C167.951 107.357 167.329 107.681 166.709 108.006C165.845 108.458 164.974 108.907 164.102 109.355C163.845 109.49 163.589 109.626 163.325 109.766C163.087 109.887 162.849 110.008 162.604 110.132C162.398 110.239 162.193 110.345 161.982 110.455C161.348 110.66 161.348 110.66 160.595 110.625C159.596 110.468 159.109 110.265 158.354 109.912C158.084 109.787 157.814 109.662 157.535 109.533C157.242 109.394 156.948 109.255 156.645 109.112C156.174 108.893 156.174 108.893 155.693 108.669C154.635 108.176 153.582 107.681 152.529 107.186C151.774 106.833 151.019 106.48 150.263 106.127C148.421 105.267 146.583 104.406 144.745 103.544C142.607 102.54 140.466 101.539 138.325 100.538C134.505 98.7517 130.689 96.9643 126.874 95.176C123.169 93.439 119.462 91.703 115.752 89.968C115.524 89.8611 115.295 89.7541 115.06 89.644C114.599 89.4286 114.139 89.2133 113.678 88.9979C113.451 88.8917 113.224 88.7855 112.99 88.676C112.651 88.5171 112.651 88.5171 112.304 88.355C108.774 86.7037 105.245 85.0517 101.717 83.3995C100.436 82.7998 99.1547 82.2002 97.8735 81.6006C95.8422 80.65 93.8115 79.699 91.7822 78.7474C90.8544 78.3123 89.9261 77.8774 88.9972 77.4429C87.9928 76.9729 86.9896 76.5023 85.9867 76.0315C85.6895 75.8928 85.3923 75.754 85.0861 75.611C84.687 75.4233 84.687 75.4233 84.2798 75.2318C83.9318 75.0687 83.9318 75.0687 83.5768 74.9023C83.0865 74.6484 83.0865 74.6484 83.0817 74.4527C108.475 74.0056 133.868 73.5585 160.03 73.0979C159.724 60.5711 159.417 48.0443 159.102 35.1379Z" fill="#ED7837"/>
<path d="M240 0.165707C247.734 0.165707 255.468 0.165707 263.436 0.165707C263.574 15.5727 263.712 30.9796 263.855 46.8535C264.821 45.6907 265.788 44.5279 266.784 43.3299C267.305 42.7321 267.828 42.1374 268.358 41.5491C268.625 41.2521 268.892 40.955 269.167 40.6489C269.443 40.3436 269.718 40.0383 270.001 39.7237C272.653 36.771 275.284 33.8004 277.896 30.8095C278.528 30.087 279.161 29.366 279.795 28.6453C281.653 26.5326 283.507 24.4181 285.329 22.2708C287.243 20.0226 289.207 17.8253 291.172 15.626C293.662 12.8379 296.129 10.0285 298.59 7.21292C299.505 6.16651 300.421 5.12051 301.337 4.07471C301.651 3.71472 301.651 3.71472 301.972 3.34747C302.517 2.72539 303.064 2.10608 303.612 1.48706C303.784 1.24779 303.956 1.00851 304.133 0.761991C305.26 -0.152457 306.217 0.00749801 307.623 0.0156998C307.9 0.0155068 308.178 0.0153139 308.464 0.0151151C309.382 0.016035 310.299 0.0263118 311.216 0.0366685C311.852 0.0391332 312.488 0.041014 313.124 0.0423341C314.798 0.0473774 316.472 0.0603568 318.146 0.0749767C319.855 0.0884972 321.563 0.0945295 323.271 0.101188C326.623 0.115356 329.974 0.137906 333.326 0.165707C332.725 1.4874 332.139 2.39717 331.137 3.42091C330.87 3.69742 330.602 3.97392 330.327 4.2588C329.908 4.68548 329.908 4.68548 329.481 5.12078C327.862 6.77849 326.271 8.43201 324.801 10.2376C323.025 12.4084 321.087 14.3988 319.149 16.4073C318.434 17.1484 317.721 17.8905 317.008 18.6337C316.695 18.9572 316.383 19.2808 316.061 19.6141C315.302 20.3788 315.302 20.3788 314.912 21.3073C314.636 21.3073 314.359 21.3073 314.075 21.3073C313.984 21.5474 313.892 21.7874 313.798 22.0347C313.052 23.4118 312.04 24.4297 310.97 25.526C310.746 25.7596 310.522 25.9931 310.291 26.2338C309.575 26.9795 308.857 27.7223 308.137 28.4647C307.197 29.4381 306.258 30.413 305.321 31.3895C305.094 31.626 304.867 31.8625 304.633 32.1062C303.206 33.6016 301.861 35.1431 300.556 36.7575C299.095 38.4992 297.495 40.1045 295.922 41.7332C295.247 42.433 294.572 43.1338 293.899 43.8357C293.604 44.1408 293.309 44.4459 293.005 44.7603C292.281 45.4932 292.281 45.4932 291.894 46.413C291.618 46.413 291.342 46.413 291.057 46.413C293.24 49.8011 295.495 53.1155 297.839 56.3817C299.501 58.6984 301.142 61.0307 302.775 63.3704C304.584 65.9602 306.404 68.5397 308.242 71.1058C309.974 73.5236 311.667 75.9672 313.343 78.4283C315.352 81.3773 317.417 84.2753 319.515 87.1547C321.844 90.3504 324.121 93.5773 326.349 96.8519C328.087 99.4038 329.866 101.92 331.67 104.421C335 109.051 335 109.051 335 110.278C331.417 110.422 327.834 110.531 324.249 110.598C322.584 110.63 320.92 110.673 319.256 110.744C307.588 111.223 307.588 111.223 305.228 109.016C304.064 107.524 303.44 105.899 302.775 104.112C302.084 102.987 302.084 102.987 301.353 102.023C301.147 101.722 300.941 101.42 300.729 101.11C298.584 97.9794 296.411 94.8745 294.203 91.794C292.424 89.3076 290.692 86.7881 288.966 84.2612C287.04 81.4438 285.085 78.6493 283.122 75.8597C281.997 74.2564 280.878 72.6492 279.787 71.0198C279.599 70.7397 279.412 70.4597 279.219 70.1711C278.724 69.4301 278.233 68.6869 277.742 67.9435C276.812 66.6515 275.848 65.5866 274.736 64.4715C273.696 65.5525 272.66 66.6359 271.623 67.7198C271.327 68.0276 271.031 68.3353 270.726 68.6523C270.304 69.0952 270.304 69.0952 269.872 69.547C269.481 69.9553 269.481 69.9553 269.082 70.3718C268.42 71.0547 268.42 71.0547 268.04 71.9592C267.763 71.9592 267.487 71.9592 267.203 71.9592C267.116 72.1954 267.03 72.4315 266.941 72.6749C266.381 73.6923 265.925 74.1423 265.094 74.8944C263.913 76.1249 263.559 77.0477 263.516 78.8447C263.521 79.1524 263.526 79.46 263.531 79.7769C263.527 80.1081 263.522 80.4393 263.518 80.7805C263.506 81.8675 263.512 82.9536 263.518 84.0406C263.513 84.7972 263.507 85.5538 263.5 86.3104C263.485 88.2959 263.485 90.2811 263.488 92.2667C263.489 94.6521 263.471 97.0375 263.456 99.4228C263.435 103.041 263.438 106.659 263.436 110.278C255.702 110.278 247.968 110.278 240 110.278C240 73.9412 240 37.604 240 0.165707Z" fill="#FDFAFA"/>
<path d="M462.435 33.5747C463.507 34.5329 464.444 35.5355 465.361 36.6547C465.705 37.0086 466.05 37.3625 466.405 37.7272C474.356 46.3076 478.015 56.8387 478 68.7871C477.848 80.881 473.149 91.2948 465.135 99.8238C455.409 109.432 443.185 112.381 430.232 111.962C419.304 111.365 408.984 105.832 401.474 97.5774C393.77 88.1489 390.387 76.6729 391.091 64.3663C391.796 55.1961 395.351 46.6983 401.007 39.7347C401.265 39.3995 401.522 39.0642 401.788 38.7189C416.505 20.1683 444.808 19.9576 462.435 33.5747ZM426.08 46.7747C425.762 46.9295 425.443 47.0843 425.115 47.2439C420.094 49.9453 416.895 54.0645 415.058 59.6722C413.063 66.3678 413.532 73.354 416.495 79.6371C419.284 84.7611 423.563 88.7222 429.005 90.3346C434.48 91.4958 440.417 91.2136 445.332 88.2378C450.134 84.7383 453.291 80.2268 454.701 74.2196C455.698 67.2473 455.079 60.1613 451.153 54.2547C448.893 51.1576 446.55 48.9284 443.213 47.2147C442.722 46.9424 442.722 46.9424 442.221 46.6647C437.592 44.4716 430.691 44.5151 426.08 46.7747Z" fill="white"/>
<path d="M342.29 4C350.094 4 357.898 4 365.938 4C365.938 11.0189 365.938 18.0378 365.938 25.2694C372.034 25.2519 372.034 25.2519 378.13 25.2295C378.891 25.2282 379.652 25.2271 380.413 25.2262C380.812 25.2239 381.211 25.2216 381.622 25.2193C382.188 25.2192 382.188 25.2192 382.765 25.2191C383.095 25.2181 383.424 25.2172 383.763 25.2162C384.519 25.2694 384.519 25.2694 384.941 25.7126C384.983 26.3495 384.995 26.9885 384.996 27.6269C384.997 28.0336 384.999 28.4402 385 28.8591C384.999 29.5224 384.999 29.5224 384.997 30.1991C384.998 30.6498 384.998 31.1006 384.999 31.565C384.999 32.5201 384.998 33.4752 384.996 34.4303C384.994 35.8978 384.996 37.3653 384.999 38.8329C384.999 39.7583 384.998 40.6838 384.997 41.6092C384.998 42.0514 384.999 42.4936 385 42.9492C384.998 43.5591 384.998 43.5591 384.996 44.1814C384.996 44.5412 384.995 44.9009 384.995 45.2716C384.941 46.0958 384.941 46.0958 384.519 46.5389C383.936 46.58 383.35 46.5909 382.765 46.5892C382.393 46.5891 382.022 46.5891 381.638 46.5891C381.234 46.5868 380.83 46.5845 380.413 46.5821C380.001 46.5815 379.59 46.5809 379.165 46.5802C377.844 46.5778 376.523 46.5722 375.202 46.5666C374.309 46.5643 373.416 46.5623 372.523 46.5605C370.328 46.5556 368.133 46.5482 365.938 46.5389C365.964 51.5194 365.997 56.4999 366.038 61.4803C366.057 63.793 366.073 66.1057 366.085 68.4185C366.096 70.6509 366.113 72.8833 366.134 75.1157C366.141 75.9668 366.146 76.818 366.149 77.6692C366.153 78.8626 366.164 80.0557 366.178 81.2491C366.177 81.6 366.177 81.9509 366.176 82.3125C366.211 84.4426 366.528 85.8925 367.628 87.7484C369.729 89.7472 371.858 89.6417 374.572 89.6195C378.112 89.3868 381.213 88.1632 384.519 86.8622C384.519 93.4424 384.519 100.023 384.519 106.802C375.259 111.66 365.688 113.625 355.52 110.467C350.797 108.576 347.002 105.206 344.74 100.412C342.666 95.2023 342.22 89.8647 342.242 84.2673C342.242 83.8561 342.242 83.4449 342.242 83.0212C342.242 81.6786 342.246 80.336 342.249 78.9935C342.25 78.056 342.25 77.1185 342.251 76.1811C342.252 73.7262 342.257 71.2713 342.261 68.8164C342.266 66.3063 342.268 63.7963 342.27 61.2862C342.274 56.3704 342.282 51.4547 342.29 46.5389C339.225 46.5389 336.159 46.5389 333 46.5389C333 39.52 333 32.501 333 25.2694C336.066 25.2694 339.132 25.2694 342.29 25.2694C342.29 18.2505 342.29 11.2316 342.29 4Z" fill="#FBF9F9"/>
<path d="M539 24C539 32.2957 539 40.5914 539 49.1385C536.383 49.5751 533.766 50.0117 531.07 50.4615C527.688 51.4392 525.05 52.5725 522.304 54.8718C522.053 55.0725 521.801 55.2732 521.541 55.4799C516.612 59.9732 514.99 67.7764 514.374 74.2769C514.313 75.5036 514.297 76.7285 514.288 77.9567C514.284 78.3057 514.28 78.6546 514.276 79.0141C514.263 80.1547 514.252 81.2953 514.242 82.4359C514.233 83.2318 514.224 84.0277 514.216 84.8235C514.193 86.9087 514.172 88.9939 514.152 91.079C514.127 93.5861 514.099 96.093 514.072 98.6C514.032 102.4 513.994 106.2 513.957 110C506.381 110 498.805 110 491 110C491 82.0566 491 54.1132 491 25.3231C498.576 25.3231 506.151 25.3231 513.957 25.3231C514.094 30.1258 514.232 34.9286 514.374 39.8769C515.82 37.2572 515.82 37.2572 517.296 34.5846C523.137 26.5089 529.37 24 539 24Z" fill="#FBF9F9"/>
<path d="M83 34C108.41 34 133.82 34 160 34C160 47.53 160 61.06 160 75C134.59 75 109.18 75 83 75C83 61.47 83 47.94 83 34Z" fill="#FBF8F8"/>
</svg>
