<svg width="213" height="123" viewBox="0 0 213 123" fill="none" xmlns="http://www.w3.org/2000/svg">
<mask id="path-1-outside-1_298_90" maskUnits="userSpaceOnUse" x="-1" y="1.10437" width="156" height="121" fill="black">
<rect fill="white" x="-1" y="1.10437" width="156" height="121"/>
<path fill-rule="evenodd" clip-rule="evenodd" d="M8.54461 114.689C2.66335 110.571 1.23403 102.464 5.35214 96.5832L65.5239 10.649C69.642 4.76773 77.7481 3.3384 83.6294 7.45651L84.8502 8.31133C86.4398 9.42437 87.7042 10.8287 88.6217 12.4018L149.238 97.5746C153.401 103.424 152.034 111.541 146.184 115.704L144.97 116.568C139.12 120.731 131.003 119.364 126.84 113.514L80.6497 48.6109C78.6468 45.7966 74.4615 45.8127 72.4803 48.6422L66.495 57.19C65.2894 58.9119 65.2894 61.204 66.495 62.9258L90.0622 96.5832C94.1803 102.464 92.6767 110.623 86.7955 114.741C80.9142 118.859 72.7338 117.481 68.6157 111.6L52.602 88.7301C50.6114 85.8873 46.401 85.8873 44.4104 88.7301L27.8709 112.351C23.7528 118.232 15.6467 119.662 9.76543 115.543L8.54461 114.689Z"/>
</mask>
<path fill-rule="evenodd" clip-rule="evenodd" d="M8.54461 114.689C2.66335 110.571 1.23403 102.464 5.35214 96.5832L65.5239 10.649C69.642 4.76773 77.7481 3.3384 83.6294 7.45651L84.8502 8.31133C86.4398 9.42437 87.7042 10.8287 88.6217 12.4018L149.238 97.5746C153.401 103.424 152.034 111.541 146.184 115.704L144.97 116.568C139.12 120.731 131.003 119.364 126.84 113.514L80.6497 48.6109C78.6468 45.7966 74.4615 45.8127 72.4803 48.6422L66.495 57.19C65.2894 58.9119 65.2894 61.204 66.495 62.9258L90.0622 96.5832C94.1803 102.464 92.6767 110.623 86.7955 114.741C80.9142 118.859 72.7338 117.481 68.6157 111.6L52.602 88.7301C50.6114 85.8873 46.401 85.8873 44.4104 88.7301L27.8709 112.351C23.7528 118.232 15.6467 119.662 9.76543 115.543L8.54461 114.689Z" fill="url(#paint0_linear_298_90)"/>
<path d="M5.35214 96.5832L2.89468 94.8625H2.89468L5.35214 96.5832ZM8.54461 114.689L6.82388 117.146H6.82389L8.54461 114.689ZM65.5239 10.649L63.0665 8.92826V8.92826L65.5239 10.649ZM83.6294 7.45651L85.3501 4.99905L85.3501 4.99905L83.6294 7.45651ZM84.8502 8.31133L83.1295 10.7688V10.7688L84.8502 8.31133ZM88.6217 12.4018L86.0303 13.9133C86.0759 13.9915 86.125 14.0675 86.1775 14.1413L88.6217 12.4018ZM149.238 97.5746L151.682 95.8351H151.682L149.238 97.5746ZM146.184 115.704L147.924 118.148L147.924 118.148L146.184 115.704ZM144.97 116.568L143.23 114.124L143.23 114.124L144.97 116.568ZM126.84 113.514L124.396 115.254L126.84 113.514ZM90.0622 96.5832L92.5196 94.8625L90.0622 96.5832ZM86.7955 114.741L85.0747 112.283H85.0747L86.7955 114.741ZM68.6157 111.6L71.0732 109.879L68.6157 111.6ZM27.8709 112.351L25.4134 110.63L27.8709 112.351ZM9.76543 115.543L11.4862 113.086H11.4862L9.76543 115.543ZM66.495 57.19L68.9525 58.9108L66.495 57.19ZM66.495 62.9258L68.9525 61.2051L66.495 62.9258ZM52.602 88.7301L50.1445 90.4508L52.602 88.7301ZM44.4104 88.7301L41.953 87.0094L44.4104 88.7301ZM80.6497 48.6109L78.2055 50.3504L80.6497 48.6109ZM72.4803 48.6422L70.0228 46.9215L72.4803 48.6422ZM2.89468 94.8625C-2.17375 102.101 -0.414599 112.078 6.82388 117.146L10.2653 112.231C5.7413 109.063 4.64182 102.828 7.8096 98.3039L2.89468 94.8625ZM63.0665 8.92826L2.89468 94.8625L7.8096 98.3039L67.9814 12.3697L63.0665 8.92826ZM85.3501 4.99905C78.1116 -0.0693907 68.1349 1.68978 63.0665 8.92826L67.9814 12.3697C71.1492 7.84567 77.3846 6.74619 81.9087 9.91396L85.3501 4.99905ZM86.5709 5.85388L85.3501 4.99905L81.9087 9.91396L83.1295 10.7688L86.5709 5.85388ZM91.2131 10.8902C90.0815 8.95031 88.5228 7.22061 86.5709 5.85387L83.1295 10.7688C84.3567 11.6281 85.3268 12.7072 86.0303 13.9133L91.2131 10.8902ZM151.682 95.8351L91.0659 10.6623L86.1775 14.1413L146.794 99.3141L151.682 95.8351ZM147.924 118.148C155.123 113.024 156.806 103.035 151.682 95.8351L146.794 99.3141C149.996 103.814 148.944 110.057 144.445 113.26L147.924 118.148ZM146.709 119.012L147.924 118.148L144.445 113.26L143.23 114.124L146.709 119.012ZM124.396 115.254C129.52 122.453 139.51 124.136 146.709 119.012L143.23 114.124C138.731 117.326 132.487 116.275 129.285 111.775L124.396 115.254ZM78.2055 50.3504L124.396 115.254L129.285 111.775L83.0939 46.8714L78.2055 50.3504ZM68.9525 58.9108L74.9377 50.363L70.0228 46.9215L64.0376 55.4693L68.9525 58.9108ZM92.5196 94.8625L68.9525 61.2051L64.0376 64.6465L87.6047 98.3039L92.5196 94.8625ZM88.5162 117.198C95.7324 112.145 97.6036 102.123 92.5196 94.8625L87.6047 98.3039C90.757 102.806 89.621 109.1 85.0747 112.283L88.5162 117.198ZM66.1583 113.321C71.2422 120.582 81.3 122.251 88.5162 117.198L85.0747 112.283C80.5284 115.467 74.2255 114.381 71.0732 109.879L66.1583 113.321ZM50.1445 90.4508L66.1583 113.321L71.0732 109.879L55.0594 87.0094L50.1445 90.4508ZM30.3284 114.072L46.8679 90.4508L41.953 87.0094L25.4134 110.63L30.3284 114.072ZM8.0447 118.001C15.2832 123.069 25.2599 121.31 30.3284 114.072L25.4134 110.63C22.2457 115.154 16.0102 116.254 11.4862 113.086L8.0447 118.001ZM6.82389 117.146L8.0447 118.001L11.4862 113.086L10.2653 112.231L6.82389 117.146ZM64.0376 55.4693C62.1085 58.2243 62.1085 61.8916 64.0376 64.6465L68.9525 61.2051C68.4702 60.5163 68.4702 59.5995 68.9525 58.9108L64.0376 55.4693ZM55.0594 87.0094C51.8745 82.4609 45.1379 82.4608 41.953 87.0094L46.8679 90.4508C47.6641 89.3137 49.3483 89.3137 50.1445 90.4508L55.0594 87.0094ZM83.0939 46.8714C79.8893 42.3686 73.1928 42.3942 70.0228 46.9215L74.9377 50.363C75.7302 49.2311 77.4044 49.2247 78.2055 50.3504L83.0939 46.8714Z" fill="white" mask="url(#path-1-outside-1_298_90)"/>
<rect x="2.08909" y="0.368363" width="133.906" height="30.4903" rx="14.5" transform="matrix(-0.573576 -0.819152 -0.819152 0.573576 216.029 109.101)" fill="#DE9797"/>
<rect x="2.08909" y="0.368363" width="133.906" height="30.4903" rx="14.5" transform="matrix(-0.573576 -0.819152 -0.819152 0.573576 216.029 109.101)" fill="url(#paint1_linear_298_90)"/>
<rect x="2.08909" y="0.368363" width="133.906" height="30.4903" rx="14.5" transform="matrix(-0.573576 -0.819152 -0.819152 0.573576 216.029 109.101)" stroke="white" stroke-width="3" stroke-linejoin="round"/>
<defs>
<linearGradient id="paint0_linear_298_90" x1="20.0706" y1="100.086" x2="116.927" y2="58.8323" gradientUnits="userSpaceOnUse">
<stop stop-color="#673AB7"/>
<stop offset="1" stop-color="#FF4081"/>
</linearGradient>
<linearGradient id="paint1_linear_298_90" x1="119.865" y1="25.7792" x2="116.572" y2="-9.01457" gradientUnits="userSpaceOnUse">
<stop stop-color="#673AB7"/>
<stop offset="1" stop-color="#FF4081"/>
</linearGradient>
</defs>
</svg>
