<svg width="140" height="156" viewBox="0 0 140 156" fill="none" xmlns="http://www.w3.org/2000/svg">
<path d="M75 1C78.9643 2.52045 82.3945 4.77623 86 7C88.2184 8.23505 90.4515 9.44105 92.6856 10.6475C102.625 16.0204 112.393 21.6743 122.13 27.4043C123.097 27.9734 124.065 28.5425 125.063 29.1289C125.92 29.6349 126.777 30.141 127.66 30.6624C129.743 31.8532 131.842 32.953 134 34C134 34.66 134 35.32 134 36C134.66 36 135.32 36 136 36C139.121 40.0021 139.383 43.1869 139.404 48.1736C139.411 48.8767 139.418 49.5798 139.425 50.3042C139.443 52.6184 139.439 54.9319 139.434 57.2461C139.438 58.8613 139.443 60.4764 139.449 62.0916C139.458 65.4733 139.456 68.8548 139.446 72.2366C139.435 76.5621 139.455 80.8868 139.484 85.2122C139.502 88.5469 139.502 91.8814 139.496 95.2161C139.496 96.8105 139.502 98.4048 139.515 99.9991C139.53 102.232 139.519 104.464 139.502 106.697C139.502 107.965 139.501 109.234 139.501 110.541C138.81 115.31 136.76 118.476 133.133 121.617C132.47 122.032 131.808 122.447 131.125 122.875C130.33 123.375 129.534 123.875 128.715 124.391C125.142 126.509 121.543 128.578 117.926 130.619C112.585 133.638 107.321 136.777 102.063 139.938C101.207 140.447 100.352 140.956 99.4712 141.48C95.5361 143.83 91.6451 146.208 87.8438 148.77C87.2004 149.19 86.5571 149.611 85.8943 150.045C84.1984 151.161 82.5221 152.306 80.8477 153.453C75.5409 156.114 69.7416 155.886 64 155C59.6188 153.351 55.7821 151.088 51.8125 148.625C49.6253 147.333 47.4378 146.041 45.25 144.75C43.6587 143.791 43.6587 143.791 42.0352 142.812C37.8496 140.313 33.5887 137.965 29.3125 135.625C27.8874 134.833 26.4629 134.04 25.0391 133.246C22.3518 131.749 19.6583 130.264 16.961 128.785C15.7029 128.086 14.4451 127.387 13.1875 126.688C12.1086 126.093 11.0296 125.499 9.91798 124.887C6.2683 122.527 2.97199 119.944 1.00002 116C0.887232 113.694 0.840605 111.384 0.823013 109.075C0.816442 108.363 0.809871 107.65 0.803101 106.916C0.783356 104.554 0.771701 102.191 0.761734 99.8281C0.757658 99.021 0.753581 98.214 0.749382 97.3824C0.728515 93.1091 0.714219 88.8358 0.704849 84.5625C0.693794 80.1529 0.659404 75.7438 0.619675 71.3344C0.593499 67.9405 0.585155 64.5468 0.581566 61.1529C0.576701 59.5278 0.565093 57.9027 0.546532 56.2778C0.522123 53.9989 0.523106 51.7213 0.530045 49.4424C0.524178 48.1471 0.518312 46.8519 0.512268 45.5174C1.20413 40.528 3.3717 37.4189 7.1321 34.1421C13.8189 29.6664 20.6867 25.5895 27.6875 21.625C29.9902 20.3096 32.2923 18.9932 34.5938 17.6758C35.6946 17.0462 36.7955 16.4167 37.9297 15.7681C42.9796 12.8601 47.9684 9.85631 52.9492 6.83203C53.956 6.22746 54.9627 5.62289 56 5C56.8622 4.45473 56.8622 4.45473 57.7417 3.89844C63.6148 0.303895 68.2843 -0.0823564 75 1Z" fill="#3BD680"/>
<path d="M138 39C139.468 41.9355 139.152 44.5554 139.177 47.833C139.184 48.5357 139.19 49.2383 139.197 49.9623C139.217 52.2926 139.228 54.6228 139.238 56.9531C139.242 57.7492 139.246 58.5452 139.251 59.3654C139.272 63.5804 139.286 67.7953 139.295 72.0103C139.306 76.3593 139.341 80.7079 139.38 85.0568C139.407 88.4043 139.415 91.7517 139.418 95.0993C139.423 96.7021 139.435 98.3048 139.453 99.9074C139.478 102.155 139.477 104.402 139.47 106.649C139.476 107.927 139.482 109.204 139.488 110.521C138.816 115.31 136.772 118.466 133.133 121.617C132.47 122.032 131.808 122.447 131.125 122.875C130.33 123.375 129.534 123.875 128.715 124.391C125.142 126.509 121.543 128.578 117.926 130.619C112.585 133.638 107.32 136.776 102.062 139.938C101.212 140.447 100.361 140.956 99.4844 141.48C95.5046 143.866 91.5456 146.275 87.6328 148.77C86.9624 149.19 86.292 149.611 85.6013 150.045C84.3699 150.82 83.146 151.608 81.9319 152.41C77.3606 155.265 75.9759 155 70 155C70 139.82 70 124.64 70 109C68.35 108.67 66.7 108.34 65 108C62.4287 106.709 62.4287 106.709 59.7344 105.094C58.7624 104.515 57.7905 103.936 56.7891 103.34C55.7862 102.733 54.7833 102.126 53.75 101.5C52.2225 100.589 52.2225 100.589 50.6641 99.6602C43.1792 95.1792 43.1792 95.1792 42 94C41.6852 89.6567 41.6432 85.3077 41.595 80.9546C41.5734 79.4918 41.5394 78.0291 41.4924 76.5669C41.4253 74.4555 41.3979 72.3467 41.3789 70.2344C41.3539 68.9682 41.3288 67.702 41.303 66.3975C42.2464 61.799 44.2006 60.6144 48 58C48.7637 57.4742 49.5274 56.9484 50.3142 56.4067C52.6772 54.9594 55.052 53.535 57.4375 52.125C58.258 51.6145 59.0785 51.1041 59.9238 50.5781C63.5996 48.4073 66.1511 47.0393 70.4609 46.8398C75.398 48.4583 79.7007 50.843 84.1875 53.4375C85.9516 54.4366 87.7159 55.4353 89.4805 56.4336C90.2529 56.8776 91.0252 57.3216 91.821 57.7791C92.8996 58.3834 92.8996 58.3834 94 59C94.9998 59.6387 94.9998 59.6387 96.0198 60.2903C98.0079 61.2376 98.0079 61.2376 100.036 60.2842C100.751 59.8346 101.466 59.3851 102.203 58.9219C103.011 58.4246 103.82 57.9274 104.652 57.415C105.51 56.8656 106.367 56.3161 107.25 55.75C108.575 54.9297 108.575 54.9297 109.926 54.0928C114.221 51.4246 118.477 48.6962 122.734 45.9688C123.819 45.2789 123.819 45.2789 124.925 44.5752C126.281 43.7093 127.631 42.834 128.974 41.9482C132.367 39.766 133.846 39 138 39Z" fill="#4083F0"/>
<path d="M2 40C14.017 45.6596 25.5078 52.3559 37 59C38.3994 59.6226 38.3994 59.6226 39.8272 60.2578C40.5442 60.8327 41.2612 61.4077 42 62C42.2786 65.0559 42.2786 65.0559 41.8633 68.8008C41.7591 70.1784 41.6636 71.5566 41.5757 72.9353C41.505 74.0102 41.505 74.0102 41.4328 75.1069C40.6802 86.6874 40.6802 86.6874 45.3325 96.8604C52.657 102.653 61.2082 106.069 70 109C70 124.18 70 139.36 70 155C64.3157 155 63.1117 154.919 58.5781 152.289C57.5615 151.709 56.5448 151.128 55.4973 150.53C54.4257 149.901 53.3541 149.273 52.25 148.625C49.9989 147.333 47.7476 146.041 45.4961 144.75C43.8388 143.791 43.8388 143.791 42.148 142.812C37.8974 140.365 33.6083 137.992 29.3125 135.625C27.8876 134.833 26.4631 134.04 25.0391 133.246C22.3518 131.749 19.6583 130.264 16.9609 128.785C15.7029 128.086 14.4451 127.387 13.1875 126.688C12.1086 126.093 11.0296 125.499 9.91797 124.887C6.26829 122.527 2.97198 119.944 1 116C0.902654 113.672 0.872031 111.342 0.87061 109.012C0.868857 108.293 0.867105 107.574 0.8653 106.833C0.860889 104.451 0.863816 102.069 0.867192 99.6875C0.866518 98.0361 0.865548 96.3846 0.864292 94.7332C0.862817 91.2697 0.864966 87.8062 0.869633 84.3428C0.87533 79.8971 0.872051 75.4515 0.866061 71.0058C0.862452 67.595 0.863595 64.1842 0.866188 60.7733C0.866857 59.1338 0.866032 57.4943 0.863709 55.8548C0.861177 53.5659 0.86503 51.2772 0.87061 48.9883C0.871405 47.6842 0.872201 46.38 0.873021 45.0364C1 42 1 42 2 40Z" fill="#072F40"/>
<path d="M74 48C77.504 49.5939 80.8415 51.4121 84.1875 53.3125C85.5207 54.0424 85.5207 54.0424 86.8809 54.7871C95.2305 59.4481 95.2305 59.4481 98 63C98.7491 67.2663 98.6589 71.5174 98.6313 75.8445C98.625 77.929 98.6719 80.0079 98.7227 82.0918C98.7324 92.078 98.7324 92.078 95.5547 96.0781C94.3948 96.7629 93.2059 97.3998 92 98C90.4878 98.962 88.9775 99.927 87.4688 100.895C85.8161 101.873 84.1597 102.846 82.5 103.812C81.6711 104.315 80.8423 104.817 79.9883 105.334C78.7721 106.045 78.7721 106.045 77.5312 106.77C76.8049 107.199 76.0785 107.628 75.3301 108.07C72.315 109.274 70.229 109.345 67 109C64.1316 107.731 64.1316 107.731 61.1992 105.973C60.1403 105.346 59.0813 104.718 57.9902 104.072C56.9003 103.409 55.8104 102.746 54.6875 102.062C53.5783 101.403 52.469 100.744 51.3262 100.064C43.2314 95.2313 43.2314 95.2313 42 94C41.6852 89.6567 41.6432 85.3077 41.595 80.9546C41.5734 79.4918 41.5394 78.0291 41.4924 76.5669C41.4253 74.4555 41.3979 72.3467 41.3789 70.2344C41.3539 68.9682 41.3288 67.702 41.303 66.3974C42.2464 61.799 44.2006 60.6144 48 58C48.7637 57.4742 49.5274 56.9484 50.3142 56.4067C52.6772 54.9594 55.052 53.535 57.4375 52.125C58.258 51.6145 59.0785 51.1041 59.9238 50.5781C65.0107 47.5739 68.1066 46.081 74 48Z" fill="#D4EEFD"/>
<path d="M109 54C112 56 112 56 112.381 57.8393C112.385 58.9559 112.385 58.9559 112.388 60.095C112.398 60.9396 112.407 61.7842 112.417 62.6544C112.411 63.5689 112.405 64.4835 112.398 65.4258C112.401 66.3655 112.404 67.3053 112.407 68.2735C112.409 70.2649 112.404 72.2564 112.391 74.2478C112.375 77.29 112.391 80.3309 112.41 83.373C112.408 85.3073 112.404 87.2415 112.398 89.1758C112.408 90.5385 112.408 90.5385 112.417 91.9288C112.364 96.7335 112.262 100.197 109 104C106.647 105.742 106.647 105.742 103.879 107.305C102.86 107.889 101.841 108.473 100.791 109.074C99.7256 109.668 98.6602 110.263 97.5625 110.875C96.0166 111.755 96.0166 111.755 94.4395 112.652C92.3575 113.837 90.2723 115.017 88.1841 116.19C83.8783 118.637 79.6271 121.174 75.3787 123.719C73 125 73 125 71 125C71 134.9 71 144.8 71 155C70.67 155 70.34 155 70 155C70 139.82 70 124.64 70 109C73.96 107.02 77.92 105.04 82 103C84.3981 101.623 86.779 100.214 89.125 98.75C90.2001 98.0848 91.2752 97.4197 92.3828 96.7344C95.0229 95.1096 95.0229 95.1096 97 93C97.0788 89.9176 97.0788 89.9176 96.7734 86.3047C96.7091 84.935 96.648 83.5652 96.5898 82.1953C96.4915 80.0387 96.3762 77.8904 96.2046 75.7383C95.8415 70.9911 95.7406 66.646 97 62C100.565 58.3555 104.385 56.1131 109 54Z" fill="#386FB1"/>
<path d="M77.1304 33.3953C78.1676 33.9803 79.2048 34.5653 80.2734 35.168C80.8415 35.4853 81.4095 35.8026 81.9948 36.1295C83.1892 36.7993 84.3807 37.4745 85.5693 38.1546C87.3577 39.1776 89.1543 40.1849 90.9531 41.1895C97.4878 44.8619 103.848 48.714 110 53C106.377 57.0756 102.527 60.9525 97 62C93.0055 60.7898 89.7304 58.6415 86.25 56.375C85.318 55.8014 84.386 55.2278 83.4258 54.6367C81.6929 53.5701 79.9682 52.49 78.2549 51.3921C74.303 48.9524 71.8336 47.4692 67.0605 48.3365C62.5874 49.777 58.7032 52.4494 54.75 54.9375C53.8528 55.4886 52.9556 56.0397 52.0312 56.6074C48.6516 58.6894 45.3029 60.7981 42 63C37.38 60.36 32.76 57.72 28 55C31.5709 52.1433 34.7658 49.818 38.6406 47.5039C39.7118 46.8626 40.783 46.2213 41.8867 45.5606C42.9966 44.9012 44.1065 44.2419 45.25 43.5625C46.3444 42.907 47.4388 42.2515 48.5664 41.5762C50.7129 40.2948 52.8644 39.0219 55.0215 37.7583C56.8831 36.6593 58.7311 35.5363 60.5566 34.3784C61.3165 33.912 62.0764 33.4455 62.8594 32.9649C63.4984 32.5574 64.1375 32.15 64.7959 31.7302C69.1775 30.2786 73.0424 31.5732 77.1304 33.3953Z" fill="#38BF6F"/>
<path d="M29 56C30.7639 56.3376 30.7639 56.3376 33 57C34.1755 57.3211 34.1755 57.3211 35.3747 57.6487C38.2314 58.777 39.9368 59.7 42 62C42.6088 66.4641 42.1352 70.7946 41.7345 75.2578C40.7809 86.7412 40.7809 86.7412 45.3149 96.8516C52.6449 102.647 61.2022 106.067 70 109C70 114.28 70 119.56 70 125C65.3849 123.462 61.9168 122.002 57.7539 119.664C56.8926 119.183 56.8926 119.183 56.0139 118.692C54.194 117.675 52.3782 116.65 50.5625 115.625C49.3486 114.945 48.1344 114.265 46.9199 113.586C44.6113 112.294 42.307 110.995 40.0044 109.692C38.2317 108.694 36.4535 107.705 34.6636 106.737C31.5361 105.036 30.0233 104.035 28 101C27.7527 98.9756 27.7527 98.9756 27.7571 96.6362C27.754 95.7588 27.7509 94.8813 27.7477 93.9773C27.7549 93.0334 27.7621 92.0896 27.7695 91.1172C27.77 90.1472 27.7704 89.1772 27.7709 88.1778C27.7739 86.1284 27.7818 84.0791 27.7942 82.0298C27.8125 78.8805 27.8147 75.7314 27.8144 72.582C27.8194 70.5937 27.8252 68.6055 27.832 66.6172C27.8331 65.6693 27.8342 64.7214 27.8354 63.7448C27.8418 62.8737 27.8481 62.0025 27.8547 61.105C27.8585 60.3346 27.8623 59.5642 27.8663 58.7705C28 57 28 57 29 56Z" fill="#04171A"/>
</svg>
