<svg width="296" height="303" viewBox="0 0 296 303" fill="none" xmlns="http://www.w3.org/2000/svg">
<path d="M232.38 0.397949C233.577 0.429416 233.577 0.429416 234.798 0.461518C235.812 3.67098 235.745 5.60925 234.802 8.82473C234.575 9.62385 234.348 10.423 234.114 11.2463C233.869 12.0716 233.624 12.897 233.372 13.7473C232.894 15.3898 232.42 17.0333 231.95 18.6778C231.736 19.403 231.521 20.1281 231.301 20.8752C230.711 22.9946 230.711 22.9946 230.83 25.8889C231.563 26.2232 232.295 26.5575 233.05 26.902C249.813 34.9606 263.846 48.6191 270.509 66.5726C271.562 66.2908 272.616 66.0089 273.702 65.7184C275.117 65.346 276.533 64.9739 277.949 64.602C278.639 64.4165 279.33 64.231 280.041 64.0398C284.791 62.7998 289.429 61.9251 294.316 61.4872C295.308 62.5043 295.308 62.5043 295.37 65.1106C295.35 65.9287 295.329 66.7468 295.308 67.5897C290.984 69.3138 286.652 70.9287 282.227 72.3574C281.435 72.613 280.643 72.8687 279.828 73.1321C277.308 73.7263 275.069 73.7908 272.493 73.6923C272.974 75.3698 272.974 75.3698 273.465 77.0813C274.729 82.2935 274.818 87.3495 274.787 92.6992C274.781 93.6883 274.776 94.6774 274.77 95.6964C274.503 111.951 269.174 124.308 260.589 137.769C260.936 138.309 261.282 138.85 261.639 139.406C262.316 140.484 262.316 140.484 263.007 141.583C263.456 142.291 263.905 142.999 264.367 143.729C267.627 149.734 267.453 157.327 265.898 163.868C263.661 170.209 260.228 174.723 255.629 179.47C254.77 180.372 253.911 181.274 253.025 182.204C252.248 182.98 251.47 183.756 250.669 184.556C249.831 185.458 248.992 186.36 248.127 187.289C245.709 189.641 245.709 189.641 243.54 190.722C241.171 191.978 240.912 193.306 239.758 195.744C238.148 197.483 236.49 199.175 234.798 200.829C233.938 201.71 233.079 202.591 232.194 203.499C231.416 204.296 230.639 205.093 229.838 205.915C229.285 206.523 228.733 207.131 228.164 207.758C226.862 208.966 226.862 208.966 224.878 208.966C224.653 209.532 224.428 210.099 224.196 210.682C222.523 213.704 220.384 215.725 217.934 218.12C217.075 219.001 216.216 219.882 215.33 220.79C214.553 221.587 213.775 222.384 212.974 223.205C212.422 223.813 211.87 224.422 211.3 225.049C209.998 226.256 209.998 226.256 208.014 226.256C207.789 226.823 207.564 227.389 207.332 227.973C205.666 230.983 203.51 233.032 201.071 235.41C200.518 236.019 199.966 236.627 199.397 237.254C198.095 238.462 198.095 238.462 196.111 238.462C195.783 239.468 195.456 240.475 195.119 241.513C192.37 242.922 190.225 242.721 187.183 242.53C186.201 241.859 185.219 241.187 184.207 240.496C184.207 239.824 184.207 239.153 184.207 238.462C183.593 238.21 182.979 237.958 182.347 237.699C179.839 236.186 179.527 234.966 178.255 232.359C177.657 232.055 177.058 231.751 176.442 231.437C174.019 230.186 172.473 228.735 170.567 226.765C169.959 226.146 169.35 225.527 168.723 224.89C167.344 223.205 167.343 223.205 167.343 221.171C166.786 220.923 166.228 220.675 165.654 220.42C160.171 217.332 155.191 212.539 153.394 206.36C154.769 201.798 157.179 199.641 160.648 196.554C162.73 194.787 162.73 194.787 162.384 191.675C160.173 189.153 160.173 189.153 157.424 186.59C156.585 185.709 155.746 184.828 154.882 183.92C152.579 181.506 152.579 181.506 150.17 179.788C149.618 179.347 149.065 178.907 148.496 178.453C148.496 177.782 148.496 177.11 148.496 176.419C147.841 176.419 147.187 176.419 146.512 176.419C144.974 174.818 144.974 174.818 143.226 172.668C139.659 168.372 136.238 164.31 131.632 161.162C131.632 160.491 131.632 159.82 131.632 159.128C130.978 159.128 130.323 159.128 129.648 159.128C128.11 157.527 128.11 157.527 126.363 155.378C122.796 151.082 119.374 147.02 114.769 143.872C114.769 143.201 114.769 142.529 114.769 141.838C114.114 141.838 113.459 141.838 112.785 141.838C111.084 139.845 109.428 137.811 107.825 135.735C107.232 136.05 106.638 136.364 106.027 136.689C103.857 137.769 103.857 137.769 100.881 138.786C99.7404 140.787 99.7404 140.787 98.8973 142.855C97.9053 143.872 97.9053 143.872 94.3094 144.38C90.4265 144.366 88.7451 143.206 86.0016 140.439C83.0257 137.129 83.0257 137.129 83.0257 134.718C82.4372 134.445 81.8486 134.171 81.2423 133.89C79.0524 132.681 77.6041 131.456 75.8494 129.664C75.2803 129.083 74.7113 128.503 74.125 127.904C73.5432 127.3 72.9614 126.695 72.362 126.073C71.7648 125.468 71.1676 124.864 70.5524 124.241C69.9885 123.66 69.4246 123.079 68.8435 122.481C68.3285 121.951 67.8135 121.42 67.2829 120.874C66.1621 119.462 66.1621 119.462 66.1621 117.427C65.5893 117.197 65.0164 116.966 64.4262 116.728C61.536 114.999 60.0485 113.177 58.2263 110.308C57.7253 108.036 57.7253 108.036 58.2263 105.222C60.0471 102.593 62.264 100.409 64.5061 98.1577C65.1738 97.4674 65.8415 96.7772 66.5294 96.066C68.7432 93.7842 70.9743 91.5213 73.2067 89.2586C74.7501 87.6778 76.2927 86.0962 77.8344 84.5136C81.0708 81.197 84.3154 77.8892 87.5666 74.5877C91.7297 70.3595 95.8751 66.1136 100.015 61.8614C103.2 58.5921 106.393 55.3306 109.589 52.0716C111.12 50.5091 112.649 48.9446 114.176 47.3781C116.315 45.1867 118.463 43.0056 120.615 40.8269C121.243 40.1802 121.87 39.5334 122.517 38.867C129.748 31.5944 136.377 29.5968 146.33 29.6593C152.347 30.227 157.403 32.6556 162.384 36.0598C162.936 35.6665 163.488 35.2732 164.058 34.8679C168.963 31.4358 173.83 28.3862 179.247 25.8889C180.996 25.0707 180.996 25.0707 182.781 24.2361C196.14 19.3671 210.171 20.739 223.886 22.8376C223.968 21.7677 224.05 20.6979 224.134 19.5956C226.406 0.547339 226.406 0.547338 232.38 0.397949ZM201.071 44.1966C200.822 47.3329 200.822 47.3329 201.071 50.2991C203.526 51.3061 203.526 51.3061 206.031 52.3333C207.34 50.9908 208.649 49.6482 209.998 48.2649C209.301 45.7124 209.301 45.7124 208.014 43.1795C204.715 41.5423 204.243 42.0282 201.071 44.1966ZM245.833 89.648C244.39 92.019 244.39 92.019 245.523 94.797C245.912 95.5522 246.301 96.3074 246.701 97.0855C249.099 97.2552 249.099 97.2552 251.661 97.0855C253.892 95.2272 253.892 95.2272 253.893 92.5085C253.892 89.7899 253.892 89.7899 251.661 87.9316C247.768 87.478 247.768 87.478 245.833 89.648Z" fill="#3CDC84"/>
<path d="M256.621 134.718C257.562 135.347 258.503 135.977 259.473 136.625C264.601 141.883 266.653 147.858 266.851 155.187C266.718 165.455 262.528 172.349 255.629 179.47C254.77 180.372 253.911 181.274 253.025 182.204C252.248 182.98 251.47 183.756 250.669 184.556C249.831 185.458 248.992 186.36 248.127 187.289C245.709 189.641 245.709 189.641 243.54 190.722C241.171 191.978 240.912 193.306 239.758 195.744C238.148 197.483 236.49 199.175 234.798 200.829C233.938 201.71 233.079 202.591 232.194 203.499C231.416 204.296 230.639 205.093 229.838 205.915C229.285 206.523 228.733 207.131 228.164 207.758C226.862 208.966 226.862 208.966 224.878 208.966C224.653 209.532 224.428 210.099 224.196 210.682C222.523 213.704 220.384 215.725 217.934 218.12C217.075 219.001 216.216 219.882 215.33 220.79C214.553 221.587 213.775 222.384 212.974 223.205C212.422 223.814 211.87 224.422 211.3 225.049C209.998 226.256 209.998 226.256 208.014 226.256C207.789 226.823 207.564 227.389 207.332 227.973C205.666 230.983 203.51 233.032 201.071 235.41C200.518 236.019 199.966 236.627 199.397 237.254C198.095 238.462 198.095 238.462 196.111 238.462C195.62 239.972 195.62 239.972 195.119 241.513C192.37 242.922 190.225 242.721 187.183 242.53C186.201 241.859 185.219 241.187 184.207 240.496C184.207 239.824 184.207 239.153 184.207 238.462C183.593 238.21 182.979 237.958 182.347 237.699C179.839 236.186 179.527 234.966 178.255 232.359C177.657 232.055 177.058 231.751 176.442 231.437C174.019 230.186 172.473 228.735 170.567 226.765C169.959 226.146 169.35 225.527 168.723 224.89C167.343 223.205 167.343 223.205 167.343 221.171C166.786 220.923 166.228 220.675 165.654 220.42C160.171 217.332 155.191 212.539 153.394 206.36C154.977 201.108 158.424 198.273 162.384 194.727C163.038 194.055 163.693 193.384 164.368 192.692C165.242 192.293 165.242 192.293 166.134 191.886C169.183 190.185 171.4 187.766 173.807 185.247C174.341 184.696 174.875 184.145 175.426 183.578C176.583 182.383 177.738 181.187 178.891 179.988C180.717 178.09 182.55 176.198 184.384 174.307C188.938 169.61 193.482 164.902 198.026 160.195C201.866 156.217 205.711 152.243 209.561 148.275C211.364 146.413 213.16 144.546 214.956 142.678C216.066 141.533 217.176 140.388 218.287 139.243C219.03 138.466 219.03 138.466 219.788 137.673C230.115 127.081 244.515 126.537 256.621 134.718Z" fill="#4184F3"/>
<path d="M159.408 34.0256C165.908 40.4265 169.363 47.6647 169.761 56.8466C169.289 71.45 157.851 80.5248 148.403 90.1061C146.741 91.7929 145.082 93.4835 143.424 95.1751C138.715 99.9781 134.001 104.775 129.283 109.568C126.383 112.514 123.487 115.465 120.595 118.42C119.497 119.539 118.398 120.656 117.297 121.771C115.759 123.328 114.227 124.892 112.697 126.457C111.826 127.342 110.954 128.228 110.057 129.141C107.924 131.554 106.453 133.958 104.849 136.752C103.535 137.446 102.212 138.126 100.881 138.786C99.6821 140.821 99.6821 140.821 98.8973 142.855C97.9053 143.872 97.9053 143.872 94.3094 144.38C90.4265 144.366 88.7451 143.206 86.0016 140.439C83.0257 137.129 83.0257 137.129 83.0257 134.718C82.4372 134.445 81.8486 134.171 81.2423 133.89C79.0524 132.681 77.6041 131.456 75.8494 129.664C75.2803 129.083 74.7113 128.503 74.125 127.904C73.5432 127.3 72.9614 126.695 72.362 126.073C71.7648 125.468 71.1676 124.864 70.5524 124.241C69.9885 123.66 69.4246 123.079 68.8435 122.481C68.3285 121.951 67.8135 121.42 67.2829 120.874C66.1621 119.461 66.1621 119.461 66.1621 117.427C65.5893 117.197 65.0164 116.966 64.4262 116.728C61.536 114.999 60.0485 113.177 58.2263 110.308C57.7253 108.036 57.7253 108.036 58.2263 105.222C60.0471 102.593 62.264 100.409 64.5061 98.1576C65.1738 97.4674 65.8415 96.7771 66.5294 96.0659C68.7432 93.7841 70.9743 91.5212 73.2067 89.2586C74.7501 87.6778 76.2927 86.0961 77.8344 84.5136C81.0708 81.1969 84.3154 77.8891 87.5666 74.5877C91.7297 70.3595 95.8751 66.1136 100.015 61.8613C103.2 58.5921 106.393 55.3306 109.589 52.0716C111.12 50.5091 112.649 48.9446 114.176 47.3781C116.315 45.1867 118.463 43.0055 120.615 40.8269C121.243 40.1801 121.87 39.5333 122.517 38.867C132.388 28.9384 147.271 25.9953 159.408 34.0256Z" fill="#4285F3"/>
<path d="M158.168 233.63C164.649 238.814 167.927 245.46 169.327 253.718C169.643 261.306 167.227 269.084 162.829 275.172C151.115 288.135 129.273 301.145 112 301.966C103.702 302.229 103.702 302.229 100.025 299.118C96.6628 294.864 95.6917 291.292 95.9214 285.883C97.0545 276.575 100.934 266.652 105.841 258.803C106.478 257.73 107.115 256.656 107.771 255.549C114.52 244.384 121.676 232.706 134.608 228.692C143.044 226.986 151.013 228.819 158.168 233.63ZM125.343 256.737C124.071 258.824 122.85 260.931 121.651 263.062C121.224 263.812 120.798 264.563 120.359 265.335C114.401 275.277 114.401 275.277 111.793 286.265C123.573 284.57 133.731 277.68 143.288 270.754C143.868 270.335 144.447 269.916 145.044 269.485C149.347 266.266 151.962 263.803 153.332 258.486C153.484 253.898 152.794 251.544 150.48 247.615C147.629 245.167 144.669 243.774 140.994 243.038C133.925 244.525 129.215 250.906 125.343 256.737Z" fill="#063042"/>
<path d="M62.4422 135.417C67.31 139.412 71.0107 144.615 72.114 150.991C72.6198 159.091 72.592 165.99 69.138 173.368C68.4833 173.368 67.8286 173.368 67.1541 173.368C66.9904 174.081 66.8267 174.794 66.6581 175.529C60.5794 187.475 38.3521 197.274 26.4831 201.846C20.2066 203.836 14.0586 204.623 7.63563 202.863C2.00006 199.768 2.00006 199.768 0.691807 195.744C-0.901398 179.945 5.58641 167.021 13.5875 154.043C13.9513 153.45 14.3151 152.858 14.6899 152.248C20.8083 142.423 27.3706 133.33 38.7588 129.95C47.7202 128.856 54.9299 130.104 62.4422 135.417ZM35.7713 149.517C32.6503 153.153 29.9709 157.052 27.4751 161.162C26.9432 162.03 26.4112 162.898 25.8632 163.793C21.5169 171.111 18.3298 178.509 15.5714 186.59C20.3756 188.469 23.8716 186.073 28.316 184.063C38.1017 179.239 49.1393 172.76 56.2424 164.214C57.4578 160.21 57.4974 156.274 56.6144 152.199C54.2476 148.339 51.656 146.363 47.4386 144.952C42.6464 144.854 39.2073 146.179 35.7713 149.517Z" fill="#063042"/>
<path d="M243.745 124.535C248.113 126.653 250.92 128.532 253.645 132.684C252.786 132.348 251.927 132.013 251.041 131.667C244.352 129.721 235.562 129.207 228.97 131.73C220.183 137.316 213.131 145.61 205.875 153.085C204.731 154.261 203.585 155.437 202.44 156.612C199.45 159.681 196.464 162.754 193.477 165.827C190.42 168.972 187.36 172.114 184.3 175.257C178.314 181.405 172.332 187.556 166.352 193.709C163.751 192.643 162.588 192.032 161.144 189.514C160.898 188.885 160.653 188.255 160.4 187.607C167.882 179.841 175.375 172.086 182.881 164.345C186.367 160.75 189.849 157.151 193.322 153.544C196.677 150.059 200.042 146.585 203.414 143.117C204.696 141.796 205.974 140.471 207.248 139.142C209.04 137.274 210.845 135.42 212.653 133.569C213.171 133.022 213.69 132.476 214.225 131.913C222.429 123.592 232.512 120.766 243.745 124.535Z" fill="#37BE71"/>
<path d="M166.352 44.1965C170.421 45.5873 171.315 47.5162 173.268 51.3202C175.435 57.8002 175.938 66.044 173.598 72.5618C169.446 80.9595 162.725 87.0739 156.257 93.5931C154.974 94.9018 153.691 96.2113 152.409 97.5217C149.053 100.947 145.686 104.359 142.316 107.77C138.871 111.26 135.437 114.762 132.002 118.264C125.277 125.116 118.539 131.955 111.793 138.786C108.817 137.769 108.817 137.769 106.833 134.718C106.949 130.383 110.123 127.914 112.974 125.088C113.777 124.274 113.777 124.274 114.597 123.443C115.76 122.265 116.927 121.091 118.096 119.92C119.951 118.062 121.796 116.194 123.638 114.324C128.877 109.008 134.136 103.711 139.397 98.4174C142.616 95.1767 145.825 91.926 149.029 88.6694C150.839 86.836 152.66 85.0149 154.482 83.1938C155.602 82.0565 156.722 80.9186 157.842 79.7799C158.345 79.283 158.849 78.786 159.368 78.274C165.007 72.4772 168.465 65.4129 168.521 57.1645C168.491 52.4375 167.891 48.6359 166.352 44.1965Z" fill="#37BD73"/>
</svg>
