<svg width="538" height="111" viewBox="0 0 538 111" fill="none" xmlns="http://www.w3.org/2000/svg">
<path d="M165.464 1.02854C165.464 1.36483 165.464 1.70111 165.464 2.04759C166.182 2.04759 166.9 2.04759 167.64 2.04759C167.64 2.38388 167.64 2.72016 167.64 3.06664C167.977 3.1402 168.313 3.21376 168.66 3.28955C169.816 3.57616 169.816 3.57616 170.904 4.08569C170.904 4.42197 170.904 4.75826 170.904 5.10473C171.51 5.29389 171.51 5.29389 172.128 5.48688C173.624 6.12378 173.624 6.12378 174.576 7.17467C176.408 8.65207 178.345 8.5773 180.696 8.6714C180.696 8.33511 180.696 7.99883 180.696 7.65235C185.902 7.65235 191.108 7.65235 196.472 7.65235C196.472 7.98864 196.472 8.32492 196.472 8.6714C198.088 8.6714 199.703 8.6714 201.368 8.6714C201.368 9.00769 201.368 9.34397 201.368 9.69045C202.445 9.69045 203.522 9.69045 204.632 9.69045C204.632 10.0267 204.632 10.363 204.632 10.7095C205.53 10.7095 206.427 10.7095 207.352 10.7095C207.352 11.0458 207.352 11.3821 207.352 11.7285C208.07 11.7285 208.788 11.7285 209.528 11.7285C209.528 12.0648 209.528 12.4011 209.528 12.7476C209.853 12.8212 210.179 12.8947 210.514 12.9705C211.465 13.1997 212.404 13.4757 213.336 13.7666C213.336 14.1029 213.336 14.4392 213.336 14.7857C213.717 14.9013 214.099 15.0169 214.492 15.136C216.459 15.9772 217.736 16.972 219.32 18.3524C219.32 18.6886 219.32 19.0249 219.32 19.3714C219.679 19.3714 220.038 19.3714 220.408 19.3714C220.408 19.7077 220.408 20.044 220.408 20.3904C220.767 20.3904 221.126 20.3904 221.496 20.3904C221.496 20.7267 221.496 21.063 221.496 21.4095C221.855 21.4095 222.214 21.4095 222.584 21.4095C224.76 23.6274 224.76 23.6274 224.76 25.4857C225.119 25.4857 225.478 25.4857 225.848 25.4857C226.936 27.0143 226.936 27.0143 226.936 28.5428C227.295 28.5428 227.654 28.5428 228.024 28.5428C228.024 29.2154 228.024 29.888 228.024 30.5809C228.383 30.5809 228.742 30.5809 229.112 30.5809C229.112 31.2535 229.112 31.9261 229.112 32.619C229.471 32.619 229.83 32.619 230.2 32.619C230.379 33.4597 230.559 34.3004 230.744 35.1666C230.923 35.1666 231.103 35.1666 231.288 35.1666C231.288 36.8481 231.288 38.5295 231.288 40.2619C231.647 40.2619 232.006 40.2619 232.376 40.2619C232.017 41.1026 231.658 41.9433 231.288 42.8095C228.664 42.8221 226.04 42.8313 223.415 42.8375C222.522 42.8401 221.629 42.8435 220.735 42.8479C219.454 42.8541 218.173 42.857 216.891 42.8593C216.489 42.8619 216.088 42.8645 215.674 42.8672C214.713 42.8673 213.752 42.8411 212.792 42.8095C212.248 42.3 212.248 42.3 212.214 40.9943C212.231 40.3795 212.231 40.3795 212.248 39.7524C211.889 39.7524 211.53 39.7524 211.16 39.7524C211.093 39.3635 211.025 38.9747 210.956 38.5741C210.681 37.1015 210.681 37.1015 209.528 35.6762C209.528 35.1717 209.528 34.6673 209.528 34.1476C209.169 34.1476 208.81 34.1476 208.44 34.1476C207.635 33.3455 207.635 33.3455 206.706 32.2687C203.411 28.6432 199.908 26.6388 194.84 25.9952C193.32 25.9382 191.805 25.9468 190.284 25.9634C188.231 25.9791 188.231 25.9791 186.136 25.9952C185.956 30.1988 185.777 34.4024 185.592 38.7333C185.233 38.7333 184.874 38.7333 184.504 38.7333C184.504 39.9103 184.504 41.0873 184.504 42.3C184.145 42.3 183.786 42.3 183.416 42.3C183.416 43.1407 183.416 43.9814 183.416 44.8476C183.057 44.8476 182.698 44.8476 182.328 44.8476C182.328 45.5202 182.328 46.1927 182.328 46.8857C181.969 46.8857 181.61 46.8857 181.24 46.8857C181.142 47.4482 181.142 47.4482 181.042 48.0222C180.103 51.8481 177.251 55.0605 174.712 58.0952C174.433 58.4702 174.154 58.8453 173.866 59.2317C173.607 59.5292 173.347 59.8268 173.08 60.1333C172.721 60.1333 172.362 60.1333 171.992 60.1333C171.992 60.4696 171.992 60.8059 171.992 61.1524C171.633 61.1524 171.274 61.1524 170.904 61.1524C170.904 61.4886 170.904 61.8249 170.904 62.1714C170.545 62.1714 170.186 62.1714 169.816 62.1714C169.816 62.5077 169.816 62.844 169.816 63.1904C169.457 63.1904 169.098 63.1904 168.728 63.1904C168.728 63.5267 168.728 63.863 168.728 64.2095C168.369 64.2095 168.01 64.2095 167.64 64.2095C167.64 64.5458 167.64 64.8821 167.64 65.2285C167.101 65.2285 166.563 65.2285 166.008 65.2285C166.008 65.5648 166.008 65.9011 166.008 66.2476C165.469 66.2476 164.931 66.2476 164.376 66.2476C164.376 66.5839 164.376 66.9202 164.376 67.2666C163.837 67.2666 163.299 67.2666 162.744 67.2666C162.744 67.6029 162.744 67.9392 162.744 68.2857C161.667 68.4538 160.59 68.622 159.48 68.7952C159.48 69.4678 159.48 70.1403 159.48 70.8333C159.839 70.8333 160.198 70.8333 160.568 70.8333C160.568 71.8422 160.568 72.851 160.568 73.8904C160.927 73.8904 161.286 73.8904 161.656 73.8904C161.656 74.563 161.656 75.2356 161.656 75.9285C162.015 75.9285 162.374 75.9285 162.744 75.9285C162.968 76.5486 163.193 77.1686 163.424 77.8074C164.168 79.6905 165.156 81.0189 166.552 82.5523C166.552 82.8886 166.552 83.2249 166.552 83.5714C166.911 83.5714 167.27 83.5714 167.64 83.5714C167.64 83.9077 167.64 84.244 167.64 84.5904C167.999 84.5904 168.358 84.5904 168.728 84.5904C168.728 84.9267 168.728 85.263 168.728 85.6095C169.087 85.6095 169.446 85.6095 169.816 85.6095C169.816 85.9458 169.816 86.2821 169.816 86.6285C170.175 86.7441 170.534 86.8597 170.904 86.9788C172.287 87.5457 173.338 88.1354 174.576 88.9214C176.869 90.3109 179.107 90.8254 181.784 91.2143C181.784 91.5505 181.784 91.8868 181.784 92.2333C187.529 92.2333 193.273 92.2333 199.192 92.2333C199.192 91.897 199.192 91.5607 199.192 91.2143C199.785 91.1571 199.785 91.1571 200.39 91.0988C200.937 91.0318 201.484 90.9648 202.048 90.8958C202.578 90.8367 203.108 90.7776 203.654 90.7167C206.732 89.9396 209.44 88.5306 212.248 87.1381C212.244 86.4978 212.244 86.4978 212.239 85.8446C212.23 84.2626 212.223 82.6807 212.218 81.0987C212.214 80.0765 212.207 79.0544 212.2 78.0323C212.198 77.0717 212.198 77.0717 212.195 76.0917C212.191 75.2032 212.191 75.2032 212.186 74.2967C212.248 72.8714 212.248 72.8714 212.792 71.8523C204.534 71.8523 196.276 71.8523 187.768 71.8523C187.768 66.8081 187.768 61.7638 187.768 56.5666C193.504 56.5551 199.24 56.5458 204.975 56.5402C207.639 56.5376 210.302 56.534 212.965 56.5282C215.533 56.5227 218.1 56.5196 220.668 56.5183C221.65 56.5174 222.632 56.5155 223.614 56.5128C224.984 56.5091 226.355 56.5086 227.725 56.5088C228.135 56.507 228.545 56.5051 228.968 56.5032C231.77 56.5085 231.77 56.5085 232.376 57.0762C232.427 58.1235 232.44 59.1725 232.438 60.221C232.438 60.5491 232.438 60.8772 232.438 61.2152C232.438 62.3042 232.433 63.3932 232.429 64.4822C232.428 65.2354 232.427 65.9886 232.427 66.7419C232.425 68.7279 232.419 70.714 232.413 72.7001C232.408 74.7253 232.405 76.7505 232.403 78.7757C232.397 82.7521 232.387 86.7284 232.376 90.7047C232.017 90.7047 231.658 90.7047 231.288 90.7047C231.322 91.4141 231.322 91.4141 231.356 92.1378C231.288 93.7619 231.288 93.7619 230.2 95.2904C229.841 95.2904 229.482 95.2904 229.112 95.2904C229.112 95.7949 229.112 96.2993 229.112 96.819C228.753 96.819 228.394 96.819 228.024 96.819C228.024 97.1553 228.024 97.4916 228.024 97.8381C227.665 97.8381 227.306 97.8381 226.936 97.8381C226.936 98.1743 226.936 98.5106 226.936 98.8571C226.577 98.8571 226.218 98.8571 225.848 98.8571C225.848 99.1934 225.848 99.5297 225.848 99.8762C225.489 99.8762 225.13 99.8762 224.76 99.8762C224.76 100.212 224.76 100.549 224.76 100.895C221.974 103.01 218.761 104.596 215.512 105.99C215.041 106.201 214.569 106.411 214.084 106.627C212.519 107.09 211.159 107.081 209.528 107.009C209.528 107.346 209.528 107.682 209.528 108.029C208.271 108.029 207.015 108.029 205.72 108.029C205.72 108.365 205.72 108.701 205.72 109.048C203.386 109.048 201.052 109.048 198.648 109.048C198.648 109.384 198.648 109.72 198.648 110.067C192.544 110.067 186.441 110.067 180.152 110.067C180.152 109.73 180.152 109.394 180.152 109.048C178.536 109.048 176.921 109.048 175.256 109.048C175.256 108.711 175.256 108.375 175.256 108.029C173.999 108.029 172.743 108.029 171.448 108.029C171.448 107.692 171.448 107.356 171.448 107.009C170.55 107.009 169.653 107.009 168.728 107.009C168.728 106.673 168.728 106.337 168.728 105.99C168.328 105.929 167.927 105.868 167.515 105.805C163.793 105.004 160.639 102.703 157.699 100.505C156.709 99.777 156.709 99.777 155.128 99.3666C155.128 99.0303 155.128 98.6941 155.128 98.3476C154.769 98.3476 154.41 98.3476 154.04 98.3476C154.04 98.0113 154.04 97.675 154.04 97.3285C153.681 97.3285 153.322 97.3285 152.952 97.3285C151.32 95.5648 151.32 95.5648 151.32 94.2714C150.961 94.2714 150.602 94.2714 150.232 94.2714C150.232 93.9351 150.232 93.5988 150.232 93.2523C149.873 93.2523 149.514 93.2523 149.144 93.2523C148.785 92.4116 148.426 91.5709 148.056 90.7047C147.697 90.7047 147.338 90.7047 146.968 90.7047C146.968 90.2003 146.968 89.6959 146.968 89.1762C146.609 89.1762 146.25 89.1762 145.88 89.1762C145.88 88.6717 145.88 88.1673 145.88 87.6476C145.521 87.6476 145.162 87.6476 144.792 87.6476C144.792 87.1432 144.792 86.6387 144.792 86.119C144.433 86.119 144.074 86.119 143.704 86.119C143.572 85.7368 143.44 85.3545 143.304 84.9606C142.228 81.8828 141.079 78.8789 139.698 75.9086C139.352 74.9095 139.352 74.9095 139.896 73.8904C139.089 74.2903 138.285 74.6945 137.482 75.1006C137.034 75.3252 136.586 75.5498 136.124 75.7813C134.927 76.3536 134.927 76.3536 134.456 77.4571C134.097 77.4571 133.738 77.4571 133.368 77.4571C132.184 85.5524 131.62 93.2255 132.28 101.405C132.28 103.927 132.28 106.449 132.28 109.048C125.458 109.048 118.636 109.048 111.608 109.048C111.069 107.787 111.069 107.787 110.52 106.5C110.067 105.859 109.592 105.231 109.092 104.621C107.8 103.044 107.8 103.044 107.8 101.914C107.441 101.914 107.082 101.914 106.712 101.914C106.712 101.578 106.712 101.242 106.712 100.895C106.353 100.895 105.994 100.895 105.624 100.895C104.804 100.151 104.804 100.151 103.924 99.1756C103.631 98.8564 103.338 98.5371 103.036 98.2083C102.36 97.3285 102.36 97.3285 102.36 96.3095C101.462 95.9732 100.565 95.6369 99.64 95.2904C99.64 94.9542 99.64 94.6179 99.64 94.2714C99.2809 94.2714 98.9219 94.2714 98.552 94.2714C98.552 93.9351 98.552 93.5988 98.552 93.2523C98.1929 93.2523 97.8339 93.2523 97.464 93.2523C97.464 92.9161 97.464 92.5798 97.464 92.2333C97.1274 92.1597 96.7908 92.0862 96.444 92.0104C95.288 91.7238 95.288 91.7238 94.2 91.2143C94.2 90.878 94.2 90.5417 94.2 90.1952C92.5843 90.0271 90.9686 89.8589 89.304 89.6857C89.304 89.3494 89.304 89.0131 89.304 88.6666C87.3292 88.6666 85.3545 88.6666 83.32 88.6666C83.32 89.0029 83.32 89.3392 83.32 89.6857C82.0633 89.8538 80.8067 90.022 79.512 90.1952C79.512 90.5315 79.512 90.8678 79.512 91.2143C79.1529 91.2143 78.7939 91.2143 78.424 91.2143C78.424 91.5505 78.424 91.8868 78.424 92.2333C78.0649 92.2333 77.7059 92.2333 77.336 92.2333C77.336 92.5696 77.336 92.9059 77.336 93.2523C76.9769 93.2523 76.6179 93.2523 76.248 93.2523C76.248 93.5886 76.248 93.9249 76.248 94.2714C75.8889 94.2714 75.5299 94.2714 75.16 94.2714C75.059 94.6812 75.059 94.6812 74.956 95.0994C74.5496 96.5458 74.0431 97.9513 73.528 99.3666C73.1689 99.3666 72.8099 99.3666 72.44 99.3666C72.44 100.039 72.44 100.712 72.44 101.405C72.0809 101.405 71.7219 101.405 71.352 101.405C71.352 102.245 71.352 103.086 71.352 103.952C70.9929 103.952 70.6339 103.952 70.264 103.952C70.264 104.961 70.264 105.97 70.264 107.009C69.9049 107.009 69.5459 107.009 69.176 107.009C69.176 107.682 69.176 108.355 69.176 109.048C63.4313 109.048 57.6867 109.048 51.768 109.048C50.4877 106.649 50.5869 105.547 50.68 102.933C50.3209 102.933 49.9619 102.933 49.592 102.933C49.592 101.924 49.592 100.916 49.592 99.8762C49.2329 99.8762 48.8739 99.8762 48.504 99.8762C48.504 99.2036 48.504 98.531 48.504 97.8381C48.1449 97.8381 47.7859 97.8381 47.416 97.8381C47.416 97.3336 47.416 96.8292 47.416 96.3095C47.0569 96.3095 46.6979 96.3095 46.328 96.3095C45.5914 95.4688 44.8663 94.6192 44.152 93.7619C43.7929 93.5937 43.4339 93.4256 43.064 93.2523C43.064 92.9161 43.064 92.5798 43.064 92.2333C42.1664 92.2333 41.2688 92.2333 40.344 92.2333C40.344 91.897 40.344 91.5607 40.344 91.2143C35.41 92.2743 32.3486 93.8864 29.532 97.8699C28.597 99.3657 28.0071 100.674 27.832 102.424C27.4729 102.424 27.1139 102.424 26.744 102.424C26.744 103.264 26.744 104.105 26.744 104.971C26.3849 104.971 26.0259 104.971 25.656 104.971C25.656 106.317 25.656 107.662 25.656 109.048C17.7571 109.048 9.85819 109.048 1.71995 109.048C1.54043 106.189 1.36091 103.331 1.17595 100.386C0.996432 100.218 0.816912 100.049 0.631952 99.8762C0.583692 98.3324 0.569286 96.8003 0.578827 95.2566C0.579596 94.7936 0.580374 94.3307 0.581167 93.8537C0.584223 92.3688 0.591045 90.884 0.597952 89.3991C0.600679 88.395 0.603161 87.3908 0.605389 86.3867C0.611401 83.9197 0.620799 81.4527 0.631952 78.9857C0.990992 78.9857 1.35003 78.9857 1.71995 78.9857C1.71995 76.4635 1.71995 73.9414 1.71995 71.3428C2.07899 71.3428 2.43803 71.3428 2.80795 71.3428C2.80795 69.4933 2.80795 67.6437 2.80795 65.7381C3.16699 65.7381 3.52603 65.7381 3.89595 65.7381C3.86229 64.9657 3.86229 64.9657 3.82795 64.1777C3.89907 62.0793 4.29444 60.5825 4.98395 58.6047C5.34299 58.6047 5.70203 58.6047 6.07195 58.6047C6.03829 58.279 6.00463 57.9532 5.96995 57.6175C6.11308 55.4279 6.90328 53.5203 7.70395 51.4714C8.06299 51.4714 8.42203 51.4714 8.79195 51.4714C8.79195 50.967 8.79195 50.4625 8.79195 49.9428C9.15099 49.9428 9.51003 49.9428 9.87995 49.9428C9.87995 49.2703 9.87995 48.5977 9.87995 47.9047C10.239 47.9047 10.598 47.9047 10.968 47.9047C11.0465 47.5895 11.125 47.2742 11.206 46.9494C11.512 45.8666 11.512 45.8666 12.056 44.8476C12.415 44.8476 12.774 44.8476 13.144 44.8476C13.144 44.3432 13.144 43.8387 13.144 43.319C13.503 43.319 13.862 43.319 14.232 43.319C14.3554 43.0353 14.4788 42.7515 14.606 42.4592C15.3162 41.2872 16.1146 40.4574 17.1538 39.5334C17.8685 38.8881 18.5624 38.2225 19.2491 37.5511C19.896 36.9225 19.896 36.9225 20.556 36.2812C20.9669 35.8786 21.3778 35.476 21.8012 35.0612C22.936 34.1476 22.936 34.1476 24.568 34.1476C24.568 33.8113 24.568 33.475 24.568 33.1285C25.1065 33.1285 25.6451 33.1285 26.2 33.1285C26.2 32.7923 26.2 32.456 26.2 32.1095C27.6401 31.3653 28.3186 31.0904 30.008 31.0904C30.008 30.7542 30.008 30.4179 30.008 30.0714C30.9056 30.0714 31.8032 30.0714 32.728 30.0714C32.728 29.7351 32.728 29.3988 32.728 29.0524C33.446 29.0524 34.1641 29.0524 34.904 29.0524C34.904 29.5568 34.904 30.0612 34.904 30.5809C35.263 30.5809 35.622 30.5809 35.992 30.5809C35.992 31.2535 35.992 31.9261 35.992 32.619C36.351 32.619 36.71 32.619 37.08 32.619C37.08 33.2916 37.08 33.9642 37.08 34.6571C37.439 34.6571 37.798 34.6571 38.168 34.6571C38.168 35.3297 38.168 36.0023 38.168 36.6952C38.527 36.6952 38.886 36.6952 39.256 36.6952C39.6091 37.5013 39.96 38.3082 40.31 39.1154C40.5056 39.5647 40.7013 40.014 40.9028 40.4768C41.3523 41.5927 41.7005 42.6663 41.976 43.8285C42.335 43.8285 42.694 43.8285 43.064 43.8285C43.423 44.8374 43.782 45.8463 44.152 46.8857C44.511 46.8857 44.87 46.8857 45.24 46.8857C45.9122 47.6644 46.5838 48.4436 47.2481 49.2283C48.1327 50.1162 48.8489 50.3631 50.136 50.4524C50.136 50.7886 50.136 51.1249 50.136 51.4714C50.854 51.4714 51.5721 51.4714 52.312 51.4714C52.312 51.8077 52.312 52.144 52.312 52.4904C54.6457 52.4904 56.9795 52.4904 59.384 52.4904C59.384 52.1542 59.384 51.8179 59.384 51.4714C60.2816 51.4714 61.1792 51.4714 62.104 51.4714C62.104 51.1351 62.104 50.7988 62.104 50.4524C62.822 50.4524 63.5401 50.4524 64.28 50.4524C64.28 50.1161 64.28 49.7798 64.28 49.4333C64.7849 49.2126 65.2898 48.9919 65.81 48.7646C67.2815 48.0349 68.063 47.4707 69.176 46.3762C69.535 46.3762 69.894 46.3762 70.264 46.3762C70.264 46.0399 70.264 45.7036 70.264 45.3571C69.9421 45.566 69.6202 45.7748 69.2886 45.99C68.8587 46.2646 68.4288 46.5391 67.986 46.822C67.5631 47.0939 67.1402 47.3658 66.7046 47.646C64.2012 49.0849 62.3241 49.5614 59.384 49.4333C59.384 49.7696 59.384 50.1059 59.384 50.4524C56.2623 50.5564 53.6146 50.5906 50.68 49.4333C50.68 49.097 50.68 48.7607 50.68 48.4143C50.3434 48.2882 50.0068 48.162 49.66 48.0321C48.3132 47.2901 47.9865 46.693 47.416 45.3571C47.0569 45.3571 46.6979 45.3571 46.328 45.3571C46.328 45.0208 46.328 44.6845 46.328 44.3381C45.9689 44.3381 45.6099 44.3381 45.24 44.3381C44.4454 42.9892 44.152 42.3537 44.152 40.7714C43.7929 40.7714 43.4339 40.7714 43.064 40.7714C43.064 40.267 43.064 39.7625 43.064 39.2428C42.7049 39.0747 42.3459 38.9065 41.976 38.7333C41.278 37.6596 40.6315 36.5937 40.004 35.4851C39.8272 35.1843 39.6505 34.8835 39.4685 34.5735C38.6453 33.1353 38.168 32.2374 38.168 30.5809C37.8089 30.5809 37.4499 30.5809 37.08 30.5809C37.08 29.9084 37.08 29.2358 37.08 28.5428C36.7209 28.5428 36.3619 28.5428 35.992 28.5428C33.4938 24.3332 33.4938 24.3332 33.816 21.919C33.4569 21.919 33.0979 21.919 32.728 21.919C32.728 20.5739 32.728 19.2287 32.728 17.8428C33.087 17.8428 33.446 17.8428 33.816 17.8428C33.816 17.0021 33.816 16.1614 33.816 15.2952C34.175 15.2952 34.534 15.2952 34.904 15.2952C35.0386 14.9694 35.1732 14.6437 35.312 14.308C35.992 13.2571 35.992 13.2571 37.148 12.875C37.4846 12.8329 37.8212 12.7909 38.168 12.7476C38.168 12.4113 38.168 12.075 38.168 11.7285C38.7065 11.7285 39.2451 11.7285 39.8 11.7285C39.8 11.3923 39.8 11.056 39.8 10.7095C40.518 10.7095 41.2361 10.7095 41.976 10.7095C41.976 10.3732 41.976 10.0369 41.976 9.69045C42.694 9.69045 43.4121 9.69045 44.152 9.69045C44.152 9.35416 44.152 9.01788 44.152 8.6714C45.0496 8.6714 45.9472 8.6714 46.872 8.6714C46.872 8.33511 46.872 7.99883 46.872 7.65235C47.9491 7.65235 49.0262 7.65235 50.136 7.65235C50.136 7.31607 50.136 6.97978 50.136 6.6333C51.2131 6.6333 52.2902 6.6333 53.4 6.6333C53.4 6.29702 53.4 5.96073 53.4 5.61426C53.9434 5.54661 54.4869 5.47895 55.0468 5.40925C56.0998 5.27428 56.0998 5.27428 57.174 5.13658C57.8745 5.04791 58.5751 4.95924 59.2968 4.86788C60.9369 4.76762 60.9369 4.76762 61.56 4.08569C62.3618 3.97987 63.1674 3.89861 63.974 3.83092C65.8276 3.68241 65.8276 3.68241 67.544 3.06664C69.4158 2.93192 71.2842 2.8401 73.1593 2.75814C75.1409 2.829 75.1409 2.829 76.792 2.04759C78.3161 1.9965 79.8239 1.9769 81.348 1.9839C81.7729 1.98193 82.1979 1.97996 82.6357 1.97793C84.4496 1.98084 85.9399 2.01635 87.672 2.55711C89.6553 2.71447 91.639 2.81676 93.6262 2.92333C95.288 3.06664 95.288 3.06664 95.832 3.57616C96.62 3.75689 97.415 3.91138 98.212 4.05384C98.6972 4.1412 99.1825 4.22855 99.6825 4.31855C102.206 4.75771 104.73 5.1914 107.256 5.61426C107.256 5.95054 107.256 6.28683 107.256 6.6333C107.974 6.6333 108.692 6.6333 109.432 6.6333C109.432 6.96959 109.432 7.30588 109.432 7.65235C110.15 7.65235 110.868 7.65235 111.608 7.65235C111.608 7.98864 111.608 8.32492 111.608 8.6714C112.326 8.6714 113.044 8.6714 113.784 8.6714C113.784 9.00769 113.784 9.34397 113.784 9.69045C114.502 9.69045 115.22 9.69045 115.96 9.69045C115.96 10.0267 115.96 10.363 115.96 10.7095C116.499 10.7095 117.037 10.7095 117.592 10.7095C117.592 11.0458 117.592 11.3821 117.592 11.7285C117.929 11.8021 118.265 11.8757 118.612 11.9515C119.768 12.2381 119.768 12.2381 120.856 12.7476C120.856 13.0839 120.856 13.4202 120.856 13.7666C121.271 13.9138 121.686 14.0609 122.114 14.2125C123.576 14.7857 123.576 14.7857 125.208 15.8047C125.208 16.141 125.208 16.4773 125.208 16.8238C125.567 16.8238 125.926 16.8238 126.296 16.8238C126.296 17.1601 126.296 17.4964 126.296 17.8428C126.801 18.0793 126.801 18.0793 127.316 18.3205C128.064 18.6708 128.812 19.0211 129.56 19.3714C129.56 19.7077 129.56 20.044 129.56 20.3904C129.919 20.3904 130.278 20.3904 130.648 20.3904C130.648 20.7267 130.648 21.063 130.648 21.4095C131.546 21.7458 132.443 22.0821 133.368 22.4285C133.368 22.7648 133.368 23.1011 133.368 23.4476C133.727 23.4476 134.086 23.4476 134.456 23.4476C134.456 23.7839 134.456 24.1202 134.456 24.4666C134.815 24.4666 135.174 24.4666 135.544 24.4666C135.544 24.8029 135.544 25.1392 135.544 25.4857C135.903 25.4857 136.262 25.4857 136.632 25.4857C136.632 25.822 136.632 26.1583 136.632 26.5047C137.35 26.6729 138.068 26.841 138.808 27.0143C138.808 27.3505 138.808 27.6868 138.808 28.0333C139.133 28.1804 139.459 28.3276 139.794 28.4791C140.984 29.0524 140.984 29.0524 142.616 30.0714C142.616 30.4077 142.616 30.744 142.616 31.0904C143.155 31.0904 143.693 31.0904 144.248 31.0904C144.427 30.586 144.607 30.0816 144.792 29.5619C145.151 29.5619 145.51 29.5619 145.88 29.5619C145.88 29.0574 145.88 28.553 145.88 28.0333C146.239 28.0333 146.598 28.0333 146.968 28.0333C146.968 27.5289 146.968 27.0244 146.968 26.5047C147.327 26.5047 147.686 26.5047 148.056 26.5047C148.191 26.1369 148.325 25.7691 148.464 25.3902C149.972 22.2127 152.76 19.926 155.672 17.8428C156.48 17.5906 156.48 17.5906 157.304 17.3333C157.483 16.997 157.663 16.6607 157.848 16.3143C158.56 15.7887 159.285 15.2772 160.024 14.7857C159.485 14.4704 158.947 14.1551 158.392 13.8303C157.584 13.2944 157.584 13.2944 156.76 12.7476C156.76 12.4113 156.76 12.075 156.76 11.7285C156.289 11.6655 156.289 11.6655 155.808 11.6012C154.184 11.0941 153.455 10.4422 152.408 9.18092C152.102 7.93896 152.102 7.93896 152.408 6.6333C153.564 5.39134 153.564 5.39134 155.128 4.08569C155.673 3.5455 156.217 3.00411 156.76 2.46158C159.73 -0.270631 161.64 -0.0641743 165.464 1.02854Z" fill="#023039"/>
<path d="M409.72 10.7095C415.824 10.7095 421.927 10.7095 428.216 10.7095C428.216 42.8248 428.216 74.94 428.216 108.029C422.112 108.029 416.009 108.029 409.72 108.029C409.54 106.347 409.361 104.666 409.176 102.933C408.536 103.438 408.536 103.438 407.884 103.952C406.456 104.971 406.456 104.971 405.368 104.971C405.368 105.308 405.368 105.644 405.368 105.99C404.829 105.99 404.291 105.99 403.736 105.99C403.736 106.327 403.736 106.663 403.736 107.009C403.018 107.009 402.3 107.009 401.56 107.009C401.56 107.346 401.56 107.682 401.56 108.029C400.662 108.029 399.765 108.029 398.84 108.029C398.84 108.365 398.84 108.701 398.84 109.048C397.404 109.048 395.968 109.048 394.488 109.048C394.488 109.384 394.488 109.72 394.488 110.067C391.795 110.067 389.102 110.067 386.328 110.067C386.328 109.73 386.328 109.394 386.328 109.048C384.533 109.048 382.738 109.048 380.888 109.048C380.888 108.711 380.888 108.375 380.888 108.029C379.99 108.029 379.093 108.029 378.168 108.029C378.168 107.692 378.168 107.356 378.168 107.009C377.753 106.936 377.338 106.862 376.91 106.787C375.448 106.5 375.448 106.5 373.816 105.99C373.816 105.654 373.816 105.318 373.816 104.971C373.277 104.971 372.739 104.971 372.184 104.971C372.184 104.635 372.184 104.299 372.184 103.952C371.286 103.616 370.389 103.28 369.464 102.933C369.464 102.597 369.464 102.261 369.464 101.914C369.105 101.914 368.746 101.914 368.376 101.914C368.376 101.578 368.376 101.242 368.376 100.895C368.017 100.895 367.658 100.895 367.288 100.895C367.288 100.559 367.288 100.223 367.288 99.8761C366.929 99.8761 366.57 99.8761 366.2 99.8761C366.2 99.5399 366.2 99.2036 366.2 98.8571C365.841 98.8571 365.482 98.8571 365.112 98.8571C362.936 96.1596 362.936 96.1596 362.936 94.2714C362.577 94.2714 362.218 94.2714 361.848 94.2714C361.848 93.7669 361.848 93.2625 361.848 92.7428C361.489 92.7428 361.13 92.7428 360.76 92.7428C360.76 91.9021 360.76 91.0614 360.76 90.1952C360.401 90.1952 360.042 90.1952 359.672 90.1952C359.672 89.3545 359.672 88.5138 359.672 87.6476C359.313 87.6476 358.954 87.6476 358.584 87.6476C357.447 83.6094 357.327 79.634 357.354 75.4817C357.36 74.4018 357.354 73.3223 357.347 72.2424C357.344 68.4403 357.545 64.8419 358.584 61.1523C358.943 61.1523 359.302 61.1523 359.672 61.1523C359.672 60.1435 359.672 59.1346 359.672 58.0952C360.031 58.0952 360.39 58.0952 360.76 58.0952C360.76 57.2545 360.76 56.4138 360.76 55.5476C361.119 55.5476 361.478 55.5476 361.848 55.5476C361.848 54.875 361.848 54.2024 361.848 53.5095C362.207 53.5095 362.566 53.5095 362.936 53.5095C363.015 53.2047 363.093 52.9 363.174 52.586C363.419 51.6948 363.713 50.8157 364.024 49.9428C364.383 49.9428 364.742 49.9428 365.112 49.9428C365.247 49.575 365.381 49.2072 365.52 48.8282C366.759 46.2172 368.625 44.4539 371.096 42.8095C371.455 42.8095 371.814 42.8095 372.184 42.8095C372.184 42.4732 372.184 42.1369 372.184 41.7904C373.816 40.7714 373.816 40.7714 375.448 40.7714C375.448 40.4351 375.448 40.0988 375.448 39.7523C375.987 39.7523 376.525 39.7523 377.08 39.7523C377.08 39.416 377.08 39.0798 377.08 38.7333C377.798 38.7333 378.516 38.7333 379.256 38.7333C379.256 38.397 379.256 38.0607 379.256 37.7142C380.899 37.456 382.542 37.2018 384.186 36.9499C384.647 36.877 385.108 36.8041 385.583 36.729C389.909 36.0719 393.707 36.1352 397.99 36.9499C398.388 37.0229 398.786 37.0958 399.196 37.1709C400.166 37.349 401.135 37.5312 402.104 37.7142C402.104 38.0505 402.104 38.3868 402.104 38.7333C402.822 38.7333 403.54 38.7333 404.28 38.7333C404.28 39.0696 404.28 39.4059 404.28 39.7523C404.617 39.8259 404.953 39.8995 405.3 39.9752C406.456 40.2619 406.456 40.2619 407.544 40.7714C407.544 41.1077 407.544 41.4439 407.544 41.7904C407.903 41.7904 408.262 41.7904 408.632 41.7904C408.811 42.1267 408.991 42.463 409.176 42.8095C409.355 32.2165 409.535 21.6235 409.72 10.7095ZM387.96 53.5095C387.96 53.8458 387.96 54.182 387.96 54.5285C387.242 54.5285 386.524 54.5285 385.784 54.5285C385.784 54.8648 385.784 55.2011 385.784 55.5476C385.459 55.5981 385.135 55.6487 384.8 55.7008C382.207 56.4758 380.706 59.0809 379.324 61.1523C378.61 62.9356 378.591 64.3581 378.712 66.2476C378.353 66.2476 377.994 66.2476 377.624 66.2476C377.624 70.6193 377.624 74.991 377.624 79.4952C377.983 79.4952 378.342 79.4952 378.712 79.4952C378.656 79.9681 378.6 80.441 378.542 80.9282C378.511 83.7628 380.096 86.196 381.432 88.6666C381.791 88.6666 382.15 88.6666 382.52 88.6666C382.52 89.0029 382.52 89.3392 382.52 89.6857C382.879 89.6857 383.238 89.6857 383.608 89.6857C383.608 90.0219 383.608 90.3582 383.608 90.7047C385.468 91.9986 386.74 92.4186 389.048 92.2333C389.048 92.5696 389.048 92.9059 389.048 93.2523C391.741 93.2523 394.434 93.2523 397.208 93.2523C397.208 92.916 397.208 92.5798 397.208 92.2333C397.809 92.2786 397.809 92.2786 398.421 92.3248C400.207 92.2163 400.883 91.794 402.274 90.7684C402.653 90.4965 403.033 90.2246 403.424 89.9444C403.706 89.6909 403.989 89.4373 404.28 89.1761C404.28 88.8399 404.28 88.5036 404.28 88.1571C404.639 88.1571 404.998 88.1571 405.368 88.1571C405.368 87.6527 405.368 87.1482 405.368 86.6285C405.727 86.6285 406.086 86.6285 406.456 86.6285C406.456 85.9559 406.456 85.2834 406.456 84.5904C406.815 84.5904 407.174 84.5904 407.544 84.5904C408.541 82.2032 408.76 80.224 408.738 77.6681C408.736 77.1317 408.736 77.1317 408.734 76.5845C408.728 75.4529 408.714 74.3214 408.7 73.1898C408.694 72.4182 408.69 71.6467 408.685 70.8751C408.673 68.9928 408.654 67.1107 408.632 65.2285C408.273 65.2285 407.914 65.2285 407.544 65.2285C407.6 64.8187 407.656 64.4088 407.714 63.9866C407.429 60.9457 405.72 58.5973 403.668 56.28C402.646 55.3926 402.646 55.3926 401.016 55.5476C401.016 55.2113 401.016 54.875 401.016 54.5285C400.298 54.5285 399.58 54.5285 398.84 54.5285C398.84 54.1922 398.84 53.8559 398.84 53.5095C395.25 53.5095 391.659 53.5095 387.96 53.5095Z" fill="#21DA26"/>
<path d="M316.222 36.1181C316.875 36.1174 317.527 36.1168 318.199 36.1161C318.881 36.1181 319.563 36.12 320.266 36.1221C320.95 36.1201 321.634 36.1181 322.339 36.1161C323.317 36.1171 323.317 36.1171 324.314 36.1181C324.913 36.1187 325.513 36.1192 326.13 36.1198C327.576 36.1858 327.576 36.1858 328.664 36.6953C330.047 36.8946 331.424 37.0748 332.812 37.2366C333.196 37.2829 333.58 37.3293 333.976 37.377C334.925 37.4911 335.875 37.6029 336.824 37.7143C336.824 38.0506 336.824 38.3869 336.824 38.7334C337.722 38.7334 338.619 38.7334 339.544 38.7334C339.544 39.0697 339.544 39.4059 339.544 39.7524C340.262 39.7524 340.98 39.7524 341.72 39.7524C341.72 40.0887 341.72 40.425 341.72 40.7715C342.618 41.1078 343.515 41.444 344.44 41.7905C344.44 42.1268 344.44 42.4631 344.44 42.8096C344.743 42.9041 345.046 42.9987 345.358 43.0962C347.974 44.6194 349.456 47.2621 350.424 49.9429C350.562 50.8943 350.664 51.8508 350.73 52.809C350.843 54.3804 350.977 55.574 351.512 57.0762C351.562 58.557 351.58 60.0254 351.574 61.5061C351.574 61.9585 351.574 62.411 351.574 62.8772C351.574 64.3742 351.569 65.8712 351.565 67.3682C351.564 68.4056 351.563 69.4429 351.563 70.4803C351.561 73.2119 351.555 75.9434 351.549 78.675C351.544 81.4619 351.541 84.2488 351.538 87.0356C351.533 92.5047 351.523 97.9738 351.512 103.443C351.871 103.443 352.23 103.443 352.6 103.443C353.716 105.207 353.688 105.784 353.688 108.029C346.507 108.029 339.326 108.029 331.928 108.029C331.748 106.347 331.569 104.666 331.384 102.933C330.761 103.438 330.761 103.438 330.126 103.952C328.664 104.971 328.664 104.971 327.032 104.971C327.032 105.308 327.032 105.644 327.032 105.991C325.124 106.808 323.69 107.122 321.592 107.01C321.592 107.346 321.592 107.682 321.592 108.029C320.156 108.029 318.72 108.029 317.24 108.029C317.24 108.365 317.24 108.701 317.24 109.048C313.111 109.048 308.982 109.048 304.728 109.048C304.728 108.711 304.728 108.375 304.728 108.029C303.292 108.029 301.856 108.029 300.376 108.029C300.376 107.692 300.376 107.356 300.376 107.01C299.478 107.01 298.581 107.01 297.656 107.01C297.656 106.673 297.656 106.337 297.656 105.991C297.331 105.917 297.005 105.843 296.67 105.768C295.718 105.538 294.78 105.262 293.848 104.971C293.848 104.635 293.848 104.299 293.848 103.952C293.556 103.847 293.264 103.742 292.964 103.634C291.172 102.662 289.717 101.38 288.408 99.8762C288.408 99.5399 288.408 99.2037 288.408 98.8572C288.049 98.8572 287.69 98.8572 287.32 98.8572C286.977 98.2429 286.638 97.6269 286.3 97.0102C286.111 96.6673 285.921 96.3244 285.726 95.9712C284.163 92.7765 283.916 90.1559 283.988 86.6923C283.993 86.2444 283.998 85.7964 284.003 85.3349C284.016 84.2375 284.035 83.1402 284.056 82.0429C284.415 82.0429 284.774 82.0429 285.144 82.0429C285.144 81.034 285.144 80.0252 285.144 78.9858C285.503 78.9858 285.862 78.9858 286.232 78.9858C286.232 78.3132 286.232 77.6406 286.232 76.9477C286.591 76.9477 286.95 76.9477 287.32 76.9477C287.398 76.6324 287.477 76.3171 287.558 75.9923C287.864 74.9096 287.864 74.9096 288.408 73.8905C288.767 73.8905 289.126 73.8905 289.496 73.8905C289.675 73.2179 289.855 72.5454 290.04 71.8524C290.399 71.8524 290.758 71.8524 291.128 71.8524C291.128 71.5161 291.128 71.1798 291.128 70.8334C292.016 70.2954 292.927 69.7921 293.848 69.3048C294.33 68.979 294.813 68.6532 295.31 68.3176C298.827 66.2665 302.181 64.8883 306.36 65.2286C306.36 64.8923 306.36 64.556 306.36 64.2096C308.155 64.2096 309.95 64.2096 311.8 64.2096C311.8 63.8733 311.8 63.537 311.8 63.1905C313.595 63.1905 315.39 63.1905 317.24 63.1905C317.24 62.8542 317.24 62.5179 317.24 62.1715C318.856 62.1715 320.471 62.1715 322.136 62.1715C322.136 61.8352 322.136 61.4989 322.136 61.1524C323.393 61.1524 324.649 61.1524 325.944 61.1524C325.944 60.8161 325.944 60.4798 325.944 60.1334C327.56 59.7971 329.175 59.4608 330.84 59.1143C330.84 58.778 330.84 58.4418 330.84 58.0953C331.199 58.0953 331.558 58.0953 331.928 58.0953C331.697 57.3502 331.457 56.6076 331.214 55.8661C331.081 55.4523 330.949 55.0385 330.812 54.6122C330.343 53.3405 330.343 53.3405 328.664 52.4905C328.664 52.1542 328.664 51.8179 328.664 51.4715C327.766 51.4715 326.869 51.4715 325.944 51.4715C325.944 51.1352 325.944 50.7989 325.944 50.4524C324.142 50.5228 322.34 50.5986 320.538 50.6753C320.024 50.6954 319.509 50.7154 318.979 50.736C318.49 50.7574 318.001 50.7787 317.497 50.8007C316.818 50.8287 316.818 50.8287 316.124 50.8573C315.062 50.8568 315.062 50.8568 314.52 51.4715C313.614 51.4922 312.706 51.4932 311.8 51.4715C311.8 51.8078 311.8 52.144 311.8 52.4905C311.374 52.7217 310.947 52.9529 310.508 53.1911C309.013 54.0581 308.602 54.5516 307.992 56.0572C307.633 56.0572 307.274 56.0572 306.904 56.0572C306.904 57.4023 306.904 58.7475 306.904 60.1334C300.441 60.1334 293.978 60.1334 287.32 60.1334C287.32 53.7457 289.104 48.1422 293.984 43.4465C295.838 41.7905 295.838 41.7905 297.112 41.7905C297.112 41.4542 297.112 41.1179 297.112 40.7715C297.65 40.7715 298.189 40.7715 298.744 40.7715C298.744 40.4352 298.744 40.0989 298.744 39.7524C299.462 39.7524 300.18 39.7524 300.92 39.7524C300.92 39.4161 300.92 39.0798 300.92 38.7334C301.638 38.7334 302.356 38.7334 303.096 38.7334C303.096 38.3971 303.096 38.0608 303.096 37.7143C303.666 37.6467 304.236 37.579 304.824 37.5093C305.574 37.4185 306.324 37.3276 307.074 37.2366C307.637 37.1701 307.637 37.1701 308.212 37.1023C310.98 36.7641 313.416 36.1208 316.222 36.1181ZM331.384 73.8905C331.384 74.2268 331.384 74.5631 331.384 74.9096C330.486 74.9096 329.589 74.9096 328.664 74.9096C328.664 75.2458 328.664 75.5821 328.664 75.9286C327.587 75.9286 326.51 75.9286 325.4 75.9286C325.4 76.2649 325.4 76.6012 325.4 76.9477C323.784 76.9477 322.169 76.9477 320.504 76.9477C320.504 77.2839 320.504 77.6202 320.504 77.9667C318.529 77.9667 316.554 77.9667 314.52 77.9667C314.52 78.303 314.52 78.6393 314.52 78.9858C313.88 78.9437 313.241 78.9017 312.582 78.8584C309.567 78.8534 307.683 79.9981 305.374 81.7881C303.731 83.7319 303.52 85.1722 303.64 87.6477C303.999 87.6477 304.358 87.6477 304.728 87.6477C304.762 88.026 304.795 88.4043 304.83 88.7941C305.42 90.6633 306.237 91.2248 307.992 92.2334C309.466 92.4045 309.466 92.4045 310.712 92.2334C310.712 92.5697 310.712 92.9059 310.712 93.2524C313.584 93.2524 316.457 93.2524 319.416 93.2524C319.416 92.9161 319.416 92.5798 319.416 92.2334C320.673 92.2334 321.929 92.2334 323.224 92.2334C323.224 91.8971 323.224 91.5608 323.224 91.2143C323.779 91.3089 323.779 91.3089 324.346 91.4054C326.756 91.1172 328.179 89.8413 329.752 88.1572C332.114 85.1077 332.204 82.7189 332.064 79.0176C332.054 78.5233 332.044 78.0291 332.034 77.5199C332.009 76.3096 331.973 75.1003 331.928 73.8905C331.748 73.8905 331.569 73.8905 331.384 73.8905Z" fill="#21DA26"/>
<path d="M501.112 37.1411C502.118 37.1381 502.118 37.1381 503.144 37.1351C506.507 37.1385 509.756 37.224 513.08 37.7143C513.08 38.0506 513.08 38.3869 513.08 38.7334C514.157 38.7334 515.234 38.7334 516.344 38.7334C516.344 39.0697 516.344 39.4059 516.344 39.7524C517.062 39.7524 517.78 39.7524 518.52 39.7524C518.52 40.0887 518.52 40.425 518.52 40.7715C519.059 40.7715 519.597 40.7715 520.152 40.7715C520.152 41.1077 520.152 41.444 520.152 41.7905C520.691 41.7905 521.229 41.7905 521.784 41.7905C521.784 42.1268 521.784 42.4631 521.784 42.8096C522.323 42.8096 522.861 42.8096 523.416 42.8096C523.416 43.1458 523.416 43.4821 523.416 43.8286C523.708 43.9337 524 44.0388 524.3 44.1471C526.092 45.119 527.547 46.4008 528.856 47.9048C528.856 48.2411 528.856 48.5774 528.856 48.9238C529.215 48.9238 529.574 48.9238 529.944 48.9238C531.032 50.4524 531.032 50.4524 531.032 51.981C531.391 51.981 531.75 51.981 532.12 51.981C533.08 53.5544 533.208 54.1379 533.208 56.0572C533.567 56.0572 533.926 56.0572 534.296 56.0572C534.296 56.8979 534.296 57.7386 534.296 58.6048C534.655 58.6048 535.014 58.6048 535.384 58.6048C535.384 59.7818 535.384 60.9588 535.384 62.1715C535.743 62.1715 536.102 62.1715 536.472 62.1715C536.472 63.6847 536.472 65.198 536.472 66.7572C536.831 66.7572 537.19 66.7572 537.56 66.7572C537.576 68.5299 537.585 70.3026 537.594 72.0753C537.599 72.5814 537.603 73.0875 537.608 73.6089C537.61 74.09 537.611 74.5711 537.613 75.0668C537.616 75.5124 537.619 75.958 537.622 76.4171C537.56 77.4572 537.56 77.4572 537.016 77.9667C535.416 78.018 533.828 78.0361 532.228 78.0326C531.725 78.0335 531.223 78.0344 530.705 78.0353C529.035 78.0376 527.366 78.0361 525.696 78.0344C524.541 78.0347 523.386 78.0352 522.23 78.0358C519.805 78.0366 517.38 78.0355 514.955 78.0331C511.84 78.0302 508.726 78.0319 505.612 78.0349C503.225 78.0368 500.838 78.0362 498.451 78.0349C497.302 78.0345 496.154 78.035 495.005 78.0361C493.402 78.0374 491.798 78.0355 490.195 78.0326C489.477 78.0342 489.477 78.0342 488.745 78.0358C485.46 78.0249 485.46 78.0249 484.248 77.4572C484.248 77.7935 484.248 78.1297 484.248 78.4762C484.607 78.4762 484.966 78.4762 485.336 78.4762C485.336 79.4851 485.336 80.4939 485.336 81.5334C485.695 81.5334 486.054 81.5334 486.424 81.5334C487.108 83.014 487.512 83.9771 487.512 85.6096C487.871 85.6096 488.23 85.6096 488.6 85.6096C489.306 86.336 489.306 86.336 490.096 87.2974C492.416 89.9083 494.808 90.8147 498.392 91.2143C498.392 91.5506 498.392 91.8869 498.392 92.2334C501.982 92.2334 505.573 92.2334 509.272 92.2334C509.272 91.8971 509.272 91.5608 509.272 91.2143C510.282 91.0094 510.282 91.0094 511.312 90.8003C513.156 90.3762 514.337 89.8262 515.8 88.6667C516.159 88.6667 516.518 88.6667 516.888 88.6667C517.544 87.4784 518.066 86.3757 518.52 85.1C518.879 85.1 519.238 85.1 519.608 85.1C519.608 84.5956 519.608 84.0912 519.608 83.5715C520.865 83.5715 522.121 83.5715 523.416 83.5715C523.416 83.9077 523.416 84.244 523.416 84.5905C523.955 84.5905 524.493 84.5905 525.048 84.5905C525.048 84.9268 525.048 85.2631 525.048 85.6096C525.536 85.7199 525.536 85.7199 526.034 85.8325C526.986 86.0616 527.924 86.3376 528.856 86.6286C528.856 86.9649 528.856 87.3012 528.856 87.6477C529.574 87.6477 530.292 87.6477 531.032 87.6477C531.032 87.9839 531.032 88.3202 531.032 88.6667C531.503 88.7613 531.503 88.7613 531.984 88.8578C533.221 89.1795 534.255 89.629 535.384 90.1953C535.384 91.2041 535.384 92.213 535.384 93.2524C535.025 93.2524 534.666 93.2524 534.296 93.2524C534.296 93.7568 534.296 94.2613 534.296 94.781C533.937 94.781 533.578 94.781 533.208 94.781C533.208 95.2854 533.208 95.7898 533.208 96.3096C532.849 96.3096 532.49 96.3096 532.12 96.3096C532.12 96.6458 532.12 96.9821 532.12 97.3286C531.761 97.3286 531.402 97.3286 531.032 97.3286C531.032 97.833 531.032 98.3375 531.032 98.8572C530.673 98.8572 530.314 98.8572 529.944 98.8572C529.944 99.1935 529.944 99.5297 529.944 99.8762C529.585 99.8762 529.226 99.8762 528.856 99.8762C528.856 100.213 528.856 100.549 528.856 100.895C528.497 100.895 528.138 100.895 527.768 100.895C527.768 101.232 527.768 101.568 527.768 101.914C527.409 101.914 527.05 101.914 526.68 101.914C526.68 102.251 526.68 102.587 526.68 102.933C523.736 104.971 523.736 104.971 522.328 104.971C522.328 105.308 522.328 105.644 522.328 105.991C521.61 105.991 520.892 105.991 520.152 105.991C520.152 106.327 520.152 106.663 520.152 107.01C519.434 107.01 518.716 107.01 517.976 107.01C517.976 107.346 517.976 107.682 517.976 108.029C517.078 108.029 516.181 108.029 515.256 108.029C515.256 108.365 515.256 108.701 515.256 109.048C513.64 109.048 512.025 109.048 510.36 109.048C510.36 109.384 510.36 109.72 510.36 110.067C505.154 110.067 499.948 110.067 494.584 110.067C494.584 109.73 494.584 109.394 494.584 109.048C493.148 109.048 491.712 109.048 490.232 109.048C490.232 108.711 490.232 108.375 490.232 108.029C489.155 108.029 488.078 108.029 486.968 108.029C486.968 107.692 486.968 107.356 486.968 107.01C486.25 107.01 485.532 107.01 484.792 107.01C484.792 106.673 484.792 106.337 484.792 105.991C484.074 105.991 483.356 105.991 482.616 105.991C482.616 105.654 482.616 105.318 482.616 104.971C482.279 104.898 481.943 104.824 481.596 104.749C480.44 104.462 480.44 104.462 479.352 103.952C479.352 103.616 479.352 103.28 479.352 102.933C478.982 102.839 478.612 102.744 478.23 102.647C476.014 101.631 474.383 100.132 472.824 98.3477C472.824 98.0114 472.824 97.6751 472.824 97.3286C472.465 97.3286 472.106 97.3286 471.736 97.3286C470.625 95.8482 470.104 95.086 470.104 93.2524C469.745 93.2524 469.386 93.2524 469.016 93.2524C469.016 92.5798 469.016 91.9073 469.016 91.2143C468.657 91.2143 468.298 91.2143 467.928 91.2143C467.928 90.5417 467.928 89.8692 467.928 89.1762C467.569 89.1762 467.21 89.1762 466.84 89.1762C465.978 86.9686 465.549 84.8766 465.208 82.5524C465.029 82.3843 464.849 82.2161 464.664 82.0429C464.616 80.7214 464.601 79.4135 464.611 78.0921C464.612 77.4994 464.612 77.4994 464.613 76.8948C464.616 75.628 464.623 74.3612 464.63 73.0944C464.633 72.2375 464.635 71.3807 464.637 70.5239C464.644 68.4191 464.653 66.3143 464.664 64.2096C465.023 64.2096 465.382 64.2096 465.752 64.2096C465.752 62.8644 465.752 61.5193 465.752 60.1334C466.111 60.1334 466.47 60.1334 466.84 60.1334C466.805 59.7853 466.77 59.4371 466.734 59.0785C466.869 57.1784 467.619 55.7438 468.54 54.0828C468.711 53.7684 468.883 53.454 469.059 53.1301C470.409 50.7238 471.84 48.7813 473.912 46.8857C474.271 46.8857 474.63 46.8857 475 46.8857C475 46.5495 475 46.2132 475 45.8667C475.359 45.8667 475.718 45.8667 476.088 45.8667C476.088 45.5304 476.088 45.1941 476.088 44.8477C476.447 44.8477 476.806 44.8477 477.176 44.8477C477.176 44.5114 477.176 44.1751 477.176 43.8286C478.19 43.0603 478.19 43.0603 479.522 42.2363C479.958 41.9618 480.393 41.6872 480.842 41.4044C482.072 40.7715 482.072 40.7715 483.704 40.7715C483.704 40.4352 483.704 40.0989 483.704 39.7524C484.422 39.7524 485.14 39.7524 485.88 39.7524C485.88 39.4161 485.88 39.0798 485.88 38.7334C486.957 38.7334 488.034 38.7334 489.144 38.7334C489.144 38.3971 489.144 38.0608 489.144 37.7143C493.136 37.1255 497.077 37.1292 501.112 37.1411ZM494.04 52.4905C494.04 52.8268 494.04 53.1631 494.04 53.5096C493.502 53.5096 492.963 53.5096 492.408 53.5096C492.408 53.8458 492.408 54.1821 492.408 54.5286C491.87 54.5286 491.331 54.5286 490.776 54.5286C490.776 54.8649 490.776 55.2012 490.776 55.5477C490.417 55.5477 490.058 55.5477 489.688 55.5477C489.688 55.8839 489.688 56.2202 489.688 56.5667C489.329 56.5667 488.97 56.5667 488.6 56.5667C488.6 57.0711 488.6 57.5756 488.6 58.0953C488.241 58.0953 487.882 58.0953 487.512 58.0953C487.512 58.5997 487.512 59.1041 487.512 59.6238C487.153 59.6238 486.794 59.6238 486.424 59.6238C485.609 61.3414 485.336 62.2756 485.336 64.2096C495.748 64.2096 506.16 64.2096 516.888 64.2096C516.134 59.5165 516.134 59.5165 514.712 57.0762C514.353 57.0762 513.994 57.0762 513.624 57.0762C513.478 56.7504 513.332 56.4247 513.182 56.089C512.598 54.8693 512.598 54.8693 510.904 54.5286C510.904 54.1923 510.904 53.856 510.904 53.5096C510.366 53.5096 509.827 53.5096 509.272 53.5096C509.272 53.1733 509.272 52.837 509.272 52.4905C508.374 52.4905 507.477 52.4905 506.552 52.4905C506.552 52.1542 506.552 51.8179 506.552 51.4715C505.079 51.4438 503.606 51.4237 502.132 51.4078C501.511 51.395 501.511 51.395 500.878 51.3819C498.374 51.3617 496.398 51.5942 494.04 52.4905Z" fill="#21DA26"/>
<path d="M187.768 56.5667C193.504 56.5552 199.24 56.5458 204.976 56.5403C207.639 56.5376 210.302 56.534 212.965 56.5283C215.533 56.5227 218.1 56.5197 220.668 56.5183C221.65 56.5174 222.632 56.5156 223.614 56.5128C224.985 56.5091 226.355 56.5086 227.725 56.5088C228.135 56.507 228.546 56.5052 228.968 56.5033C231.77 56.5086 231.77 56.5086 232.376 57.0762C232.427 58.1236 232.44 59.1726 232.438 60.2211C232.438 60.5491 232.438 60.8772 232.438 61.2152C232.438 62.3042 232.433 63.3932 232.429 64.4822C232.428 65.2355 232.427 65.9887 232.427 66.7419C232.425 68.728 232.419 70.7141 232.413 72.7001C232.408 74.7253 232.405 76.7505 232.403 78.7758C232.397 82.7521 232.387 86.7284 232.376 90.7048C232.017 90.7048 231.658 90.7048 231.288 90.7048C231.31 91.1777 231.333 91.6506 231.356 92.1378C231.288 93.7619 231.288 93.7619 230.2 95.2905C229.841 95.2905 229.482 95.2905 229.112 95.2905C229.112 95.7949 229.112 96.2994 229.112 96.8191C228.753 96.8191 228.394 96.8191 228.024 96.8191C228.024 97.1554 228.024 97.4916 228.024 97.8381C227.665 97.8381 227.306 97.8381 226.936 97.8381C226.936 98.1744 226.936 98.5107 226.936 98.8572C226.577 98.8572 226.218 98.8572 225.848 98.8572C225.848 99.1935 225.848 99.5297 225.848 99.8762C225.489 99.8762 225.13 99.8762 224.76 99.8762C224.76 100.213 224.76 100.549 224.76 100.895C221.974 103.01 218.761 104.596 215.512 105.991C215.041 106.201 214.57 106.411 214.084 106.627C212.52 107.09 211.159 107.081 209.528 107.01C209.528 107.346 209.528 107.682 209.528 108.029C208.271 108.029 207.015 108.029 205.72 108.029C205.72 108.365 205.72 108.701 205.72 109.048C203.386 109.048 201.053 109.048 198.648 109.048C198.648 109.384 198.648 109.72 198.648 110.067C192.544 110.067 186.441 110.067 180.152 110.067C180.152 109.73 180.152 109.394 180.152 109.048C178.536 109.048 176.921 109.048 175.256 109.048C175.256 108.711 175.256 108.375 175.256 108.029C173.999 108.029 172.743 108.029 171.448 108.029C171.448 107.692 171.448 107.356 171.448 107.01C170.55 107.01 169.653 107.01 168.728 107.01C168.728 106.673 168.728 106.337 168.728 105.991C168.328 105.929 167.927 105.868 167.515 105.805C163.793 105.004 160.639 102.703 157.699 100.505C156.709 99.777 156.709 99.777 155.128 99.3667C155.128 99.0304 155.128 98.6941 155.128 98.3476C154.769 98.3476 154.41 98.3476 154.04 98.3476C154.04 98.0114 154.04 97.6751 154.04 97.3286C153.681 97.3286 153.322 97.3286 152.952 97.3286C151.32 95.5649 151.32 95.5649 151.32 94.2715C150.961 94.2715 150.602 94.2715 150.232 94.2715C150.232 93.9352 150.232 93.5989 150.232 93.2524C149.873 93.2524 149.514 93.2524 149.144 93.2524C148.785 92.4117 148.426 91.571 148.056 90.7048C147.697 90.7048 147.338 90.7048 146.968 90.7048C146.968 90.2004 146.968 89.6959 146.968 89.1762C146.609 89.1762 146.25 89.1762 145.88 89.1762C145.88 88.6718 145.88 88.1674 145.88 87.6476C145.521 87.6476 145.162 87.6476 144.792 87.6476C144.792 87.1432 144.792 86.6388 144.792 86.1191C144.433 86.1191 144.074 86.1191 143.704 86.1191C143.572 85.7368 143.44 85.3545 143.305 84.9607C142.114 81.5556 140.821 78.2178 139.352 74.9095C140.821 73.0596 142.892 72.8054 145.166 72.3301C145.537 72.2483 145.909 72.1665 146.291 72.0823C147.833 71.7428 149.375 71.407 150.922 71.0904C151.969 70.866 153.006 70.5982 154.04 70.3238C154.22 69.9875 154.399 69.6513 154.584 69.3048C155.708 69.0938 155.708 69.0938 157.066 68.9863C157.516 68.9482 157.965 68.9101 158.428 68.8709C158.949 68.8335 158.949 68.8335 159.48 68.7953C159.48 69.4678 159.48 70.1404 159.48 70.8334C159.839 70.8334 160.198 70.8334 160.568 70.8334C160.568 71.8422 160.568 72.8511 160.568 73.8905C160.927 73.8905 161.286 73.8905 161.656 73.8905C161.656 74.5631 161.656 75.2356 161.656 75.9286C162.015 75.9286 162.374 75.9286 162.744 75.9286C162.968 76.5486 163.193 77.1686 163.424 77.8075C164.168 79.6906 165.156 81.019 166.552 82.5524C166.552 82.8887 166.552 83.225 166.552 83.5715C166.911 83.5715 167.27 83.5715 167.64 83.5715C167.64 83.9077 167.64 84.244 167.64 84.5905C167.999 84.5905 168.358 84.5905 168.728 84.5905C168.728 84.9268 168.728 85.2631 168.728 85.6095C169.087 85.6095 169.446 85.6095 169.816 85.6095C169.816 85.9458 169.816 86.2821 169.816 86.6286C170.175 86.7442 170.534 86.8598 170.904 86.9789C172.287 87.5458 173.338 88.1355 174.576 88.9215C176.869 90.311 179.107 90.8255 181.784 91.2143C181.784 91.5506 181.784 91.8869 181.784 92.2334C187.529 92.2334 193.273 92.2334 199.192 92.2334C199.192 91.8971 199.192 91.5608 199.192 91.2143C199.785 91.1572 199.785 91.1572 200.391 91.0989C201.211 90.9984 201.211 90.9984 202.048 90.8959C202.578 90.8367 203.108 90.7776 203.655 90.7167C206.732 89.9397 209.44 88.5307 212.248 87.1381C212.245 86.7113 212.242 86.2844 212.239 85.8447C212.23 84.2627 212.223 82.6807 212.218 81.0987C212.214 80.0766 212.207 79.0545 212.2 78.0324C212.198 77.392 212.197 76.7516 212.195 76.0918C212.192 75.4994 212.189 74.9071 212.186 74.2968C212.248 72.8715 212.248 72.8715 212.792 71.8524C204.534 71.8524 196.276 71.8524 187.768 71.8524C187.768 66.8081 187.768 61.7638 187.768 56.5667Z" fill="#21DA26"/>
<path d="M438.552 10.7095C445.194 10.7095 451.836 10.7095 458.68 10.7095C458.692 23.3231 458.702 35.9367 458.708 48.5503C458.711 54.4065 458.715 60.2628 458.721 66.1191C458.726 71.2214 458.73 76.3238 458.731 81.4261C458.732 84.1295 458.734 86.833 458.737 89.5364C458.741 92.0778 458.742 94.6193 458.742 97.1607C458.742 98.0963 458.743 99.032 458.745 99.9676C458.748 101.239 458.747 102.511 458.745 103.782C458.747 104.158 458.749 104.533 458.75 104.919C458.742 107.461 458.742 107.461 458.136 108.029C456.731 108.08 455.342 108.1 453.937 108.096C453.306 108.097 453.306 108.097 452.663 108.098C451.772 108.098 450.881 108.097 449.99 108.095C448.622 108.092 447.254 108.095 445.885 108.098C445.022 108.098 444.158 108.097 443.295 108.096C442.883 108.097 442.471 108.098 442.047 108.099C439.159 108.087 439.159 108.087 438.552 107.519C438.499 106.269 438.481 105.033 438.487 103.782C438.486 103.387 438.486 102.991 438.485 102.583C438.484 101.247 438.487 99.9106 438.49 98.5743C438.49 97.6205 438.49 96.6666 438.49 95.7128C438.49 93.1147 438.493 90.5167 438.497 87.9187C438.5 85.2067 438.501 82.4948 438.501 79.7829C438.503 74.6436 438.507 69.5043 438.513 64.365C438.519 58.5158 438.522 52.6665 438.525 46.8172C438.53 34.7813 438.54 22.7454 438.552 10.7095Z" fill="#21DA26"/>
<path d="M165.464 1.02854C165.464 1.36483 165.464 1.70111 165.464 2.04759C166.182 2.04759 166.9 2.04759 167.64 2.04759C167.64 2.38388 167.64 2.72016 167.64 3.06664C168.145 3.17698 168.145 3.17698 168.66 3.28955C169.816 3.57616 169.816 3.57616 170.904 4.08569C170.904 4.42197 170.904 4.75826 170.904 5.10473C171.308 5.23084 171.712 5.35695 172.128 5.48688C173.624 6.12378 173.624 6.12378 174.576 7.17467C176.408 8.65207 178.345 8.5773 180.696 8.6714C180.696 8.33511 180.696 7.99883 180.696 7.65235C185.902 7.65235 191.108 7.65235 196.472 7.65235C196.472 7.98864 196.472 8.32492 196.472 8.6714C198.088 8.6714 199.703 8.6714 201.368 8.6714C201.368 9.00769 201.368 9.34397 201.368 9.69045C202.445 9.69045 203.522 9.69045 204.632 9.69045C204.632 10.0267 204.632 10.363 204.632 10.7095C205.53 10.7095 206.427 10.7095 207.352 10.7095C207.352 11.0458 207.352 11.3821 207.352 11.7285C208.07 11.7285 208.788 11.7285 209.528 11.7285C209.528 12.0648 209.528 12.4011 209.528 12.7476C209.853 12.8212 210.179 12.8947 210.514 12.9705C211.465 13.1997 212.404 13.4757 213.336 13.7666C213.336 14.1029 213.336 14.4392 213.336 14.7857C213.717 14.9013 214.099 15.0169 214.492 15.136C216.459 15.9772 217.736 16.972 219.32 18.3524C219.32 18.6886 219.32 19.0249 219.32 19.3714C219.679 19.3714 220.038 19.3714 220.408 19.3714C220.408 19.7077 220.408 20.044 220.408 20.3904C220.767 20.3904 221.126 20.3904 221.496 20.3904C221.496 20.7267 221.496 21.063 221.496 21.4095C221.855 21.4095 222.214 21.4095 222.584 21.4095C224.76 23.6274 224.76 23.6274 224.76 25.4857C225.119 25.4857 225.478 25.4857 225.848 25.4857C226.936 27.0143 226.936 27.0143 226.936 28.5428C227.295 28.5428 227.654 28.5428 228.024 28.5428C228.024 29.2154 228.024 29.888 228.024 30.5809C228.383 30.5809 228.742 30.5809 229.112 30.5809C229.112 31.2535 229.112 31.9261 229.112 32.619C229.471 32.619 229.83 32.619 230.2 32.619C230.379 33.4597 230.559 34.3004 230.744 35.1666C230.923 35.1666 231.103 35.1666 231.288 35.1666C231.288 36.8481 231.288 38.5295 231.288 40.2619C231.647 40.2619 232.006 40.2619 232.376 40.2619C232.017 41.1026 231.658 41.9433 231.288 42.8095C228.664 42.8221 226.04 42.8313 223.415 42.8375C222.522 42.8401 221.629 42.8435 220.735 42.8479C219.454 42.8541 218.172 42.857 216.891 42.8593C216.489 42.8619 216.088 42.8645 215.674 42.8672C214.713 42.8673 213.752 42.8411 212.792 42.8095C212.248 42.3 212.248 42.3 212.214 40.9943C212.225 40.5845 212.236 40.1746 212.248 39.7524C211.889 39.7524 211.53 39.7524 211.16 39.7524C211.093 39.3635 211.025 38.9747 210.956 38.5741C210.681 37.1015 210.681 37.1015 209.528 35.6762C209.528 35.1717 209.528 34.6673 209.528 34.1476C209.169 34.1476 208.81 34.1476 208.44 34.1476C207.635 33.3455 207.635 33.3455 206.706 32.2687C203.034 28.2291 199.13 26.3543 193.49 25.8823C191.901 25.7752 190.311 25.6917 188.72 25.6131C188.183 25.5783 187.647 25.5434 187.094 25.5076C182.093 25.2669 178.028 26.2349 173.658 28.5428C173.171 28.795 172.683 29.0473 172.181 29.3071C171.034 29.9936 170.224 30.7054 169.272 31.6C168.913 31.6 168.554 31.6 168.184 31.6C168.083 31.9363 167.982 32.2725 167.878 32.619C166.682 34.9573 165.698 36.823 163.288 38.2238C159.228 38.9725 154.798 38.4225 150.776 37.7143C150.776 37.378 150.776 37.0417 150.776 36.6952C150.372 36.5481 149.968 36.401 149.552 36.2494C148.291 35.7663 147.088 35.2439 145.88 34.6571C145.88 34.3208 145.88 33.9845 145.88 33.6381C145.521 33.6381 145.162 33.6381 144.792 33.6381C144.258 32.0827 144.258 31.1173 144.792 29.5619C145.151 29.5619 145.51 29.5619 145.88 29.5619C145.88 29.0574 145.88 28.553 145.88 28.0333C146.239 28.0333 146.598 28.0333 146.968 28.0333C146.968 27.5289 146.968 27.0244 146.968 26.5047C147.327 26.5047 147.686 26.5047 148.056 26.5047C148.258 25.953 148.258 25.953 148.464 25.3902C149.972 22.2127 152.76 19.926 155.672 17.8428C156.48 17.5906 156.48 17.5906 157.304 17.3333C157.483 16.997 157.663 16.6607 157.848 16.3143C158.56 15.7887 159.285 15.2772 160.024 14.7857C159.485 14.4704 158.947 14.1551 158.392 13.8303C157.853 13.473 157.315 13.1157 156.76 12.7476C156.76 12.4113 156.76 12.075 156.76 11.7285C156.446 11.6865 156.132 11.6445 155.808 11.6012C154.184 11.0941 153.455 10.4422 152.408 9.18092C152.102 7.93896 152.102 7.93896 152.408 6.6333C153.564 5.39134 153.564 5.39134 155.128 4.08569C155.673 3.5455 156.217 3.00411 156.76 2.46158C159.73 -0.270631 161.64 -0.0641743 165.464 1.02854Z" fill="#21D926"/>
<path d="M277.188 37.1729C278.025 37.1788 278.862 37.1844 279.699 37.19C280.426 37.1949 281.153 37.1998 281.88 37.2048C281.893 39.7352 281.903 42.2656 281.91 44.796C281.913 45.6575 281.916 46.519 281.921 47.3804C281.928 48.6161 281.931 49.8517 281.933 51.0873C281.936 51.4747 281.939 51.8622 281.942 52.2614C281.942 53.1872 281.914 54.1129 281.88 55.0381C281.336 55.5476 281.336 55.5476 279.379 55.5974C278.569 55.594 277.76 55.5879 276.95 55.5795C276.331 55.576 276.331 55.576 275.699 55.5725C274.677 55.5665 273.654 55.5573 272.632 55.5476C272.632 55.8839 272.632 56.2202 272.632 56.5667C272.071 56.6928 271.51 56.8189 270.932 56.9488C268.857 57.4984 267.319 58.4523 265.56 59.6238C265.156 59.7709 264.752 59.9181 264.336 60.0696C262.863 60.9563 262.722 62.1696 262.296 63.7C261.937 63.7 261.578 63.7 261.208 63.7C261.208 64.3726 261.208 65.0451 261.208 65.7381C260.849 65.7381 260.49 65.7381 260.12 65.7381C260.12 66.9151 260.12 68.0921 260.12 69.3048C259.761 69.3048 259.402 69.3048 259.032 69.3048C259.032 82.0836 259.032 94.8625 259.032 108.029C252.928 108.029 246.825 108.029 240.536 108.029C240.536 84.8248 240.536 61.6211 240.536 37.7143C246.46 37.7143 252.384 37.7143 258.488 37.7143C259.51 38.6713 259.245 40.2819 259.338 41.5676C259.384 42.1777 259.429 42.7879 259.476 43.4166C259.509 43.8888 259.542 44.3611 259.576 44.8476C260.002 44.3432 260.429 43.8388 260.868 43.319C261.575 42.5624 261.575 42.5624 262.296 41.7905C262.655 41.7905 263.014 41.7905 263.384 41.7905C263.384 41.4542 263.384 41.1179 263.384 40.7714C263.743 40.7714 264.102 40.7714 264.472 40.7714C264.472 40.4351 264.472 40.0988 264.472 39.7524C265.011 39.7524 265.549 39.7524 266.104 39.7524C266.104 39.4161 266.104 39.0798 266.104 38.7333C267.002 38.7333 267.899 38.7333 268.824 38.7333C268.824 38.397 268.824 38.0608 268.824 37.7143C271.638 37.1726 274.332 37.1454 277.188 37.1729Z" fill="#21DA26"/>
<path d="M165.464 1.02854C165.464 1.36483 165.464 1.70111 165.464 2.04759C166.182 2.04759 166.9 2.04759 167.64 2.04759C167.64 2.38388 167.64 2.72016 167.64 3.06664C167.977 3.1402 168.313 3.21376 168.66 3.28955C169.816 3.57616 169.816 3.57616 170.904 4.08569C170.904 4.42197 170.904 4.75826 170.904 5.10473C171.297 5.20982 171.689 5.31491 172.094 5.42319C174.127 6.35433 174.98 7.50173 176.344 9.18092C175.181 10.2699 174.616 10.4639 173.08 10.9006C169.807 11.8747 166.639 13.076 163.483 14.3438C161.872 14.8986 161.103 14.7702 159.48 14.2762C157.95 13.5437 157.95 13.5437 156.76 12.7476C156.76 12.4113 156.76 12.075 156.76 11.7285C156.289 11.6655 156.289 11.6655 155.808 11.6012C154.184 11.0941 153.455 10.4422 152.408 9.18092C152.102 7.93896 152.102 7.93896 152.408 6.6333C153.564 5.39134 153.564 5.39134 155.128 4.08569C155.673 3.5455 156.217 3.00411 156.76 2.46158C159.73 -0.270631 161.64 -0.0641743 165.464 1.02854Z" fill="#013038"/>
<path d="M107.8 34.6571C108.605 34.715 109.41 34.78 110.214 34.8482C110.662 34.8836 111.11 34.9191 111.572 34.9557C112.128 35.0601 112.128 35.0601 112.696 35.1666C112.875 35.5029 113.055 35.8392 113.24 36.1857C113.778 36.3538 114.317 36.522 114.872 36.6952C114.396 38.6696 114.396 38.6696 113.784 39.2428C113.658 40.0146 113.56 40.7905 113.478 41.5675C113.432 41.9885 113.387 42.4095 113.34 42.8433C113.307 43.1684 113.274 43.4936 113.24 43.8285C113.599 43.8285 113.958 43.8285 114.328 43.8285C114.328 44.1648 114.328 44.5011 114.328 44.8476C114.687 44.8476 115.046 44.8476 115.416 44.8476C115.595 45.1839 115.775 45.5202 115.96 45.8666C118.899 46.4265 120.755 46.4801 123.576 45.3571C123.935 43.6757 124.294 41.9942 124.664 40.2619C125.562 40.2619 126.459 40.2619 127.384 40.2619C127.384 40.5982 127.384 40.9344 127.384 41.2809C128.461 41.2809 129.538 41.2809 130.648 41.2809C130.404 43.7967 129.291 45.6524 127.384 47.3952C123.49 49.6021 117.936 49.5491 113.614 48.667C111.423 47.8931 110.134 46.6683 108.888 44.8476C108.888 44.5113 108.888 44.175 108.888 43.8285C108.529 43.8285 108.17 43.8285 107.8 43.8285C106.969 40.9087 106.776 37.5329 107.8 34.6571Z" fill="#E7EBEC"/>
<path d="M130.648 41.281C130.827 41.281 131.007 41.281 131.192 41.281C131.104 43.658 131.005 45.2815 129.254 47.0768C126.096 49.6256 122.522 49.5181 118.544 49.5608C118.164 49.5656 117.785 49.5705 117.394 49.5754C115.378 49.5632 113.863 49.4555 112.152 48.4143C112.331 48.0781 112.511 47.7418 112.696 47.3953C112.98 47.5602 113.264 47.725 113.557 47.8949C117.281 49.3658 122.661 48.8185 126.383 47.455C128.511 46.2446 129.778 44.4055 130.444 42.1866C130.545 41.7383 130.545 41.7383 130.648 41.281Z" fill="#56757C"/>
<path d="M149.688 71.3429C147.737 72.4045 145.767 72.7703 143.568 73.1899C142.537 73.3889 142.537 73.3889 141.485 73.5919C140.961 73.6905 140.436 73.789 139.896 73.8905C140.076 73.2179 140.255 72.5453 140.44 71.8524C141.471 71.7661 142.503 71.6815 143.534 71.5976C144.108 71.5503 144.683 71.5031 145.274 71.4543C146.754 71.357 148.206 71.3223 149.688 71.3429Z" fill="#107F30"/>
<path d="M124.664 40.262C125.562 40.262 126.459 40.262 127.384 40.262C127.384 40.5982 127.384 40.9345 127.384 41.281C128.461 41.281 129.538 41.281 130.648 41.281C130.469 41.9536 130.289 42.6262 130.104 43.3191C130.104 42.8147 130.104 42.3102 130.104 41.7905C129.588 41.801 129.072 41.8116 128.54 41.8224C126.84 41.7905 126.84 41.7905 125.752 41.281C125.752 41.7854 125.752 42.2899 125.752 42.8096C125.393 42.8096 125.034 42.8096 124.664 42.8096C124.664 41.9689 124.664 41.1282 124.664 40.262Z" fill="#AAB9BC"/>
<path d="M45.24 45.8667C46.328 46.3762 46.328 46.3762 46.328 46.3762L45.24 45.8667Z" fill="#002638"/>
</svg>
