<svg width="238" height="218" viewBox="0 0 238 218" fill="none" xmlns="http://www.w3.org/2000/svg">
<path d="M29.3424 0.739265C30.5437 0.733526 30.5437 0.733526 31.7693 0.727672C34.4321 0.717417 37.0948 0.72132 39.7576 0.725303C41.6752 0.720952 43.5928 0.715768 45.5104 0.709815C50.7046 0.696452 55.8987 0.695844 61.0929 0.698379C65.4343 0.69945 69.7758 0.694561 74.1172 0.689773C84.3613 0.678688 94.6053 0.678235 104.849 0.684287C115.407 0.690329 125.964 0.67801 136.522 0.656717C145.597 0.639089 154.673 0.633102 163.748 0.636355C169.164 0.638166 174.579 0.635551 179.995 0.62164C185.088 0.609047 190.181 0.611021 195.274 0.624051C197.139 0.626413 199.004 0.623697 200.869 0.615428C222.927 0.524722 222.927 0.524723 230.375 7.24996C231.002 7.79137 231.628 8.33277 232.273 8.89059C236.477 14.0261 237.445 19.2556 237.394 25.7353C237.401 26.4829 237.407 27.2306 237.413 28.0008C237.429 30.4896 237.425 32.9778 237.42 35.4665C237.427 37.2575 237.436 39.0485 237.446 40.8395C237.468 45.6928 237.471 50.5459 237.469 55.3993C237.469 59.455 237.477 63.5106 237.486 67.5662C237.505 77.1357 237.508 86.7051 237.501 96.2746C237.494 106.139 237.517 116.002 237.554 125.866C237.585 134.344 237.596 142.821 237.592 151.299C237.59 156.358 237.596 161.418 237.62 166.477C237.643 171.236 237.641 175.993 237.62 180.752C237.617 182.495 237.622 184.238 237.636 185.981C237.716 196.338 237.326 202.923 230.227 211.023C229.698 211.469 229.17 211.915 228.625 212.375C228.102 212.836 227.578 213.298 227.039 213.773C221.64 217.021 215.857 217.292 209.702 217.261C208.894 217.264 208.086 217.268 207.253 217.272C204.559 217.283 201.866 217.279 199.172 217.275C197.235 217.279 195.298 217.284 193.361 217.29C188.109 217.303 182.857 217.304 177.605 217.302C173.216 217.3 168.828 217.305 164.439 217.31C154.083 217.321 143.727 217.322 133.372 217.316C122.698 217.31 112.024 217.322 101.35 217.343C92.1767 217.361 83.0037 217.367 73.8307 217.364C68.3559 217.362 62.8812 217.364 57.4065 217.378C52.2567 217.391 47.1072 217.389 41.9574 217.376C40.0713 217.374 38.1851 217.376 36.299 217.384C33.7165 217.395 31.1346 217.387 28.5521 217.374C27.8127 217.382 27.0732 217.389 26.3114 217.397C19.704 217.329 13.4866 215.978 8.25004 211.812C7.50754 210.884 6.76504 209.956 6.00004 209C5.5741 208.537 5.14816 208.074 4.70931 207.597C-0.796476 200.584 0.299741 191.774 0.353072 183.328C0.346291 181.527 0.337385 179.726 0.326522 177.925C0.303782 173.049 0.312543 168.173 0.328417 163.297C0.341104 158.187 0.329328 153.076 0.321486 147.966C0.312398 139.385 0.324356 130.804 0.348189 122.223C0.375399 112.311 0.366584 102.401 0.339057 92.4893C0.316344 83.9693 0.313177 75.4494 0.326251 66.9294C0.334033 61.8453 0.33512 56.7614 0.318568 51.6773C0.304091 46.8968 0.314204 42.1168 0.343039 37.3363C0.349633 35.5852 0.347782 33.8341 0.336726 32.083C0.277165 21.6893 0.712999 15.1543 7.73833 6.97652C8.25782 6.53051 8.77731 6.08449 9.31254 5.62496C9.8243 5.16348 10.3361 4.70199 10.8633 4.22652C16.5438 0.965701 22.9587 0.706359 29.3424 0.739265ZM24 46C24 94.51 24 143.02 24 193C86.7 193 149.4 193 214 193C214 144.49 214 95.98 214 46C151.3 46 88.6 46 24 46Z" fill="#CD54CA"/>
<path d="M97.5 64.8751C101.295 64.9163 105.09 64.9576 109 65.0001C109 72.9201 109 80.84 109 89C102.07 89 95.14 89 88 89C88.0825 91.1244 88.165 93.2488 88.25 95.4375C88.2279 102.742 87.4624 108.43 82.2461 113.809C80.5461 115.289 78.801 116.647 77 118C76.34 118.66 75.68 119.32 75 120C75.7792 120.476 75.7792 120.476 76.5742 120.961C82.4798 124.913 86.0855 129.07 88 136C88.3879 141.133 88.2358 145.812 88 151C94.93 151 101.86 151 109 151C109 158.59 109 166.18 109 174C104.833 174.081 100.667 174.141 96.5 174.188C95.327 174.213 94.1539 174.238 92.9453 174.264C83.9465 174.34 76.7457 173.558 70 167C66.5249 162.521 65.3307 158.704 64.625 153.188C63.5483 146.41 61.9401 141.049 57 136C52.4181 132.912 48.6133 132.403 43 131C43 123.41 43 115.82 43 108C46.63 107.01 50.26 106.02 54 105C60.0275 101.384 62.1763 96.5691 64 90C64.1877 88.4629 64.3359 86.9203 64.4375 85.375C65.0237 77.9889 69.549 73.0188 74.8633 68.2266C81.8528 64.2143 89.7078 64.7548 97.5 64.8751Z" fill="white"/>
<path d="M129 65C132.774 64.9381 136.549 64.8762 140.438 64.8125C141.609 64.7852 142.78 64.7578 143.986 64.7297C153.812 64.6524 161.121 66.2361 168.344 73.1289C172.277 77.5719 173.075 82.2492 173.875 87.9375C174.964 95.0666 177.29 99.6598 182.75 104.375C186.783 106.556 186.783 106.556 195 108C195 115.59 195 123.18 195 131C191.7 131.99 188.4 132.98 185 134C179.898 136.645 177.317 139.82 175 145C174.424 147.687 173.974 150.229 173.625 152.937C172.418 160.476 170.465 165.724 164.195 170.324C159.039 173.478 154.861 174.127 148.922 174.098C147.762 174.094 146.602 174.091 145.406 174.088C144.2 174.079 142.993 174.071 141.75 174.062C140.528 174.058 139.306 174.053 138.047 174.049C135.031 174.037 132.016 174.019 129 174C129 166.41 129 158.82 129 151C135.93 151 142.86 151 150 151C149.845 147.597 149.845 147.597 149.688 144.125C149.586 137.116 150.606 131.605 155 126C157.506 123.698 160.097 121.772 163 120C162.299 119.484 161.598 118.969 160.875 118.437C155.564 113.935 151.767 109.87 150 103C149.749 98.3153 149.911 93.6962 150 89C143.07 89 136.14 89 129 89C129 81.08 129 73.16 129 65Z" fill="white"/>
</svg>
