<svg width="193" height="257" viewBox="0 0 193 257" fill="none" xmlns="http://www.w3.org/2000/svg">
<path d="M135.875 41C149.276 51.4232 159.244 65.4586 162.566 82.3164C163.98 94.323 164.027 106.493 160 118C159.722 118.844 159.443 119.689 159.156 120.559C155.582 130.433 150.164 138.071 142.563 145.187C128.743 158.33 125.681 174.508 124 193C105.52 193 87.04 193 68 193C67.67 188.38 67.34 183.76 67 179C64.3395 164.537 58.9533 155.519 49 145C34.1429 129.224 28.5142 112.437 28.7852 90.9922C28.9656 85.0016 30 79.6503 32 74C32.3171 73.0319 32.6342 72.0638 32.961 71.0664C39.0723 54.401 52.2558 41.7347 68 34C90.683 25.0247 115.644 26.9261 135.875 41Z" fill="#FCC422"/>
<path d="M96 30C96 83.46 96 136.92 96 192C87.09 192 78.18 192 69 192C68.67 185.4 68.34 178.8 68 172C67.34 172 66.68 172 66 172C65.6223 170.984 65.2446 169.968 64.8555 168.922C60.8008 158.581 55.7628 151.807 48 144C32.9409 127.338 28.2024 110.341 28.8638 88.3818C29.1532 83.3207 30.3159 78.7579 32 74C32.3171 73.0319 32.6342 72.0638 32.9609 71.0664C39.4705 53.315 53.6158 40.9391 70.332 32.875C73.9932 31.6743 77.6166 31.28 81.4375 30.875C82.1755 30.7886 82.9135 30.7023 83.6738 30.6133C87.8585 30.1446 91.7444 30 96 30Z" fill="#E39E1F"/>
<path d="M155.988 21.5C175.961 39.0904 189.513 60.6286 191.875 87.6445C193.256 113.671 186.484 139.143 169 159C157.652 171.332 157.652 171.332 151.238 175.527C147.823 177.879 146.651 180.155 145.312 184.125C142.95 191.015 142.95 191.015 139 193C135.766 193.293 135.766 193.293 132.25 193.187C131.08 193.16 129.909 193.133 128.703 193.105C127.811 193.071 126.919 193.036 126 193C126.337 182.879 130.174 174.526 137.25 167.25C140.389 164.317 143.677 161.642 147.062 159C158.649 149.906 166.751 137.701 172 124C172.394 122.973 172.789 121.945 173.195 120.887C179.718 100.748 177.344 78.5074 168.25 59.6875C164.899 53.1405 160.991 47.4287 156 42C154.969 40.8495 154.969 40.8495 153.918 39.6758C140.406 25.3362 121.864 16.63 102.199 15.6133C79.2312 14.951 58.6687 20.779 41 36C30.8148 45.6692 23.5729 57.7664 19 71C18.6803 71.9229 18.3606 72.8459 18.0312 73.7969C11.9993 94.9087 15.4639 118.289 25.8555 137.332C32.1767 148.388 39.8924 156.711 49.9336 164.391C57.7845 170.505 63.1507 178.502 66 188C66.0428 189.666 66.0517 191.334 66 193C55.2002 193.775 55.2002 193.775 51 191.062C49.3313 188.507 48.3833 186.488 47.3125 183.687C44.8621 177.677 40.1286 174.693 35 171C32.9239 169.39 30.9599 167.754 29 166C29 165.34 29 164.68 29 164C28.01 163.67 27.02 163.34 26 163C8.43825 143.98 -0.561369 118.673 0.0234339 92.9284C0.941273 70.9819 8.49691 52.1877 22 35C22.843 33.8804 22.843 33.8804 23.7031 32.7383C37.5468 15.5036 60.7113 4.01393 82.3828 1.28513C109.047 -0.816873 134.974 3.91914 155.988 21.5Z" fill="#FCC82F"/>
<path d="M178 46C191.058 70.0845 196.052 96.0772 188.427 122.969C182.23 143.439 169.438 163.621 151.238 175.527C147.823 177.879 146.651 180.155 145.312 184.125C142.95 191.015 142.95 191.015 139 193C135.766 193.293 135.766 193.293 132.25 193.188C131.08 193.16 129.909 193.133 128.703 193.105C127.811 193.071 126.919 193.036 126 193C126.337 182.879 130.174 174.526 137.25 167.25C140.389 164.317 143.677 161.642 147.062 159C158.649 149.906 166.751 137.701 172 124C172.394 122.973 172.789 121.945 173.195 120.887C179.564 101.225 177.487 79.3146 168.688 60.875C168.155 59.8618 167.623 58.8486 167.074 57.8047C165.848 54.6022 165.732 53.1736 167 50C168.742 48.6367 168.742 48.6367 170.875 47.6875C171.574 47.3614 172.272 47.0352 172.992 46.6992C175 46 175 46 178 46Z" fill="#DA982F"/>
<path d="M64.4531 199.596C65.5877 199.586 65.5877 199.586 66.7453 199.575C69.247 199.557 71.7482 199.561 74.25 199.566C75.9873 199.562 77.7246 199.557 79.4619 199.551C83.1036 199.542 86.7451 199.544 90.3867 199.554C95.0579 199.565 99.7282 199.545 104.399 199.516C107.987 199.498 111.574 199.498 115.162 199.504C116.884 199.504 118.607 199.498 120.329 199.485C122.736 199.471 125.141 199.481 127.547 199.498C128.261 199.489 128.975 199.479 129.71 199.469C132.917 199.517 134.578 199.605 136.966 201.84C138.472 204.986 138.112 206.735 137 210C133 213.184 129.412 213.402 124.488 213.281C123.749 213.274 123.01 213.268 122.249 213.262C119.818 213.238 117.388 213.192 114.957 213.145C113.265 213.122 111.573 213.1 109.881 213.079C106.341 213.032 102.802 212.974 99.262 212.909C94.719 212.826 90.1761 212.765 85.6327 212.711C82.142 212.668 78.6515 212.615 75.1609 212.559C73.4852 212.533 71.8094 212.509 70.1335 212.488C67.7968 212.457 65.4607 212.414 63.1243 212.366C62.4287 212.36 61.7331 212.353 61.0164 212.346C56.2288 212.229 56.2288 212.229 54 210C53.4449 203.894 53.4449 203.894 55.0537 201.303C58.0134 199.322 61.0105 199.574 64.4531 199.596Z" fill="#57504C"/>
<path d="M12 140C17.0115 139.218 22.0753 138.508 27 140C30.7252 143.345 33.1341 147.146 35.8262 151.329C39.8681 157.084 46.0378 161.315 51.6875 165.375C58.9746 170.934 63.4531 179.311 66 188C66.0406 189.666 66.0487 191.334 66 193C55.2002 193.775 55.2002 193.775 51 191.062C49.3313 188.507 48.3833 186.488 47.3125 183.687C44.8622 177.677 40.1286 174.693 35 171C32.9239 169.39 30.9599 167.754 29 166C29 165.34 29 164.68 29 164C28.01 163.67 27.02 163.34 26 163C24.2572 160.992 22.6504 158.999 21.0625 156.875C20.6326 156.318 20.2027 155.761 19.7598 155.187C12 144.967 12 144.967 12 140Z" fill="#D39130"/>
<path d="M74.9746 233.725C75.9857 233.716 76.9969 233.706 78.0387 233.696C79.6747 233.698 79.6747 233.698 81.3437 233.699C82.4644 233.695 83.585 233.691 84.7396 233.686C87.1101 233.681 89.4806 233.68 91.851 233.684C95.4856 233.688 99.1194 233.664 102.754 233.639C105.055 233.636 107.355 233.636 109.656 233.637C110.747 233.628 111.838 233.618 112.961 233.609C113.972 233.615 114.984 233.621 116.025 233.628C117.361 233.627 117.361 233.627 118.723 233.626C121.475 234.078 122.328 234.81 124 237C124.875 239.438 124.875 239.438 125 242C123.809 244.105 123.809 244.105 122 246C119.73 246.617 119.73 246.617 117.187 246.875C112.394 247.64 110.482 249.022 107.348 252.602C104.134 255.937 99.885 256.129 95.5 256.313C89.7861 256.159 86.3761 254.227 82.125 250.438C80 248 80 248 80 246C79.3129 246.035 78.6258 246.07 77.9179 246.105C77.0169 246.133 76.1158 246.16 75.1875 246.188C74.2941 246.222 73.4008 246.257 72.4804 246.293C70 246 70 246 68.1992 244.711C66.2073 241.869 66.6357 239.339 67 236C70.2592 233.827 71.2017 233.745 74.9746 233.725Z" fill="#534B47"/>
<path d="M68.5352 216.725C69.194 216.72 69.8529 216.715 70.5317 216.71C72.7087 216.696 74.8854 216.697 77.0625 216.699C78.5756 216.695 80.0887 216.691 81.6018 216.686C84.7727 216.679 87.9434 216.679 91.1143 216.684C95.1799 216.69 99.2451 216.673 103.311 216.65C106.435 216.635 109.559 216.634 112.684 216.637C114.183 216.637 115.682 216.632 117.181 216.622C119.276 216.609 121.37 216.616 123.465 216.628C124.657 216.627 125.849 216.626 127.078 216.626C130 217 130 217 131.877 218.305C133.818 221.236 133.483 223.619 133 227C129.287 229.943 126.388 230.375 121.729 230.372C120.484 230.379 119.239 230.385 117.956 230.391C116.606 230.383 115.256 230.373 113.906 230.363C112.513 230.363 111.12 230.363 109.726 230.365C106.811 230.365 103.896 230.354 100.981 230.336C97.2519 230.314 93.5232 230.313 89.7941 230.32C86.9184 230.323 84.0428 230.316 81.1672 230.307C79.7925 230.303 78.4178 230.302 77.0432 230.303C75.1192 230.304 73.1953 230.289 71.2715 230.275C70.1785 230.27 69.0855 230.265 67.9594 230.261C63.7747 229.892 60.9831 228.983 58 226C58.1875 222.5 58.1875 222.5 59 219C62.6036 216.598 64.2493 216.742 68.5352 216.725Z" fill="#5E5753"/>
<path d="M127 46C138.545 52.1746 147.985 63.1049 151.816 75.6797C152.844 80.4086 153.591 85.1763 153 90C151.375 92 151.375 92 149 93C145.938 93.125 145.938 93.125 143 92C141.211 88.8852 140.288 86.0791 139.367 82.6289C136.244 71.1234 129.855 63.57 120 57C118 55 118 55 117.5 51.375C117.748 49.7044 117.748 49.7044 118 48C121.52 45.6536 122.856 45.5481 127 46Z" fill="#FDFBF6"/>
<path d="M81 246C90.57 246 100.14 246 110 246C108.806 251.968 108.806 251.968 106 254C99.9816 256.723 93.9276 256.939 87.6875 254.938C85 253 85 253 81 246Z" fill="#46403C"/>
<path d="M105.937 38.625C108.881 38.7051 109.688 38.7372 112 40.6875C113.199 43.4593 113.523 45.0138 113 48C111.375 50.3125 111.375 50.3125 109 52C105.341 52.6098 103.695 52.4454 100.562 50.4375C99 48 99 48 99.125 44.375C100.371 39.5683 100.94 39.101 105.937 38.625Z" fill="#FDF9F0"/>
<path d="M20 127C21.5607 129.341 22.8637 131.563 24.125 134.062C24.4782 134.755 24.8314 135.447 25.1953 136.16C26 138 26 138 26 140C21.05 140.33 16.1 140.66 11 141C10.34 139.02 9.68 137.04 9 135C13.1774 133.409 16.5316 132.787 21 133C20.67 131.02 20.34 129.04 20 127Z" fill="#FBDF7B"/>
<path d="M74.9905 233.757C76.0049 233.754 77.0192 233.751 78.0643 233.748C79.1582 233.755 80.252 233.762 81.3789 233.77C83.0634 233.77 83.0634 233.77 84.782 233.771C87.1567 233.774 89.5313 233.782 91.906 233.794C95.5513 233.812 99.1964 233.815 102.842 233.814C105.146 233.819 107.45 233.825 109.754 233.832C111.398 233.834 111.398 233.834 113.075 233.835C114.086 233.842 115.097 233.848 116.139 233.855C117.031 233.859 117.924 233.862 118.844 233.866C121 234 121 234 123 235C122.67 235.66 122.34 236.32 122 237C121.433 236.838 120.867 236.677 120.283 236.51C117.941 235.987 115.875 235.86 113.479 235.839C112.591 235.829 111.703 235.82 110.788 235.81C109.837 235.805 108.886 235.801 107.906 235.797C106.923 235.791 105.939 235.785 104.925 235.78C102.848 235.77 100.77 235.764 98.6919 235.76C95.5118 235.75 92.3323 235.719 89.1523 235.687C87.1328 235.681 85.1133 235.676 83.0938 235.672C82.1426 235.66 81.1915 235.647 80.2115 235.634C79.3238 235.637 78.4361 235.64 77.5215 235.644C76.743 235.64 75.9645 235.636 75.1625 235.632C72.4183 236.099 71.053 237.154 69 239C67.7484 241.083 67.7484 241.083 67 243C66.8125 239.625 66.8125 239.625 67 236C70.2726 233.818 71.202 233.751 74.9905 233.757Z" fill="#948F8D"/>
<path d="M36 21C36.66 21.33 37.32 21.66 38 22C28.2313 33.4783 28.2313 33.4783 23 38C22.34 38 21.68 38 21 38C24.3072 30.8887 29.9835 25.8595 36 21Z" fill="#FCD45E"/>
<path d="M24 136C24.66 137.32 25.32 138.64 26 140C21.05 140.33 16.1 140.66 11 141C11.33 140.01 11.66 139.02 12 138C14.4339 136.783 16.4184 136.68 19.125 136.438C20.0351 136.354 20.9452 136.27 21.8828 136.184C22.9308 136.093 22.9308 136.093 24 136Z" fill="#FBEBAF"/>
<path d="M142 163C142.66 163.33 143.32 163.66 144 164C139.965 168.811 135.955 173.132 131 177C132.389 172.703 134.38 170.293 137.625 167.188C138.442 166.397 139.26 165.607 140.102 164.793C141.041 163.905 141.041 163.905 142 163Z" fill="#E8BE7A"/>
<path d="M52 44C52.66 44.33 53.32 44.66 54 45C53.0488 46.1725 52.0888 47.3379 51.125 48.5C50.5913 49.1497 50.0577 49.7994 49.5078 50.4688C49.0102 50.9741 48.5127 51.4794 48 52C47.34 52 46.68 52 46 52C46 52.66 46 53.32 46 54C45.34 53.67 44.68 53.34 44 53C45.1454 51.6871 46.2913 50.3747 47.4375 49.0625C48.0756 48.3316 48.7137 47.6007 49.3711 46.8477C50.2254 45.8786 51.0865 44.9135 52 44Z" fill="#EFC87F"/>
<path d="M70.5625 234.938C71.7691 234.968 71.7691 234.968 73 235C72.3813 235.577 71.7625 236.155 71.125 236.75C69.1865 238.802 68.0999 240.434 67 243C66.9576 240.667 66.9591 238.333 67 236C68 235 68 235 70.5625 234.938Z" fill="#76706D"/>
</svg>
