<svg width="199" height="190" viewBox="0 0 199 190" fill="none" xmlns="http://www.w3.org/2000/svg">
<path d="M99.0902 0.811829C99.3546 0.812257 99.6191 0.812472 99.8836 0.812671C102.417 0.815443 104.936 0.843495 107.46 1.064C107.621 1.0776 107.782 1.09119 107.944 1.10475C111.471 1.40536 114.967 1.8711 118.445 2.508C118.509 2.51981 118.574 2.53161 118.64 2.54378C123.029 3.35134 127.35 4.48329 131.574 5.87416C131.733 5.92628 131.891 5.97802 132.05 6.02964C135.452 7.13723 138.759 8.49033 142.006 9.956C142.094 9.99551 142.182 10.035 142.272 10.0757C143.295 10.5366 144.307 11.0107 145.303 11.5224C145.533 11.6405 145.764 11.7574 145.995 11.8744C147.177 12.4748 148.338 13.1031 149.489 13.756C149.559 13.7958 149.63 13.8356 149.702 13.8765C149.905 13.9912 150.107 14.1062 150.31 14.2215C150.366 14.2533 150.421 14.285 150.479 14.3177C151.658 14.9936 152.811 15.7098 153.955 16.4388C154.15 16.5633 154.346 16.6873 154.542 16.8113C155.369 17.3369 156.18 17.8811 156.983 18.4411C157.17 18.5717 157.359 18.7009 157.547 18.8299C158.241 19.3053 158.925 19.7894 159.598 20.292C159.687 20.358 159.776 20.424 159.864 20.49C160.81 21.1943 161.743 21.9139 162.656 22.6567C162.924 22.8745 163.195 23.0877 163.468 23.2988C163.848 23.5933 164.209 23.9029 164.569 24.2188C164.739 24.3674 164.911 24.5132 165.085 24.6573C165.396 24.9148 165.698 25.1799 166.001 25.4459C166.252 25.6669 166.506 25.8849 166.762 26.1013C167.108 26.3969 167.436 26.7065 167.76 27.0238C167.972 27.2294 168.189 27.4234 168.418 27.6115C168.786 27.9159 169.13 28.2416 169.473 28.5713C169.534 28.629 169.595 28.6868 169.658 28.7463C169.989 29.063 170.305 29.3869 170.611 29.726C170.816 29.9483 171.037 30.1547 171.259 30.362C171.581 30.6657 171.893 30.9714 172.186 31.301C172.345 31.4763 172.51 31.6459 172.676 31.8155C173.078 32.2265 173.461 32.6456 173.83 33.0843C174.014 33.2981 174.207 33.5022 174.404 33.706C174.755 34.0717 175.086 34.4495 175.412 34.8359C175.532 34.9763 175.653 35.1154 175.774 35.2545C176.334 35.8973 176.877 36.5493 177.406 37.216C177.63 37.4983 177.858 37.7772 178.088 38.0557C178.579 38.6528 179.048 39.2607 179.502 39.884C179.652 40.0901 179.805 40.2938 179.962 40.4955C182.628 43.9317 184.882 47.6818 186.98 51.452C187.046 51.5699 187.046 51.5699 187.113 51.6901C187.761 52.8498 188.355 54.0274 188.926 55.2229C189.041 55.4616 189.158 55.6991 189.277 55.9363C192.268 61.9484 194.412 68.4353 198.07 94.6847C198.07 94.9373 198.069 95.1898 198.069 95.4423C198.066 97.8608 198.037 100.266 197.806 102.676C197.792 102.83 197.777 102.984 197.763 103.138C197.448 106.505 196.961 109.844 196.294 113.164C196.281 113.226 196.269 113.287 196.256 113.351C195.41 117.541 194.225 121.667 192.768 125.7C192.713 125.851 192.659 126.003 192.605 126.154C191.445 129.402 190.028 132.56 188.493 135.66C188.431 135.786 188.431 135.786 188.367 135.914C187.885 136.89 187.388 137.857 186.852 138.807C186.728 139.027 186.606 139.248 186.483 139.468C185.855 140.597 185.197 141.705 184.513 142.804C184.471 142.871 184.429 142.938 184.386 143.008C184.266 143.201 184.146 143.395 184.025 143.588C183.992 143.641 183.959 143.695 183.924 143.75C183.216 144.875 182.466 145.976 181.703 147.068C181.573 147.255 181.443 147.442 181.313 147.629C180.762 148.419 180.192 149.193 179.606 149.959C179.469 150.138 179.334 150.318 179.199 150.498C178.701 151.161 178.194 151.814 177.667 152.456C177.598 152.541 177.529 152.626 177.46 152.71C176.722 153.613 175.968 154.504 175.19 155.375C174.962 155.631 174.739 155.89 174.518 156.152C174.209 156.514 173.885 156.859 173.554 157.202C173.399 157.365 173.246 157.529 173.095 157.695C172.825 157.992 172.548 158.281 172.269 158.569C172.038 158.809 171.809 159.052 171.583 159.296C171.273 159.626 170.949 159.94 170.617 160.249C170.401 160.451 170.198 160.658 170.001 160.877C169.682 161.229 169.341 161.557 168.996 161.885C168.935 161.943 168.875 162.001 168.812 162.061C168.481 162.377 168.141 162.679 167.786 162.971C167.553 163.167 167.337 163.378 167.12 163.59C166.802 163.897 166.482 164.195 166.137 164.474C165.953 164.627 165.775 164.784 165.598 164.943C165.167 165.327 164.728 165.692 164.269 166.044C164.045 166.22 163.831 166.404 163.618 166.592C163.235 166.928 162.839 167.244 162.434 167.555C162.287 167.669 162.142 167.785 161.996 167.901C161.323 168.435 160.64 168.954 159.942 169.458C159.646 169.672 159.354 169.89 159.062 170.109C158.437 170.578 157.8 171.026 157.147 171.46C156.931 171.603 156.718 171.749 156.507 171.899C152.908 174.444 148.98 176.596 145.031 178.6C144.949 178.642 144.867 178.684 144.782 178.727C143.567 179.345 142.334 179.913 141.082 180.458C140.832 180.568 140.583 180.68 140.334 180.793C134.038 183.648 127.243 185.695 99.7505 189.188C99.4861 189.188 99.2216 189.188 98.9571 189.187C96.4241 189.185 93.9048 189.157 91.3807 188.936C91.2195 188.922 91.0583 188.909 90.8971 188.895C87.3701 188.595 83.8734 188.129 80.3959 187.492C80.2992 187.474 80.2992 187.474 80.2004 187.456C75.8118 186.649 71.4904 185.517 67.2666 184.126C67.108 184.074 66.9493 184.022 66.7905 183.97C63.3891 182.863 60.0817 181.51 56.8343 180.044C56.7027 179.985 56.7027 179.985 56.5683 179.924C55.5459 179.463 54.5336 178.989 53.5379 178.478C53.3076 178.36 53.0766 178.243 52.8456 178.126C51.6639 177.525 50.5026 176.897 49.3519 176.244C49.2816 176.204 49.2112 176.164 49.1387 176.123C48.9359 176.009 48.7334 175.894 48.5311 175.779C48.4752 175.747 48.4193 175.715 48.3616 175.682C47.1825 175.006 46.0295 174.29 44.8858 173.561C44.6903 173.437 44.4946 173.313 44.2987 173.189C43.4713 172.663 42.6604 172.119 41.8581 171.559C41.6706 171.428 41.4821 171.299 41.2934 171.17C40.5995 170.695 39.9153 170.211 39.2427 169.708C39.1539 169.642 39.0651 169.576 38.9763 169.51C38.0306 168.806 37.0978 168.086 36.185 167.343C35.9171 167.125 35.6459 166.912 35.3722 166.701C34.9931 166.407 34.6312 166.097 34.2715 165.781C34.1014 165.633 33.9296 165.487 33.7553 165.343C33.445 165.085 33.1423 164.82 32.8399 164.554C32.5885 164.333 32.3346 164.115 32.0787 163.899C31.733 163.603 31.4045 163.294 31.0806 162.976C30.8691 162.771 30.6518 162.577 30.423 162.389C30.0546 162.084 29.7109 161.758 29.3674 161.429C29.3066 161.371 29.2458 161.313 29.1831 161.254C28.852 160.937 28.5359 160.613 28.2301 160.274C28.0244 160.052 27.8035 159.845 27.5813 159.638C27.2596 159.334 26.9479 159.029 26.6551 158.699C26.4955 158.524 26.3306 158.354 26.1645 158.184C25.7625 157.774 25.3801 157.354 25.0111 156.916C24.8264 156.702 24.6337 156.498 24.4371 156.294C24.0854 155.928 23.7548 155.551 23.4285 155.164C23.3089 155.024 23.1878 154.885 23.0665 154.746C22.5066 154.103 21.9635 153.451 21.435 152.784C21.211 152.502 20.9825 152.223 20.7531 151.944C20.2619 151.347 19.7931 150.739 19.339 150.116C19.1886 149.91 19.0357 149.706 18.8788 149.504C16.2127 146.068 13.959 142.318 11.8603 138.548C11.8164 138.469 11.7725 138.391 11.7272 138.31C11.0801 137.15 10.4856 135.973 9.91457 134.777C9.79959 134.538 9.68229 134.301 9.56376 134.064C6.57312 128.052 4.42888 121.565 0.77063 95.3153C0.771079 95.0627 0.771306 94.8102 0.771514 94.5577C0.774418 92.1393 0.803791 89.7339 1.03474 87.324C1.04899 87.1701 1.06321 87.0162 1.07742 86.8622C1.39227 83.4947 1.88007 80.1562 2.54714 76.836C2.55951 76.7744 2.57188 76.7128 2.58462 76.6494C3.43044 72.4592 4.616 68.3332 6.07276 64.3004C6.12734 64.149 6.18153 63.9975 6.2356 63.8459C7.39565 60.5984 8.81284 57.4405 10.3479 54.34C10.3893 54.2562 10.4307 54.1724 10.4733 54.086C10.9561 53.1099 11.4526 52.1433 11.9885 51.1927C12.1122 50.9728 12.2347 50.7522 12.3572 50.5317C12.9861 49.4034 13.6441 48.2947 14.3279 47.196C14.3696 47.1288 14.4113 47.0616 14.4542 46.9924C14.5743 46.7988 14.6948 46.6055 14.8155 46.4123C14.8654 46.3322 14.8654 46.3322 14.9163 46.2505C15.6242 45.1247 16.3743 44.0238 17.1378 42.9319C17.2682 42.7452 17.3981 42.5583 17.528 42.3713C18.0785 41.5813 18.6485 40.8071 19.2349 40.0411C19.3717 39.8621 19.5071 39.6821 19.6422 39.5019C20.1401 38.8394 20.6471 38.1861 21.1735 37.544C21.2427 37.4592 21.3118 37.3744 21.3809 37.2896C22.1186 36.3867 22.8722 35.496 23.6503 34.6246C23.8784 34.3688 24.1017 34.1098 24.3227 33.8485C24.6312 33.4865 24.9555 33.141 25.2863 32.7976C25.442 32.6352 25.5947 32.4712 25.7456 32.3048C26.0153 32.0085 26.293 31.7194 26.5716 31.4308C26.8031 31.1907 27.0313 30.9483 27.258 30.704C27.5676 30.3738 27.8919 30.0603 28.2242 29.751C28.4396 29.5491 28.6427 29.3416 28.8397 29.1231C29.1586 28.7714 29.4997 28.4433 29.845 28.1153C29.9055 28.0572 29.9659 27.9992 30.0283 27.9394C30.36 27.6232 30.6992 27.3214 31.0544 27.0295C31.2873 26.8331 31.5035 26.6221 31.7205 26.41C32.0387 26.1028 32.3588 25.8052 32.704 25.5256C32.8877 25.3733 33.0652 25.2158 33.2429 25.0573C33.6733 24.6734 34.1123 24.3083 34.5718 23.956C34.7957 23.7797 35.0095 23.5957 35.2229 23.408C35.606 23.0722 36.0016 22.7565 36.4064 22.4449C36.5534 22.3308 36.6992 22.2152 36.8448 22.0994C37.518 21.5647 38.201 21.0463 38.8992 20.5417C39.1949 20.3277 39.487 20.1096 39.7787 19.8906C40.4041 19.4216 41.0407 18.9739 41.6936 18.5404C41.9094 18.3969 42.1228 18.2508 42.3341 18.1011C45.933 15.5556 49.8608 13.4038 53.8095 11.4C53.933 11.3371 53.933 11.3371 54.0589 11.2729C55.2736 10.6551 56.507 10.0874 57.759 9.54223C58.0091 9.43245 58.2579 9.32046 58.5063 9.20728C64.8031 6.3519 71.5973 4.30463 99.0902 0.811829Z" fill="#083042"/>
<path d="M46.5974 96.0189C47.1368 96.3339 47.4958 96.683 47.8231 97.2007C47.8505 97.2438 47.8778 97.2869 47.9059 97.3313C48.1988 97.7958 48.4801 98.2666 48.76 98.7383C48.8719 98.926 48.9838 99.1137 49.0958 99.3014C49.1239 99.3486 49.152 99.3957 49.1809 99.4442C49.4633 99.9177 49.7482 100.39 50.0336 100.862C50.0825 100.942 50.1314 101.023 50.1818 101.106C50.2804 101.269 50.379 101.432 50.4777 101.595C50.7262 102.006 50.9744 102.417 51.2226 102.828C51.3221 102.993 51.4216 103.157 51.5211 103.322C52.5161 104.969 53.5111 106.615 54.5061 108.262C54.5554 108.344 54.6046 108.425 54.6554 108.509C54.7549 108.674 54.8545 108.839 54.9541 109.003C55.2017 109.413 55.4494 109.823 55.6973 110.233C56.2402 111.13 56.7806 112.029 57.3182 112.929C57.7286 113.616 58.1441 114.3 58.5626 114.982C58.9468 115.609 59.3245 116.24 59.7013 116.872C60.0754 117.498 60.4529 118.123 60.8343 118.745C61.1973 119.338 61.5598 119.931 61.9189 120.527C61.9602 120.594 62.0014 120.662 62.044 120.732C62.0813 120.794 62.1186 120.856 62.1571 120.92C62.2064 121.002 62.2064 121.002 62.2568 121.085C62.3268 121.22 62.3268 121.22 62.3268 121.372C62.3843 121.347 62.4417 121.322 62.5008 121.296C65.2292 120.105 68.0163 119.085 70.854 118.156C70.957 118.122 70.957 118.122 71.0621 118.088C71.9138 117.809 72.7681 117.547 73.634 117.31C73.8768 117.244 74.119 117.176 74.3614 117.109C75.2602 116.86 76.1573 116.617 77.0706 116.421C77.3761 116.355 77.6796 116.283 77.9832 116.209C78.704 116.035 79.4285 115.878 80.1542 115.724C80.3974 115.672 80.6403 115.618 80.8833 115.565C83.3432 115.035 85.8541 114.675 88.356 114.38C88.408 114.374 88.46 114.368 88.5135 114.361C90.6626 114.105 92.8167 113.967 94.9791 113.859C95.1906 113.849 95.402 113.837 95.6134 113.826C96.9579 113.756 98.3032 113.753 99.6493 113.753C99.7112 113.753 99.7732 113.753 99.837 113.753C101.966 113.752 104.079 113.812 106.202 113.982C106.433 114.001 106.663 114.018 106.894 114.036C108.678 114.172 110.456 114.327 112.225 114.583C112.412 114.61 112.598 114.637 112.784 114.663C116.092 115.138 119.415 115.68 122.633 116.566C122.96 116.656 123.29 116.735 123.62 116.815C124.336 116.989 125.044 117.179 125.747 117.397C125.833 117.423 125.918 117.45 126.007 117.477C129.396 118.523 132.716 119.676 135.975 121.051C136.233 121.16 136.493 121.266 136.753 121.372C136.777 121.284 136.777 121.284 136.802 121.195C136.957 120.803 137.18 120.458 137.405 120.099C137.506 119.935 137.608 119.77 137.709 119.606C137.762 119.521 137.814 119.436 137.868 119.349C138.121 118.938 138.37 118.526 138.618 118.114C138.719 117.947 138.819 117.781 138.919 117.615C138.969 117.533 139.019 117.45 139.07 117.365C139.319 116.953 139.568 116.54 139.817 116.128C139.891 116.006 139.891 116.006 139.967 115.881C140.214 115.471 140.462 115.061 140.71 114.651C141.253 113.754 141.793 112.855 142.331 111.955C142.741 111.268 143.157 110.584 143.575 109.902C143.932 109.319 144.283 108.734 144.633 108.148C145.028 107.487 145.425 106.828 145.827 106.172C146.228 105.519 146.624 104.863 147.016 104.206C147.576 103.269 148.139 102.334 148.704 101.401C148.903 101.072 149.101 100.744 149.3 100.415C149.399 100.251 149.498 100.088 149.597 99.924C149.828 99.5413 150.059 99.1585 150.288 98.7745C150.369 98.639 150.45 98.5037 150.531 98.3684C150.632 98.1989 150.734 98.0293 150.834 97.8595C151.355 96.9909 151.895 96.2071 152.912 95.836C153.811 95.6159 154.739 95.6891 155.538 96.14C156.189 96.5738 156.678 97.1548 156.892 97.888C156.926 98.1108 156.932 98.328 156.931 98.553C156.934 98.6079 156.936 98.6627 156.938 98.7193C156.941 99.5921 156.398 100.362 155.946 101.09C155.867 101.219 155.787 101.349 155.708 101.479C155.626 101.613 155.544 101.746 155.462 101.88C155.206 102.296 154.955 102.714 154.703 103.132C154.603 103.297 154.504 103.461 154.404 103.626C154.355 103.708 154.306 103.789 154.255 103.873C147.837 114.494 147.837 114.494 147.688 114.741C147.588 114.906 147.489 115.071 147.389 115.235C147.142 115.645 146.894 116.055 146.646 116.465C146.157 117.272 145.67 118.08 145.187 118.89C144.721 119.67 144.252 120.447 143.777 121.221C143.414 121.815 143.053 122.41 142.693 123.006C142.666 123.05 142.64 123.094 142.612 123.14C142.463 123.387 142.314 123.633 142.166 123.88C142.424 124.085 142.679 124.256 142.973 124.409C143.053 124.451 143.132 124.492 143.213 124.535C143.34 124.601 143.34 124.601 143.469 124.669C144.458 125.191 145.425 125.741 146.384 126.312C146.458 126.355 146.531 126.399 146.606 126.444C147.719 127.108 148.809 127.802 149.887 128.516C149.947 128.556 150.008 128.596 150.071 128.638C151.648 129.686 153.177 130.787 154.665 131.948C154.968 132.184 155.273 132.416 155.582 132.644C156.052 132.992 156.499 133.353 156.935 133.74C157.106 133.89 157.278 134.037 157.454 134.183C157.759 134.436 158.06 134.694 158.36 134.953C158.489 135.064 158.619 135.176 158.749 135.286C159.786 136.171 160.787 137.087 161.769 138.027C161.948 138.198 162.127 138.369 162.307 138.54C162.423 138.651 162.539 138.762 162.655 138.873C162.734 138.948 162.734 138.948 162.815 139.024C163.121 139.318 163.412 139.621 163.696 139.935C163.829 140.082 163.967 140.224 164.107 140.364C164.156 140.413 164.204 140.461 164.254 140.511C164.303 140.561 164.353 140.611 164.404 140.662C164.808 141.07 165.193 141.485 165.56 141.924C165.741 142.136 165.931 142.337 166.125 142.538C166.515 142.943 166.878 143.364 167.24 143.792C167.32 143.885 167.4 143.979 167.481 144.072C168.04 144.722 168.577 145.383 169.101 146.059C169.238 146.235 169.377 146.41 169.516 146.585C171.367 148.92 173.059 151.367 174.619 153.888C174.714 154.039 174.811 154.188 174.911 154.336C174.963 154.416 175.016 154.497 175.07 154.579C175.115 154.646 175.16 154.712 175.206 154.781C175.279 154.964 175.279 154.964 175.238 155.151C175.093 155.388 174.915 155.576 174.717 155.772C174.429 156.062 174.153 156.356 173.891 156.669C173.584 157.033 173.26 157.377 172.925 157.718C172.712 157.934 172.504 158.154 172.3 158.377C172.023 158.682 171.738 158.978 171.448 159.272C171.372 159.351 171.372 159.351 171.293 159.431C170.914 159.814 170.527 160.188 170.134 160.559C169.862 160.817 169.606 161.083 169.357 161.361C169.029 161.719 168.671 162.045 168.294 162.355C167.953 162.638 167.636 162.94 167.319 163.248C166.957 163.6 166.59 163.939 166.199 164.261C165.961 164.458 165.733 164.666 165.503 164.873C165.105 165.228 164.697 165.564 164.271 165.89C164.033 166.078 163.805 166.277 163.578 166.478C163.142 166.864 162.688 167.224 162.225 167.58C162.084 167.691 161.943 167.802 161.802 167.913C161.337 168.276 160.865 168.63 160.391 168.983C160.227 169.106 160.063 169.229 159.898 169.352C156.48 171.911 152.851 174.245 149.091 176.32C149.027 176.355 148.964 176.39 148.898 176.426C145.018 178.568 141.007 180.466 136.863 182.097C136.671 182.173 136.48 182.249 136.288 182.326C135.228 182.747 134.156 183.126 133.071 183.488C132.836 183.567 132.6 183.646 132.365 183.725C132.22 183.773 132.076 183.822 131.931 183.87C131.522 184.007 131.119 184.154 130.717 184.311C130.486 184.398 130.252 184.462 130.012 184.523C129.632 184.623 129.26 184.733 128.887 184.856C128.108 185.11 127.312 185.312 126.518 185.52C126.248 185.591 125.979 185.664 125.711 185.737C121.617 186.845 117.39 187.715 113.168 188.226C112.943 188.253 112.718 188.282 112.493 188.311C111.701 188.413 110.91 188.506 110.114 188.576C109.728 188.611 109.345 188.656 108.96 188.705C108.196 188.799 107.429 188.846 106.661 188.893C106.42 188.907 106.18 188.923 105.939 188.938C105.091 188.991 104.25 189.028 103.4 189.012C103.4 189.062 103.4 189.112 103.4 189.164C94.5558 189.213 94.5558 189.213 91.3808 188.936C91.2196 188.922 91.0584 188.909 90.8972 188.895C87.3702 188.595 83.8735 188.129 80.396 187.492C80.2993 187.474 80.2993 187.474 80.2005 187.456C75.8119 186.649 71.4905 185.517 67.2667 184.126C67.1081 184.074 66.9493 184.022 66.7906 183.97C63.3892 182.863 60.0818 181.51 56.8344 180.044C56.7028 179.985 56.7028 179.985 56.5684 179.924C55.546 179.463 54.5336 178.989 53.538 178.478C53.3077 178.36 53.0767 178.243 52.8457 178.126C51.664 177.525 50.5027 176.897 49.352 176.244C49.2817 176.204 49.2113 176.164 49.1388 176.123C48.936 176.009 48.7335 175.894 48.5312 175.779C48.4752 175.747 48.4193 175.715 48.3617 175.682C47.1826 175.006 46.0296 174.29 44.8859 173.561C44.6904 173.437 44.4946 173.313 44.2988 173.189C43.4714 172.663 42.6605 172.119 41.8582 171.559C41.6707 171.428 41.4822 171.299 41.2935 171.17C40.5995 170.695 39.9154 170.211 39.2428 169.708C39.154 169.642 39.0652 169.576 38.9764 169.51C38.0307 168.806 37.0979 168.086 36.1851 167.343C35.9172 167.125 35.646 166.912 35.3723 166.701C34.9931 166.407 34.6313 166.097 34.2716 165.781C34.1015 165.633 33.9297 165.487 33.7554 165.343C33.4451 165.085 33.1424 164.82 32.84 164.554C32.5886 164.333 32.3347 164.115 32.0788 163.899C31.733 163.603 31.4046 163.294 31.0807 162.976C30.8692 162.771 30.6519 162.577 30.4231 162.389C30.0547 162.084 29.711 161.758 29.3675 161.429C29.2763 161.342 29.2763 161.342 29.1832 161.254C28.852 160.937 28.536 160.613 28.2302 160.274C28.0245 160.052 27.8036 159.845 27.5814 159.638C27.2597 159.334 26.948 159.029 26.6551 158.699C26.4956 158.524 26.3306 158.354 26.1646 158.184C25.7631 157.774 25.3807 157.356 25.0131 156.917C24.7591 156.624 24.4862 156.349 24.2115 156.074C23.9687 155.795 23.7705 155.48 23.7208 155.116C23.7916 154.944 23.7916 154.944 23.9058 154.755C23.9689 154.649 23.9689 154.649 24.0331 154.541C24.1026 154.428 24.1026 154.428 24.1736 154.313C24.2209 154.235 24.2682 154.157 24.3169 154.076C24.7227 153.41 25.1485 152.757 25.5859 152.11C25.7183 151.913 25.8489 151.715 25.9792 151.516C26.563 150.628 27.1717 149.762 27.8086 148.908C27.9325 148.742 28.0551 148.574 28.1772 148.406C28.7692 147.593 29.3932 146.806 30.0257 146.021C30.1476 145.87 30.2691 145.718 30.3901 145.566C31.0891 144.69 31.8179 143.837 32.5663 143C32.7883 142.751 33.0043 142.499 33.2181 142.244C33.5592 141.843 33.925 141.467 34.2968 141.092C34.5254 140.862 34.7498 140.629 34.9674 140.39C35.8361 139.439 36.7671 138.543 37.7022 137.653C37.8867 137.477 38.0708 137.301 38.2548 137.125C38.3742 137.011 38.4937 136.897 38.6132 136.783C38.6671 136.731 38.721 136.68 38.7765 136.627C39.0879 136.331 39.4081 136.049 39.7406 135.775C39.8942 135.648 40.0428 135.517 40.1896 135.383C40.266 135.313 40.266 135.313 40.344 135.243C40.3959 135.195 40.4479 135.148 40.5015 135.1C40.9294 134.713 41.363 134.347 41.8236 133.996C42.0472 133.822 42.2592 133.638 42.4716 133.451C42.7959 133.167 43.1274 132.899 43.4734 132.639C43.7034 132.466 43.9305 132.289 44.1574 132.112C44.7662 131.637 45.3817 131.173 46.0088 130.72C46.0568 130.685 46.1047 130.651 46.1542 130.615C46.5287 130.344 46.9051 130.075 47.2824 129.808C47.3333 129.772 47.3841 129.735 47.4365 129.698C50.437 127.564 53.6607 125.712 56.914 123.956C56.7555 123.677 56.5962 123.398 56.4364 123.12C56.4091 123.072 56.3818 123.025 56.3536 122.976C55.9057 122.195 55.4425 121.424 54.9713 120.656C54.6082 120.064 54.2501 119.47 53.8942 118.874C53.3348 117.937 52.7715 117.002 52.2064 116.069C51.9579 115.658 51.7097 115.247 51.4614 114.836C51.3619 114.671 51.2624 114.507 51.1629 114.342C48.9739 110.719 46.7849 107.097 44.5959 103.474C44.5466 103.392 44.4973 103.311 44.4465 103.227C44.3476 103.063 44.2488 102.899 44.1501 102.736C43.9194 102.353 43.688 101.971 43.4541 101.59C43.3718 101.456 43.2896 101.322 43.2076 101.188C43.1049 101.02 43.0018 100.852 42.8982 100.685C42.4773 99.9951 42.1269 99.3803 42.1482 98.5673C42.1492 98.5078 42.1502 98.4482 42.1511 98.3869C42.1673 97.9378 42.2403 97.5824 42.5064 97.204C42.542 97.1514 42.5776 97.0988 42.6143 97.0446C43.5172 95.8081 45.1495 95.3324 46.5974 96.0189Z" fill="#3ADA84"/>
<path d="M84.7137 33.8812C84.82 33.8814 84.9264 33.8816 85.0327 33.8816C85.4208 33.8824 85.8088 33.8845 86.1969 33.8865C87.5021 33.8912 87.5021 33.8912 88.8336 33.896C88.8336 35.6015 88.8336 37.3069 88.8336 39.064C87.1371 39.0878 87.1371 39.0878 86.6072 39.0935C85.0874 39.1004 85.0874 39.1004 83.8188 39.824C83.2128 40.606 83.2268 41.5944 83.231 42.5277C83.2307 42.652 83.2302 42.7763 83.2297 42.9007C83.2288 43.1668 83.2286 43.4329 83.2289 43.699C83.2295 44.1212 83.2282 44.5433 83.2267 44.9655C83.2237 45.8626 83.2226 46.7597 83.2218 47.6568C83.2209 48.6238 83.2197 49.5908 83.2162 50.5578C83.215 50.908 83.2143 51.2583 83.2147 51.6086C83.2201 56.0024 83.2201 56.0024 81.7268 57.4842C81.2611 57.9127 80.6757 58.368 79.998 58.368C79.998 58.4182 79.998 58.4683 79.998 58.52C80.0671 58.5277 80.1361 58.5353 80.2073 58.5432C81.1255 58.724 81.7906 59.381 82.3164 60.078C83.1128 61.2584 83.2064 62.6059 83.2023 63.9731C83.2026 64.098 83.2029 64.2228 83.2032 64.3476C83.2039 64.6145 83.204 64.8814 83.2039 65.1483C83.2036 65.5714 83.2048 65.9944 83.2062 66.4175C83.2099 67.6199 83.2118 68.8223 83.2123 70.0247C83.2126 70.6903 83.2141 71.3559 83.2167 72.0215C83.2183 72.441 83.2185 72.8604 83.2177 73.2799C83.2174 73.5421 83.2186 73.8043 83.22 74.0665C83.2205 74.1869 83.2204 74.3072 83.2196 74.4276C83.2146 75.3568 83.2543 76.438 83.9227 77.1771C84.5427 77.705 85.3654 77.77 86.1596 77.7795C86.2619 77.7815 86.2619 77.7815 86.3662 77.7835C86.6182 77.7883 86.8702 77.7918 87.1222 77.7955C87.9694 77.8096 87.9694 77.8096 88.8336 77.824C88.8336 79.5295 88.8336 81.2349 88.8336 82.992C87.5383 82.9991 87.5383 82.9991 86.2168 83.0063C85.9472 83.0083 85.6777 83.0104 85.4 83.0126C82.9235 83.0237 80.7052 82.7745 78.8342 81.0519C77.2303 79.4647 76.8824 77.4304 76.8811 75.3141C76.8807 75.1843 76.8803 75.0545 76.8798 74.9247C76.8789 74.6465 76.8783 74.3683 76.8778 74.0901C76.8769 73.6496 76.8753 73.209 76.8735 72.7685C76.8686 71.5162 76.8643 70.264 76.8617 69.0117C76.8602 68.3191 76.8579 67.6265 76.8547 66.9339C76.853 66.568 76.8518 66.2022 76.8516 65.8363C76.8514 65.4921 76.8501 65.148 76.848 64.8038C76.8475 64.6781 76.8473 64.5523 76.8476 64.4265C76.8493 63.4483 76.7886 62.4348 76.065 61.6693C75.3358 61.0455 74.5188 61.1205 73.5504 61.028C73.5504 59.3226 73.5504 57.6171 73.5504 55.86C73.9444 55.8349 74.3385 55.8099 74.7444 55.784C75.6657 55.5797 75.6657 55.5797 76.315 54.9682C76.3532 54.8926 76.3915 54.8169 76.4309 54.739C76.4698 54.6642 76.5087 54.5893 76.5488 54.5122C76.7547 54.0302 76.8339 53.5975 76.8346 53.0785C76.8349 53.0237 76.8352 52.9689 76.8355 52.9125C76.8362 52.7306 76.8359 52.5487 76.8356 52.3669C76.836 52.2357 76.8364 52.1046 76.8369 51.9734C76.8378 51.6917 76.8382 51.41 76.8383 51.1282C76.8384 50.6815 76.8399 50.2348 76.8415 49.788C76.8454 48.6779 76.8479 47.5677 76.8496 46.4576C76.8509 45.5955 76.8527 44.7335 76.8562 43.8715C76.8579 43.4287 76.8586 42.986 76.8584 42.5432C76.8585 42.2658 76.8597 41.9884 76.861 41.711C76.8615 41.5839 76.8615 41.4568 76.8611 41.3296C76.8554 39.3277 77.3103 37.4888 78.7244 35.948C78.7716 35.8957 78.8188 35.8434 78.8674 35.7895C80.3682 34.2402 82.605 33.866 84.7137 33.8812Z" fill="#FDFDFD"/>
<path d="M110.724 33.972C111.574 33.9673 112.424 33.9626 113.301 33.9577C113.566 33.9557 113.831 33.9536 114.105 33.9514C116.934 33.9383 116.934 33.9383 118.281 34.447C118.344 34.4701 118.406 34.4932 118.471 34.5169C119.335 34.8451 120.013 35.3278 120.674 35.948C120.729 36.0002 120.785 36.0524 120.842 36.1062C122.259 37.5274 122.623 39.4502 122.615 41.3414C122.615 41.4734 122.615 41.6053 122.616 41.7373C122.617 42.0189 122.617 42.3004 122.617 42.582C122.616 43.028 122.617 43.474 122.619 43.9201C122.622 44.9467 122.623 45.9734 122.624 47.0001C122.625 47.9428 122.626 48.8855 122.629 49.8282C122.631 50.2708 122.631 50.7134 122.631 51.156C122.631 51.4319 122.631 51.7078 122.633 51.9837C122.633 52.1108 122.633 52.2378 122.632 52.3649C122.628 53.4414 122.712 54.5605 123.509 55.3945C124.328 55.8867 124.992 55.879 126.007 55.936C126.007 57.6414 126.007 59.3469 126.007 61.104C125.56 61.1291 125.114 61.1541 124.654 61.18C124.039 61.2986 123.629 61.4769 123.221 61.94C122.813 62.5484 122.644 63.176 122.644 63.8941C122.643 63.9499 122.643 64.0056 122.643 64.063C122.642 64.248 122.643 64.433 122.643 64.6181C122.643 64.7515 122.643 64.8849 122.642 65.0182C122.642 65.3048 122.642 65.5914 122.642 65.878C122.642 66.3324 122.641 66.7868 122.639 67.2412C122.636 68.5331 122.634 69.8251 122.633 71.117C122.633 71.8311 122.632 72.5451 122.629 73.2592C122.627 73.7096 122.627 74.1599 122.628 74.6103C122.628 74.8924 122.627 75.1746 122.626 75.4567C122.625 75.5861 122.625 75.7154 122.626 75.8447C122.636 77.8812 122.035 79.7698 120.514 81.244C118.933 82.7563 116.829 83.0874 114.68 83.0903C114.205 83.0899 113.731 83.086 113.256 83.0822C112.42 83.0775 111.585 83.0728 110.724 83.068C110.724 81.3625 110.724 79.6571 110.724 77.9C112.35 77.8715 112.35 77.8715 112.86 77.8637C112.995 77.861 113.13 77.8582 113.266 77.8555C113.334 77.8546 113.403 77.8537 113.473 77.8528C114.211 77.8363 114.986 77.7362 115.557 77.2513C116.159 76.6308 116.225 75.8832 116.227 75.068C116.227 75.0159 116.227 74.9638 116.228 74.9102C116.228 74.7376 116.228 74.565 116.229 74.3924C116.229 74.2679 116.229 74.1434 116.23 74.0188C116.231 73.7514 116.231 73.484 116.232 73.2165C116.233 72.7925 116.234 72.3684 116.236 71.9444C116.241 70.7388 116.245 69.5332 116.248 68.3276C116.249 67.6612 116.252 66.9947 116.255 66.3283C116.257 65.9764 116.258 65.6245 116.258 65.2727C116.258 64.941 116.26 64.6093 116.262 64.2776C116.262 64.157 116.262 64.0363 116.262 63.9156C116.259 62.283 116.519 60.7202 117.739 59.489C118.169 59.1005 118.783 58.596 119.4 58.596C119.4 58.5458 119.4 58.4957 119.4 58.444C119.342 58.4356 119.284 58.4271 119.225 58.4185C118.297 58.2083 117.583 57.4665 117.099 56.7253C116.094 55.1205 116.26 53.1723 116.261 51.3696C116.26 51.0225 116.259 50.6754 116.257 50.3283C116.254 49.5234 116.253 48.7186 116.251 47.9138C116.249 46.8872 116.247 45.8606 116.243 44.834C116.241 44.4225 116.24 44.0109 116.24 43.5994C116.24 43.3431 116.239 43.0868 116.238 42.8305C116.238 42.7125 116.238 42.5944 116.238 42.4764C116.258 41.07 116.258 41.07 115.619 39.8454C114.963 39.2542 114.086 39.2078 113.227 39.1919C113.163 39.1905 113.099 39.1891 113.034 39.1876C112.798 39.1825 112.562 39.1779 112.326 39.1732C111.797 39.1623 111.268 39.1513 110.724 39.14C110.724 37.4345 110.724 35.7291 110.724 33.972Z" fill="#FDFDFD"/>
<path d="M141.688 152.076C141.764 152.1 141.764 152.1 141.842 152.125C142.929 152.482 143.814 153.055 144.633 153.824C144.694 153.881 144.754 153.938 144.817 153.996C146.211 155.388 146.743 157.14 146.714 159.031C146.664 160.898 145.714 162.587 144.32 163.869C143.429 164.622 142.276 165.158 141.131 165.452C141.033 165.478 141.033 165.478 140.933 165.504C139.164 165.886 137.248 165.517 135.718 164.616C133.994 163.549 132.881 162.035 132.375 160.132C132.137 158.945 132.153 157.54 132.614 156.408C132.643 156.335 132.673 156.262 132.704 156.186C133.501 154.399 134.852 153.003 136.74 152.24C138.359 151.671 140.036 151.535 141.688 152.076Z" fill="#083042"/>
<path d="M63.8889 153.092C64.0057 153.184 64.1217 153.275 64.2372 153.368C64.3255 153.436 64.3255 153.436 64.4156 153.505C64.9202 153.907 65.2978 154.373 65.67 154.888C65.7143 154.949 65.7586 155.01 65.8043 155.073C66.518 156.127 66.8155 157.309 66.8092 158.55C66.8086 158.687 66.8086 158.687 66.808 158.827C66.7802 160.836 65.8893 162.487 64.401 163.881C63.991 164.236 63.5205 164.503 63.0432 164.768C62.978 164.805 62.9128 164.843 62.8457 164.881C61.3231 165.687 59.3545 165.832 57.6966 165.391C55.831 164.851 54.1833 163.69 53.25 162.039C52.3078 160.269 52.0662 158.333 52.7126 156.426C53.0972 155.4 53.7205 154.518 54.526 153.748C54.5854 153.69 54.6448 153.633 54.706 153.573C57.1595 151.328 61.1797 151.127 63.8889 153.092Z" fill="#083042"/>
<path d="M70.5256 185.06C71.0248 185.105 71.4718 185.214 71.9485 185.359C72.4203 185.502 72.8843 185.625 73.3721 185.708C73.6042 185.755 73.8167 185.832 74.0364 185.916C74.2681 186.002 74.5048 186.062 74.7444 186.124C74.4174 186.252 74.1271 186.142 73.8045 186.052C73.7438 186.036 73.6831 186.019 73.6205 186.003C73.4261 185.95 73.2321 185.897 73.038 185.844C72.9102 185.809 72.7823 185.775 72.6545 185.741C71.9417 185.548 71.2322 185.348 70.5256 185.136C70.5256 185.111 70.5256 185.086 70.5256 185.06Z" fill="#0D4649"/>
<path d="M168.593 162.108C168.465 162.426 168.219 162.626 167.961 162.849C167.897 162.907 167.897 162.907 167.831 162.966C167.508 163.248 167.508 163.248 167.24 163.248C167.435 163.057 167.631 162.868 167.827 162.678C167.91 162.596 167.91 162.596 167.995 162.513C168.049 162.462 168.102 162.41 168.157 162.357C168.206 162.31 168.255 162.262 168.306 162.213C168.434 162.108 168.434 162.108 168.593 162.108Z" fill="#0D424B"/>
<path d="M170.503 160.132C170.503 160.419 170.424 160.471 170.225 160.678C170.173 160.733 170.121 160.787 170.068 160.843C170.028 160.884 169.987 160.926 169.946 160.968C169.867 160.943 169.788 160.918 169.707 160.892C169.97 160.641 170.233 160.39 170.503 160.132Z" fill="#0F464D"/>
<path d="M51.74 177.46C52.0633 177.504 52.2851 177.604 52.5609 177.769C52.6312 177.81 52.7014 177.852 52.7739 177.895C52.8267 177.927 52.8795 177.959 52.934 177.992C52.8552 178.03 52.8552 178.03 52.7748 178.068C52.5931 177.986 52.4217 177.901 52.2474 177.807C52.1988 177.781 52.1502 177.755 52.1001 177.729C51.9797 177.665 51.8598 177.601 51.74 177.536C51.74 177.511 51.74 177.486 51.74 177.46Z" fill="#0E4849"/>
</svg>
