<svg width="216" height="200" viewBox="0 0 216 200" fill="none" xmlns="http://www.w3.org/2000/svg">
<path d="M193.902 92.4706L141.706 136.969L140.739 149.115C140.463 152.592 143.057 155.635 146.533 155.911C149.204 156.124 151.851 155.267 153.89 153.528L186.557 125.679C189.787 122.926 191.79 119.003 192.127 114.773L193.902 92.4706Z" fill="#4285F4"/>
<path d="M123.783 23.0309L71.2167 67.0912L59.0785 66.0227C55.6044 65.7169 53.0359 62.6526 53.3417 59.1784C53.5767 56.509 54.8625 54.0423 56.9161 52.321L89.8153 24.7452C93.0675 22.0193 97.2693 20.697 101.496 21.0691L123.783 23.0309Z" fill="#4285F4"/>
<path d="M210.59 76.7779L146.818 3.09949L213.548 7.90891C214.65 7.98831 215.479 8.94579 215.399 10.0475L210.59 76.7779Z" fill="#4285F4"/>
<rect x="17.7854" y="112.476" width="173.415" height="99.2568" rx="7" transform="rotate(-40.4357 17.7854 112.476)" fill="#D8EFFE"/>
<path d="M2.82377e-05 195.55C2.82377e-05 195.55 4.79698 142.729 31.133 127.6L73.0617 177.384C73.0617 177.384 63.4114 198.904 2.82377e-05 195.55Z" fill="#F7DD17"/>
</svg>
