<svg width="451" height="102" viewBox="0 0 451 102" fill="none" xmlns="http://www.w3.org/2000/svg">
<g clip-path="url(#clip0_319_148)">
<path d="M0 3.94373C31.2776 3.94373 62.5551 3.94373 94.7805 3.94373C94.4783 4.5587 94.2857 4.85044 93.8267 5.31702C93.7023 5.4444 93.5779 5.57178 93.4496 5.70303C93.3131 5.84096 93.1766 5.97889 93.0359 6.121C92.892 6.2677 92.7482 6.41441 92.6 6.56556C92.1234 7.0512 91.6455 7.53553 91.1676 8.01983C90.8357 8.35736 90.5038 8.69495 90.172 9.03261C89.4756 9.74102 88.7786 10.4487 88.0811 11.156C87.2776 11.9708 86.4749 12.7866 85.6728 13.6029C84.8989 14.3905 84.1245 15.1775 83.3498 15.9643C83.0215 16.2979 82.6932 16.6316 82.365 16.9654C81.9046 17.4335 81.4437 17.9009 80.9826 18.3682C80.8481 18.5051 80.7137 18.6419 80.5753 18.7829C80.4478 18.9118 80.3204 19.0407 80.1891 19.1735C80.0805 19.2838 79.9718 19.394 79.8598 19.5077C79.5086 19.8451 79.1503 20.1672 78.7849 20.4886C78.0714 21.1207 77.3983 21.7854 76.731 22.4675C76.6068 22.5937 76.4825 22.72 76.3545 22.8501C75.9422 23.2694 75.5305 23.6893 75.1187 24.1092C74.8218 24.4115 74.5248 24.7137 74.2277 25.0158C73.5074 25.7487 72.7874 26.4821 72.0677 27.2156C71.2295 28.0698 70.3908 28.9234 69.5521 29.777C68.0567 31.2991 66.5617 32.8215 65.0669 34.3442C63.6155 35.8227 62.164 37.3009 60.7123 38.7789C60.6227 38.8701 60.5331 38.9613 60.4407 39.0553C59.9911 39.5131 59.5415 39.9708 59.0919 40.4285C55.3669 44.2206 51.6426 48.0134 47.9188 51.8066C48.2426 52.5183 48.6984 53.0071 49.2415 53.553C49.3417 53.6551 49.4418 53.7572 49.545 53.8624C49.881 54.2045 50.2183 54.5453 50.5556 54.8861C50.7967 55.1311 51.0378 55.3761 51.2787 55.6212C51.7981 56.1492 52.318 56.6765 52.8383 57.2035C53.6618 58.0374 54.484 58.8725 55.306 59.7078C56.6072 61.0299 57.9093 62.351 59.2117 63.6719C61.5414 66.0345 63.8702 68.3982 66.198 70.7628C67.0146 71.5922 67.8317 72.4211 68.6492 73.2495C69.159 73.7664 69.6685 74.2836 70.1778 74.8009C70.4132 75.0399 70.6488 75.2786 70.8845 75.5172C71.9056 76.5508 72.9186 77.5773 73.8533 78.6934C74.5963 79.5448 75.407 80.3346 76.2005 81.1369C76.4038 81.3431 76.607 81.5494 76.8103 81.7557C77.2453 82.1971 77.6805 82.6384 78.116 83.0793C78.8042 83.7763 79.4916 84.474 80.1788 85.1719C82.1322 87.1552 84.0866 89.1374 86.0418 91.1189C87.1236 92.2153 88.2048 93.3123 89.2853 94.4101C89.9689 95.1045 90.6533 95.7982 91.3383 96.4912C91.7627 96.9209 92.1864 97.3514 92.6099 97.7821C92.807 97.9823 93.0044 98.1822 93.2022 98.3818C93.471 98.6532 93.7388 98.9256 94.0063 99.1984C94.2319 99.4271 94.2319 99.4271 94.462 99.6604C94.7805 100.028 94.7805 100.028 94.7805 100.387C63.5029 100.387 32.2254 100.387 0 100.387C0 68.5605 0 36.7343 0 3.94373Z" fill="#E9793F"/>
<path d="M125.082 4.12301C132 4.12301 138.919 4.12301 146.046 4.12301C146.105 17.7881 146.163 31.4533 146.223 45.5325C147.71 44.0305 147.71 44.0305 149.103 42.4678C149.632 41.8467 150.192 41.255 150.748 40.6588C151.865 39.4557 152.974 38.2454 154.075 37.0268C155.374 35.5894 156.679 34.1574 157.989 32.7308C158.65 32.0109 159.308 31.2887 159.964 30.5641C160.828 29.6093 161.698 28.6598 162.569 27.7114C163.23 26.9915 163.889 26.2693 164.545 25.5448C165.409 24.59 166.279 23.6404 167.15 22.692C167.811 21.9722 168.469 21.25 169.125 20.5255C169.989 19.5707 170.859 18.6211 171.73 17.6727C172.391 16.9528 173.05 16.2307 173.705 15.5061C174.466 14.6665 175.23 13.8305 175.996 12.9965C177.116 11.7762 178.231 10.5501 179.343 9.32161C180.495 8.04839 181.651 6.77781 182.811 5.51229C182.919 5.39459 183.027 5.27688 183.138 5.15561C184.086 4.12374 184.086 4.12374 184.517 4.10095C184.798 4.1012 184.798 4.1012 185.084 4.10145C185.298 4.10121 185.511 4.10096 185.731 4.10071C185.97 4.10134 186.209 4.10199 186.448 4.10266C186.698 4.10271 186.948 4.10268 187.198 4.10258C187.879 4.10253 188.56 4.10359 189.24 4.10484C189.951 4.10595 190.661 4.10606 191.372 4.10627C192.718 4.10683 194.065 4.1083 195.411 4.1101C196.944 4.1121 198.476 4.11309 200.009 4.11399C203.162 4.11587 206.315 4.11902 209.468 4.12301C209.396 4.20916 209.323 4.2953 209.248 4.38405C209.153 4.49706 209.058 4.61008 208.96 4.72651C208.865 4.83854 208.771 4.95056 208.674 5.06598C208.479 5.2972 208.285 5.52877 208.091 5.76053C207.21 6.80111 206.258 7.75846 205.296 8.7201C204.698 9.32219 204.116 9.92725 203.567 10.5764C202.784 11.5024 201.924 12.3463 201.068 13.2016C200.47 13.8037 199.887 14.4088 199.338 15.058C198.556 15.984 197.696 16.8278 196.84 17.6832C196.129 18.3986 195.456 19.1302 194.804 19.9012C194.148 20.6532 193.43 21.3454 192.725 22.0492C192.149 22.6282 191.592 23.2117 191.064 23.8362C190.279 24.7638 189.417 25.6098 188.56 26.467C187.961 27.0691 187.379 27.6742 186.83 28.3234C186.047 29.2494 185.187 30.0932 184.332 30.9486C183.733 31.5507 183.151 32.1557 182.602 32.8049C181.819 33.7309 180.959 34.5748 180.103 35.4301C179.393 36.1455 178.719 36.8771 178.067 37.6481C177.411 38.4001 176.694 39.0924 175.989 39.7961C175.298 40.4907 174.647 41.2037 174.013 41.9522C173.499 42.5435 172.948 43.096 172.395 43.6503C172.283 43.7635 172.171 43.8767 172.056 43.9934C171.784 44.2678 171.512 44.5417 171.239 44.8155C171.681 45.6334 172.143 46.3672 172.715 47.101C173.458 48.0674 174.181 49.0474 174.895 50.0365C174.999 50.1809 175.103 50.3254 175.211 50.4743C175.425 50.7707 175.638 51.0671 175.852 51.3636C176.369 52.0797 176.887 52.7946 177.405 53.5097C177.611 53.7935 177.816 54.0773 178.022 54.3612C178.174 54.5719 178.174 54.5719 178.33 54.7869C181.721 59.4701 181.721 59.4701 182.03 59.8958C182.235 60.1798 182.441 60.4638 182.647 60.7478C183.159 61.4548 183.67 62.162 184.182 62.8698C185.234 64.3263 186.291 65.7782 187.359 67.2232C188.529 68.8078 189.688 70.4014 190.841 71.9989C191.353 72.708 191.867 73.4164 192.38 74.1248C192.585 74.4086 192.791 74.6924 192.996 74.9763C193.149 75.187 193.149 75.187 193.305 75.402C194.229 76.6793 194.229 76.6793 194.538 77.1051C194.743 77.3885 194.948 77.6719 195.154 77.9553C195.672 78.6713 196.191 79.3875 196.708 80.1041C197.668 81.4315 198.629 82.757 199.603 84.0738C200.683 85.5348 201.748 87.0066 202.812 88.4795C203.327 89.1923 203.843 89.9046 204.359 90.6169C204.981 91.4744 205.601 92.332 206.222 93.1903C207.372 94.7814 208.527 96.3679 209.694 97.9463C209.771 98.0508 209.848 98.1554 209.927 98.2631C210.106 98.5038 210.287 98.7432 210.468 98.9817C210.565 99.11 210.662 99.2384 210.762 99.3706C210.851 99.4877 210.941 99.6048 211.033 99.7255C211.23 100.028 211.23 100.028 211.23 100.387C207.982 100.454 204.734 100.504 201.486 100.535C199.977 100.55 198.469 100.57 196.96 100.603C195.645 100.632 194.33 100.65 193.014 100.657C192.318 100.66 191.623 100.669 190.927 100.69C186.354 100.823 186.354 100.823 185.237 99.7597C184.75 99.1719 184.394 98.5501 184.08 97.8534C183.872 97.4077 183.595 97.0331 183.297 96.646C183.127 96.4067 182.958 96.1672 182.789 95.9275C182.597 95.6551 182.404 95.3827 182.211 95.1103C182.019 94.8375 181.826 94.5646 181.633 94.2917C180.365 92.4977 179.089 90.7102 177.798 88.9328C177.007 87.8427 176.227 86.7455 175.449 85.6459C174.757 84.6688 174.057 83.698 173.353 82.7293C172.071 80.9629 170.808 79.1825 169.547 77.4C168.372 75.7397 167.189 74.0861 165.995 72.4407C165.204 71.3506 164.423 70.2534 163.645 69.1538C162.852 68.0337 162.047 66.9221 161.241 65.8119C160.518 64.8161 159.804 63.814 159.094 62.8089C158.348 61.7533 157.594 60.7077 156.793 59.6942C156.613 59.8728 156.433 60.0523 156.253 60.232C156.103 60.3817 156.103 60.3817 155.95 60.5345C155.625 60.8795 155.321 61.2307 155.015 61.5932C154.066 62.7046 153.02 63.7202 151.99 64.7534C151.833 64.9122 151.675 65.0709 151.513 65.2345C151.302 65.4461 151.302 65.4461 151.087 65.662C150.841 65.9222 150.596 66.1853 150.37 66.4638C149.825 67.1337 149.289 67.6832 148.592 68.1891C147.312 69.171 146.256 70.1843 145.983 71.8564C145.776 73.5975 145.826 75.3587 145.866 77.1083C145.881 77.9286 145.877 78.7489 145.876 79.5694C145.877 81.118 145.893 82.666 145.916 84.2144C145.945 86.3103 145.95 88.4061 145.956 90.5022C145.965 93.7974 146.009 97.0913 146.046 100.387C139.128 100.387 132.21 100.387 125.082 100.387C125.082 68.6196 125.082 36.8526 125.082 4.12301Z" fill="#FAF6F6"/>
<path d="M239.351 25.2199C239.514 25.2202 239.676 25.2205 239.844 25.2208C242.32 25.2292 244.734 25.3252 247.169 25.8137C247.325 25.8435 247.48 25.8733 247.641 25.904C254.419 27.231 260.622 30.1806 265.843 34.7768C266.012 34.9249 266.18 35.073 266.354 35.2256C267.979 36.688 269.444 38.2324 270.776 39.9754C270.852 40.0738 270.928 40.1722 271.006 40.2736C272.362 42.0443 273.451 43.9057 274.476 45.891C274.589 46.1053 274.703 46.3196 274.816 46.5338C279.364 55.3756 279.623 66.2133 276.76 75.6215C275.184 80.5733 272.587 85.0385 269.191 88.9138C269.069 89.0539 269.069 89.0539 268.946 89.1967C262.346 96.7991 252.644 101.23 242.765 102C241.584 102.061 240.402 102.061 239.219 102.056C238.982 102.055 238.982 102.055 238.74 102.055C236.289 102.046 233.901 101.943 231.49 101.462C231.334 101.432 231.178 101.403 231.017 101.372C223.514 99.9026 216.736 96.4429 211.23 91.065C211.08 90.9197 211.08 90.9197 210.927 90.7715C209.471 89.354 208.169 87.8968 207.002 86.2249C206.933 86.1289 206.864 86.0328 206.793 85.9339C200.954 77.7479 198.947 67.3901 200.429 57.4758C201.674 49.698 205.187 42.7817 210.525 37.1072C210.608 37.018 210.691 36.9288 210.776 36.837C218.107 28.976 228.858 25.1759 239.351 25.2199ZM225.445 49.1737C221.684 53.5845 220.115 59.2816 220.429 65.0531C220.859 70.7875 223.308 75.9948 227.614 79.7715C231.76 83.1039 236.652 84.2246 241.852 83.8455C246.75 83.2332 251.038 80.814 254.123 76.8865C257.547 72.0573 258.761 66.1517 257.964 60.2673C257.098 55.0508 254.48 50.123 250.252 46.9666C242.628 41.4793 231.942 42.236 225.445 49.1737Z" fill="#FEFCFC"/>
<path d="M439.196 28.3234C439.446 28.4621 439.446 28.4621 439.7 28.6035C444.764 31.5481 448.015 36.7043 449.591 42.3058C449.77 42.99 449.933 43.6765 450.086 44.3673C450.12 44.52 450.155 44.6727 450.19 44.8299C450.885 48.1986 450.874 51.6197 450.864 55.0452C450.864 55.542 450.864 56.0388 450.864 56.5356C450.864 57.5977 450.863 58.6598 450.861 59.722C450.858 61.2576 450.857 62.7931 450.857 64.3287C450.856 66.8212 450.854 69.3136 450.85 71.806C450.847 74.2247 450.845 76.6434 450.843 79.0621C450.843 79.2116 450.843 79.3612 450.843 79.5152C450.842 80.2655 450.842 81.0157 450.842 81.7659C450.838 87.9728 450.831 94.1798 450.824 100.387C443.964 100.387 437.104 100.387 430.036 100.387C430.031 97.2449 430.026 94.1032 430.022 90.8662C430.017 88.8728 430.013 86.8795 430.007 84.8861C430.005 83.8383 430.002 82.7905 429.999 81.7427C429.999 81.6114 429.998 81.4801 429.998 81.3449C429.993 79.2321 429.99 77.1193 429.987 75.0066C429.985 72.8342 429.98 70.6619 429.973 68.4895C429.969 67.2711 429.966 66.0526 429.967 64.8342C429.967 63.6847 429.963 62.5353 429.958 61.3859C429.956 60.9665 429.956 60.5471 429.957 60.1278C429.966 55.5767 429.464 51.0252 426.281 47.538C423.844 45.2426 420.549 44.3306 417.275 44.4241C413.832 44.6743 410.855 45.6567 408.428 48.2474C405.348 52.0537 405.116 56.827 405.119 61.5371C405.118 61.9632 405.116 62.3893 405.114 62.8155C405.109 63.9615 405.107 65.1076 405.106 66.2537C405.105 67.3333 405.101 68.4129 405.097 69.4926C405.089 71.6282 405.084 73.7638 405.08 75.8994C405.076 77.9716 405.072 80.0437 405.065 82.1158C405.065 82.2453 405.065 82.3747 405.064 82.5081C405.061 83.6345 405.057 84.7609 405.054 85.8872C405.039 90.7204 405.029 95.5535 405.019 100.387C398.217 100.387 391.415 100.387 384.407 100.387C384.407 76.0142 384.407 51.6418 384.407 26.5308C391.209 26.5308 398.011 26.5308 405.019 26.5308C405.077 29.7844 405.135 33.038 405.195 36.3902C406.406 35.0387 406.406 35.0387 407.596 33.6677C410.878 29.8569 415.193 27.146 419.994 25.8137C420.167 25.7655 420.167 25.7655 420.343 25.7163C426.43 24.1346 433.767 25.2511 439.196 28.3234Z" fill="#FBF4F4"/>
<path d="M283.989 7.70825C290.849 7.70825 297.709 7.70825 304.777 7.70825C304.777 13.9197 304.777 20.1311 304.777 26.5307C310.359 26.5307 315.94 26.5307 321.69 26.5307C321.69 32.5055 321.69 38.4803 321.69 44.6362C316.109 44.6362 310.528 44.6362 304.777 44.6362C304.788 50.4736 304.788 50.4736 304.806 56.311C304.814 58.6923 304.822 61.0736 304.825 63.4549C304.827 65.1894 304.832 66.9238 304.84 68.6583C304.844 69.5761 304.847 70.4938 304.846 71.4115C304.846 72.2768 304.849 73.1421 304.855 74.0074C304.857 74.3235 304.857 74.6397 304.856 74.9558C304.85 77.1108 304.883 79.4911 306.363 81.2056C307.871 82.6474 309.572 82.9147 311.582 82.8862C311.767 82.8845 311.953 82.8828 312.144 82.8811C315.207 82.8212 318.042 82.0145 320.796 80.6531C321.161 80.4886 321.161 80.4886 321.514 80.4886C321.514 86.1084 321.514 91.7283 321.514 97.5184C315.997 100.213 311.337 101.684 305.306 101.675C305.177 101.675 305.048 101.675 304.915 101.675C299.035 101.661 293.471 100.555 289.065 96.286C284.364 91.3203 283.956 84.0467 283.969 77.5434C283.969 77.1827 283.969 76.822 283.969 76.4613C283.969 75.4904 283.97 74.5195 283.971 73.5485C283.972 72.5308 283.972 71.5131 283.973 70.4953C283.973 68.5717 283.975 66.6482 283.976 64.7246C283.978 62.5331 283.979 60.3416 283.98 58.1501C283.982 53.6455 283.985 49.1408 283.989 44.6362C281.14 44.6362 278.292 44.6362 275.357 44.6362C275.357 38.6614 275.357 32.6866 275.357 26.5307C278.205 26.5307 281.054 26.5307 283.989 26.5307C283.989 20.3193 283.989 14.1079 283.989 7.70825Z" fill="#F9F3F3"/>
<path d="M47.3902 51.986C48.0922 52.3166 48.5752 52.7836 49.1144 53.3375C49.2156 53.44 49.3167 53.5425 49.421 53.6482C49.76 53.9922 50.0978 54.3374 50.4356 54.6827C50.6784 54.9295 50.9212 55.1762 51.1641 55.4229C51.8241 56.0936 52.483 56.7655 53.1417 57.4376C53.8316 58.1411 54.5224 58.8437 55.2131 59.5464C56.3737 60.7276 57.5337 61.9095 58.6932 63.0918C60.032 64.4569 61.3717 65.821 62.7119 67.1846C64.14 68.6376 65.5673 70.0912 66.9945 71.5451C67.4049 71.9631 67.8154 72.3809 68.226 72.7987C68.8729 73.4572 69.5194 74.1161 70.1655 74.7754C70.4021 75.0166 70.6388 75.2576 70.8756 75.4985C71.8988 76.5394 72.9144 77.5735 73.8537 78.6943C74.5969 79.5451 75.4072 80.3349 76.2005 81.1369C76.4038 81.3432 76.607 81.5494 76.8103 81.7557C77.2453 82.1972 77.6805 82.6384 78.116 83.0794C78.8042 83.7763 79.4915 84.474 80.1788 85.1719C82.1322 87.1552 84.0866 89.1375 86.0418 91.119C87.1236 92.2154 88.2048 93.3124 89.2853 94.4101C89.9689 95.1046 90.6533 95.7982 91.3383 96.4913C91.7627 96.921 92.1864 97.3515 92.6099 97.7822C92.807 97.9824 93.0044 98.1823 93.2022 98.3819C93.471 98.6532 93.7388 98.9257 94.0063 99.1984C94.1567 99.3509 94.3071 99.5034 94.462 99.6605C94.7805 100.028 94.7805 100.028 94.7805 100.387C63.5029 100.387 32.2254 100.387 0 100.387C0 100.268 0 100.15 0 100.028C0.240973 99.7864 0.240973 99.7864 0.584994 99.4988C1.54766 98.6648 2.43237 97.7567 3.32447 96.8462C3.51531 96.6521 3.70619 96.458 3.8971 96.264C4.41857 95.7338 4.93949 95.203 5.46031 94.6721C6.0232 94.0986 6.58659 93.5256 7.14992 92.9525C8.12485 91.9606 9.09947 90.9683 10.0739 89.9758C11.4826 88.5408 12.8919 87.1064 14.3013 85.672C16.5882 83.3447 18.8746 81.0169 21.1608 78.6889C23.3812 76.428 25.6017 74.1672 27.8225 71.9067C27.9595 71.7673 28.0965 71.6279 28.2376 71.4842C28.9248 70.7848 29.612 70.0853 30.2992 69.3858C35.9967 63.5865 41.6937 57.7864 47.3902 51.986Z" fill="#487FDC"/>
<path d="M327.504 0C334.306 0 341.108 0 348.116 0C348.116 33.1276 348.116 66.2552 348.116 100.387C341.314 100.387 334.512 100.387 327.504 100.387C327.504 67.2591 327.504 34.1315 327.504 0Z" fill="#FEFCFC"/>
<path d="M356.043 26.5308C362.845 26.5308 369.647 26.5308 376.655 26.5308C376.655 50.9032 376.655 75.2756 376.655 100.387C369.853 100.387 363.051 100.387 356.043 100.387C356.043 76.0142 356.043 51.6418 356.043 26.5308Z" fill="#FDF9F9"/>
<path d="M0 3.94373C15.6969 3.94373 31.3938 3.94373 47.5664 3.94373C47.262 4.56316 47.0739 4.84511 46.6064 5.3078C46.4257 5.48873 46.4257 5.48873 46.2413 5.67332C46.0524 5.8598 46.0524 5.8598 45.8597 6.05005C45.0225 6.88063 44.2193 7.7207 43.4568 8.62292C43.0006 9.14952 42.5102 9.63789 42.017 10.1283C41.3023 10.8465 40.6182 11.5729 39.9683 12.3529C39.4377 12.956 38.8663 13.517 38.3005 14.0857C37.7095 14.6826 37.1551 15.2981 36.6155 15.9438C36.1226 16.505 35.5924 17.0277 35.066 17.5562C34.607 18.0194 34.1667 18.4894 33.7479 18.9905C33.2166 19.625 32.6456 20.209 32.0633 20.7943C31.4846 21.376 30.9169 21.9558 30.3896 22.587C29.7774 23.3199 29.1069 23.9867 28.4349 24.6621C27.8439 25.259 27.2895 25.8745 26.7499 26.5202C26.2569 27.0815 25.7268 27.6042 25.2004 28.1326C24.7414 28.5959 24.3011 29.0659 23.8823 29.567C23.351 30.2014 22.78 30.7855 22.1977 31.3708C21.619 31.9524 21.0512 32.5323 20.524 33.1634C19.9116 33.8965 19.2411 34.5634 18.5689 35.2389C18.0852 35.7274 17.6185 36.2199 17.1768 36.7486C16.5645 37.4816 15.894 38.1484 15.222 38.8238C14.631 39.4207 14.0766 40.0362 13.537 40.6819C13.0441 41.2432 12.5139 41.7659 11.9875 42.2943C11.5285 42.7575 11.0882 43.2275 10.6694 43.7287C10.1381 44.3631 9.56711 44.9472 8.98477 45.5325C8.4061 46.1141 7.83836 46.694 7.31113 47.3251C6.69874 48.0582 6.02816 48.7251 5.35604 49.4006C4.76936 49.9931 4.2197 50.6039 3.68447 51.245C3.14832 51.853 2.57391 52.4219 1.99948 52.9922C1.55438 53.4373 1.14042 53.8861 0.750107 54.3821C0.553214 54.6158 0.553214 54.6158 0.352344 54.8541C0.23607 54.8541 0.119797 54.8541 0 54.8541C0 38.0537 0 21.2533 0 3.94373Z" fill="#3C82DB"/>
<path d="M355.515 0C362.666 0 369.817 0 377.184 0C377.184 6.15227 377.184 12.3045 377.184 18.6432C370.033 18.6432 362.882 18.6432 355.515 18.6432C355.515 12.491 355.515 6.3387 355.515 0Z" fill="#FBFAFA"/>
</g>
<defs>
<clipPath id="clip0_319_148">
<rect width="451" height="102" fill="white"/>
</clipPath>
</defs>
</svg>
