<svg width="240" height="210" viewBox="0 0 240 210" fill="none" xmlns="http://www.w3.org/2000/svg">
<g clip-path="url(#clip0_321_160)">
<path d="M45.3672 -0.519531C48 0 48 0 50.0703 2.61328C50.7743 3.83557 51.4578 5.06977 52.125 6.3125C52.4968 6.96952 52.8686 7.62654 53.2517 8.30347C54.0667 9.74403 54.8746 11.1887 55.6763 12.6367C57.0922 15.1646 58.5539 17.6615 60.0273 20.1562C61.0393 21.8749 62.051 23.5936 63.0625 25.3125C63.5519 26.1424 64.0412 26.9723 64.5454 27.8274C65.221 28.9898 65.221 28.9898 65.9102 30.1758C66.3137 30.8658 66.7173 31.5559 67.1331 32.2668C68 34 68 34 68 36C68.5524 35.8037 69.1047 35.6073 69.6738 35.405C104.445 23.1507 137.454 22.5752 172 36C172.271 35.283 172.542 34.5661 172.821 33.8274C173.999 31.0027 175.355 28.4233 176.863 25.7617C177.421 24.7762 177.978 23.7907 178.553 22.7754C179.424 21.2469 179.424 21.2469 180.312 19.6875C180.882 18.6801 181.451 17.6727 182.037 16.6348C183.676 13.7471 185.334 10.8716 187 8C187.468 7.17718 187.936 6.35435 188.418 5.50659C188.846 4.77996 189.274 4.05333 189.715 3.30469C190.081 2.67417 190.447 2.04366 190.824 1.39404C192 0 192 0 195.25 -0.5625C198 0 198 0 199 1C199.481 5.98681 198.394 8.76803 195.859 13.0273C195.201 14.1495 194.542 15.2716 193.863 16.4277C193.159 17.5979 192.455 18.7678 191.75 19.9375C191.06 21.1028 190.371 22.2688 189.684 23.4355C188.373 25.6538 187.057 27.8693 185.736 30.0815C183.783 33.3654 181.879 36.673 180 40C181.088 40.7386 182.176 41.4773 183.297 42.2383C211.899 61.8846 230.891 87.0055 239 121C239.33 125.62 239.66 130.24 240 135C160.8 135 81.6 135 0 135C0 127.564 0.461571 122.637 2.375 115.75C2.63829 114.801 2.90158 113.853 3.17285 112.875C7.87697 96.8375 15.3735 81.9172 26 69C26.4236 68.4815 26.8472 67.9629 27.2837 67.4287C36.5795 56.2485 47.9038 47.9307 60 40C58.1004 36.5846 56.198 33.1708 54.2932 29.7583C53.3327 28.0363 52.3744 26.3131 51.416 24.5898C48.7304 19.781 46.0479 15.0023 43.0703 10.3672C41.075 7.12192 40.238 5.7012 41 2C43 0 43 0 45.3672 -0.519531ZM58 84C55.434 87.0792 54.9915 88.5178 55.0625 92.5625C56.1037 96.3802 56.7512 97.7772 60 100C63.8435 101.048 66.0363 101.394 69.75 99.875C72.3675 97.6938 73.705 96.1655 75 93C74.9322 89.1355 74.5658 86.8269 72.375 83.625C67.3312 80.174 62.6942 80.0882 58 84ZM168 84C165.43 87.6482 164.884 89.2371 165.562 93.6875C167.055 97.1273 167.697 98.3483 171 100C174.526 101.05 176.269 101.306 179.688 99.875C182.365 97.704 183.691 96.2006 185 93C184.932 89.1355 184.566 86.8269 182.375 83.625C177.37 80.2009 172.623 80.0192 168 84Z" fill="#31DD83"/>
<path d="M109 157C111.97 157 114.94 157 118 157C118 174.49 118 191.98 118 210C111 210 111 210 109.063 208.5C108.712 208.005 108.361 207.51 108 207C107.176 207.729 107.176 207.729 106.336 208.473C102.224 211.161 97.7382 210.619 93 210C87.7509 207.423 84.5128 203.799 81.75 198.688C79.9036 192.071 80.7286 186.979 84 181C87.209 177.184 90.2677 174.638 95 173C99.9872 172.939 103.516 173.758 108 176C108.33 169.73 108.66 163.46 109 157ZM92 184C89.6906 186.969 89.517 190.252 89.6211 193.965C90.3334 197.79 92.1067 199.421 95 202C98.7229 203.347 100.435 203.188 104.188 201.938C107.624 199.57 108.706 197.959 110 194C109.93 190.035 109.329 187.605 107.438 184.125C104.551 181.608 102.721 181.108 98.9649 180.863C95.9574 181.073 94.2703 182.064 92 184Z" fill="#F9F6F6"/>
<path d="M232 157C234.64 157 237.28 157 240 157C240 174.49 240 191.98 240 210C237.69 210 235.38 210 233 210C232.34 209.01 231.68 208.02 231 207C230.381 207.495 229.762 207.99 229.125 208.5C224.231 210.849 219.12 211.046 213.937 209.309C209.626 207.088 207.275 204.201 205 200C203.225 194.14 203.087 188.297 205.687 182.688C208.09 178.432 211.06 176.131 215.25 173.688C219.239 172.69 223.03 172.942 227 174C228.32 174.99 229.64 175.98 231 177C231.33 170.4 231.66 163.8 232 157ZM215 184C212.69 186.97 212.52 190.252 212.617 193.965C213.328 197.745 215.177 199.428 218 202C221.562 203.594 222.942 203.02 226.687 201.75C230.185 200.239 230.185 200.239 232 197C232.687 192.285 232.606 188.238 230.5 183.938C225.482 180.049 219.947 179.781 215 184Z" fill="#FDFDFD"/>
<path d="M18.5625 173.312C19.3269 173.391 20.0913 173.47 20.8789 173.551C23 174 23 174 26 176C26.33 175.34 26.66 174.68 27 174C29.97 174 32.94 174 36 174C36 185.88 36 197.76 36 210C29 210 29 210 26 208C25.4508 208.322 24.9017 208.645 24.3359 208.977C20.0611 210.849 15.5706 210.537 11 210C6.54852 207.815 3.81114 205.061 0.999988 201C-0.94928 195.152 -0.780087 188.478 1.06249 182.625C5.76654 176.252 10.4264 172.39 18.5625 173.312ZM11 184C8.66881 187.419 7.99999 189.41 7.99999 193.562C9.20542 197.706 10.603 199.375 14 202C16.9757 203.116 18.4828 203.126 21.5625 202.375C24.7049 200.602 26.1657 199.125 28 196C28.6659 191.339 28.7397 188.422 25.9375 184.562C20.975 180.234 16.1118 179.598 11 184Z" fill="#F8F6F6"/>
<path d="M176.141 175.73C180.515 178.717 183.65 182.845 185 188C185.623 194.331 184.671 198.746 181 204C176.609 208.631 172.624 210.165 166.312 210.375C160.278 210.309 156.412 209.157 152 205C147.798 199.852 147.366 195.454 147.621 188.871C148.273 183.928 149.875 180.889 153.684 177.504C160.768 172.126 168.21 171.381 176.141 175.73ZM159 184C156.873 186.714 156.071 188.524 155.562 191.937C156.116 195.812 157.592 197.954 160 201C163.202 202.601 166.526 202.499 170 202C172.81 200.206 174.509 198.981 176 196C176.455 191.451 176.717 188.326 173.937 184.562C168.929 180.193 164.19 179.675 159 184Z" fill="#FEFCFC"/>
<path d="M68 174C71.8631 176.41 74.5455 178.636 76 183C76.0832 185.065 76.1074 187.133 76.0977 189.199C76.0944 190.408 76.0912 191.616 76.0879 192.861C76.0753 194.755 76.0753 194.755 76.0625 196.687C76.058 197.962 76.0535 199.236 76.0488 200.549C76.037 203.699 76.0206 206.85 76 210C72.625 210.187 72.625 210.187 69 210C66.8358 206.754 66.7437 205.76 66.6914 202C66.6663 201.031 66.6411 200.061 66.6152 199.062C66.5801 197.021 66.5488 194.979 66.5215 192.937C66.4951 191.968 66.4686 190.999 66.4414 190C66.428 189.113 66.4145 188.226 66.4006 187.312C66.1658 184.95 66.1658 184.95 64.6912 183.191C62.8678 181.67 62.8678 181.67 59.5 181.937C55.8852 182.642 55.8852 182.642 54.3242 185.387C52.5442 190.244 52.4343 194.739 52.3125 199.875C52.2783 200.85 52.2442 201.824 52.209 202.828C52.127 205.219 52.0577 207.609 52 210C49.6671 210.042 47.333 210.041 45 210C44 209 44 209 43.8865 205.674C43.8866 204.198 43.8923 202.722 43.9023 201.246C43.9045 200.083 43.9045 200.083 43.9066 198.896C43.9122 196.41 43.9248 193.924 43.9375 191.437C43.9425 189.756 43.9471 188.074 43.9512 186.393C43.9622 182.262 43.9795 178.131 44 174C46.64 174 49.28 174 52 174C52.33 174.66 52.66 175.32 53 176C53.8044 175.484 54.6087 174.969 55.4375 174.437C60.0061 172.594 63.3062 172.511 68 174Z" fill="#F8F4F4"/>
<path d="M125 174C127.97 174 130.94 174 134 174C134.33 174.99 134.66 175.98 135 177C135.33 176.505 135.66 176.01 136 175.5C139.176 173.118 142.102 173.808 146 174C146 176.97 146 179.94 146 183C144.67 182.845 144.67 182.845 143.312 182.687C139.924 182.738 139.924 182.738 137.344 184.812C133.918 189.472 134.22 193.666 134.188 199.312C134.162 200.339 134.137 201.366 134.111 202.424C134.053 204.95 134.016 207.474 134 210C130.625 210.125 130.625 210.125 127 210C125 208 125 208 124.773 204.652C124.773 203.224 124.785 201.795 124.805 200.367C124.808 199.615 124.81 198.863 124.813 198.089C124.824 195.684 124.85 193.28 124.875 190.875C124.885 189.246 124.894 187.617 124.902 185.988C124.924 181.992 124.959 177.996 125 174Z" fill="#FCFBFB"/>
<path d="M190 174C192.97 174 195.94 174 199 174C199 185.88 199 197.76 199 210C196.69 210 194.38 210 192 210C190 208 190 208 189.773 204.652C189.773 203.224 189.785 201.795 189.805 200.367C189.808 199.615 189.81 198.864 189.813 198.089C189.824 195.684 189.85 193.28 189.875 190.875C189.885 189.246 189.894 187.617 189.902 185.988C189.924 181.992 189.959 177.996 190 174Z" fill="#FEFCFC"/>
<path d="M45.3398 -0.566406C48 0 48 0 50.3164 3.03516C51.084 4.36687 51.8321 5.71002 52.5625 7.0625C52.9357 7.71928 53.3089 8.37605 53.6934 9.05273C54.44 10.3708 55.1766 11.6945 55.9028 13.0239C56.6443 14.3595 57.4119 15.6808 58.2026 16.9878C59.1917 18.6257 60.1032 20.3098 61 22C60 24 60 24 58 25C58 24.01 58 23.02 58 22C57.34 21.67 56.68 21.34 56 21C55.67 20.67 55.34 20.34 55 20C54.34 21.98 53.68 23.96 53 26C50.1419 22.365 47.7253 18.4992 45.3125 14.5625C44.8968 13.907 44.4811 13.2515 44.0527 12.5762C40.2135 6.29087 40.2135 6.29087 41 2C43 0 43 0 45.3398 -0.566406Z" fill="#38D584"/>
<path d="M195.625 156.125C198 157 198 157 200 160C199.676 163.322 199.392 164.608 197 167C193.375 166.625 193.375 166.625 190 166C189.67 163.69 189.34 161.38 189 159C191.344 156.829 192.367 155.97 195.625 156.125Z" fill="white"/>
<path d="M238 122C238.33 122 238.66 122 239 122C239.33 126.29 239.66 130.58 240 135C237.36 135 234.72 135 232 135C232.812 131.562 232.812 131.562 234 128C234.99 127.67 235.98 127.34 237 127C237.33 125.35 237.66 123.7 238 122Z" fill="#38D687"/>
<path d="M195 8.00001C195 9.98001 195 11.96 195 14C193.68 14.33 192.36 14.66 191 15C191 15.66 191 16.32 191 17C190.34 17 189.68 17 189 17C189 16.34 189 15.68 189 15C188.34 14.67 187.68 14.34 187 14C187.602 11.9796 188.273 9.9789 189 8.00001C191.491 6.75455 192.411 7.22325 195 8.00001Z" fill="#31DB82"/>
<path d="M164 81C164.66 81 165.32 81 166 81C166 81.99 166 82.98 166 84C166.66 84.33 167.32 84.66 168 85C167.608 86.0312 167.216 87.0625 166.812 88.125C165.679 91.9391 165.679 91.9391 167.062 95.3125C169.199 98.2757 170.524 99.0605 174 100C174 100.33 174 100.66 174 101C171.75 101.312 171.75 101.312 169 101C164.814 96.5812 163.878 93.9806 164 88C164.224 85.0745 164.224 85.0745 163 83C163.33 82.34 163.66 81.68 164 81Z" fill="#38CA82"/>
<path d="M53 26C53.66 26 54.32 26 55 26C55 26.66 55 27.32 55 28C55.66 28 56.32 28 57 28C57.3094 29.1756 57.3094 29.1756 57.625 30.375C58.8068 33.3092 58.8068 33.3092 62.125 34.3125C63.0738 34.5394 64.0225 34.7662 65 35C64.01 36.485 64.01 36.485 63 38C62.34 38 61.68 38 61 38C60.67 38.66 60.34 39.32 60 40C57.69 35.38 55.38 30.76 53 26Z" fill="#3DCE86"/>
<path d="M162 33C164.97 33.99 167.94 34.98 171 36C171 36.33 171 36.66 171 37C169.329 37.4641 169.329 37.4641 167.625 37.9375C164.205 38.8233 164.205 38.8233 162 40C161.34 39.67 160.68 39.34 160 39C160 38.34 160 37.68 160 37C160.66 37 161.32 37 162 37C161.67 36.01 161.34 35.02 161 34C161.33 33.67 161.66 33.34 162 33Z" fill="#38D386"/>
<path d="M44 51C44.66 51.33 45.32 51.66 46 52C42.6732 56.3052 39.6847 59.1094 35 62C33.6582 62.9887 32.321 63.9838 31 65C32.5658 60.9628 35.4417 58.5293 38.625 55.75C39.1406 55.2911 39.6562 54.8322 40.1875 54.3594C41.4535 53.2341 42.7261 52.1163 44 51Z" fill="#41C685"/>
<path d="M62 25C68 32.7143 68 32.7143 68 36C67.01 35.67 66.02 35.34 65 35C65 34.01 65 33.02 65 32C64.01 32.33 63.02 32.66 62 33C62 30.36 62 27.72 62 25Z" fill="#3CCC85"/>
<path d="M49 19C50.98 19 52.96 19 55 19C54.34 21.31 53.68 23.62 53 26C51.1079 23.6143 49.9761 21.9282 49 19Z" fill="#3DD184"/>
<path d="M76 34C75.34 35.65 74.68 37.3 74 39C72.02 38.34 70.04 37.68 68 37C70.7743 35.1505 72.6404 34 76 34Z" fill="#39D088"/>
<path d="M24 72C25.2078 75.6233 24.5431 76.6415 23 80C22.01 79.67 21.02 79.34 20 79C21.074 76.0848 21.7781 74.2219 24 72Z" fill="#38CC82"/>
</g>
<defs>
<clipPath id="clip0_321_160">
<rect width="240" height="210" fill="white"/>
</clipPath>
</defs>
</svg>
