<svg width="645" height="270" viewBox="0 0 645 270" fill="none" xmlns="http://www.w3.org/2000/svg">
<g clip-path="url(#clip0_309_13)">
<path d="M0 0C212.85 0 425.7 0 645 0C645 89.1 645 178.2 645 270C432.15 270 219.3 270 0 270C0 180.9 0 91.8 0 0Z" fill="#FEFEFE"/>
<path d="M94.2952 143.066C99.0483 143.654 101.7 145.898 104.614 149.221C105.91 150.878 107.149 152.56 108.373 154.263C109.268 155.48 110.163 156.698 111.059 157.915C111.487 158.501 111.914 159.087 112.355 159.691C113.884 161.777 115.456 163.833 117.04 165.884C118.525 167.812 120.01 169.74 121.483 171.675C125.78 177.317 130.195 182.879 134.626 188.433C135.136 189.073 135.646 189.714 136.171 190.374C136.632 190.952 137.092 191.529 137.567 192.124C139.917 195.209 140.036 197.477 139.61 201.226C137.115 203.917 135.629 204.549 131.794 204.968C128.442 204.623 128.442 204.623 126.169 202.848C125.518 202.05 124.866 201.252 124.195 200.43C123.541 199.652 122.887 198.874 122.214 198.072C120.054 195.319 118.01 192.496 115.961 189.674C113.467 186.25 110.918 182.861 108.373 179.469C107.86 178.784 107.347 178.099 106.818 177.393C105.815 176.056 104.809 174.72 103.8 173.387C102.878 172.166 101.962 170.942 101.055 169.712C98.8657 166.554 98.8657 166.554 95.3423 164.929C92.1039 165.838 91.0742 167.191 89.3507 169.811C88.7623 172.914 89.3391 174.039 91.1576 176.773C91.9606 177.767 92.7744 178.754 93.5971 179.735C94.0175 180.257 94.4379 180.78 94.871 181.319C96.7804 183.692 98.7295 186.026 100.727 188.338C104.092 192.359 106.153 195.317 105.62 200.503C105.173 202.075 105.173 202.075 103.777 203.827C100.494 204.95 97.4275 205.254 94.0043 204.623C91.9352 202.867 90.6863 201.567 89.1761 199.475C88.7846 198.972 88.393 198.469 87.9895 197.951C86.8711 196.508 85.7838 195.048 84.697 193.585C83.7307 192.362 82.7621 191.141 81.7884 189.923C81.2125 189.17 80.6366 188.417 80.0433 187.642C77.5038 187.688 75.901 188.009 74.1058 189.7C72.7483 191.334 71.4693 192.999 70.2124 194.699C62.9947 204.218 62.9947 204.218 59.5671 205.104C55.999 205.097 54.464 204.976 51.5977 202.871C49.9233 199.75 50.0417 197.656 51.1905 194.434C52.9098 191.618 54.9682 189.064 57.0658 186.474C57.6542 185.728 58.2427 184.982 58.8491 184.214C60.0565 182.684 61.2685 181.157 62.4852 179.633C64.961 176.523 67.3827 173.38 69.8052 170.236C70.7055 169.075 71.606 167.914 72.5065 166.753C74.6459 163.989 76.7677 161.214 78.8835 158.435C79.4732 157.662 80.0629 156.889 80.6705 156.092C81.8193 154.585 82.9659 153.076 84.1098 151.565C84.8918 150.54 84.8918 150.54 85.6895 149.494C86.1497 148.887 86.6099 148.281 87.084 147.657C90.4333 143.598 90.4333 143.598 94.2952 143.066Z" fill="#C34298"/>
<path d="M246.3 157.056C249.735 158.937 251.543 160.483 253.16 163.868C253.644 163.459 254.127 163.049 254.625 162.627C255.274 162.091 255.924 161.555 256.592 161.002C257.229 160.47 257.866 159.938 258.523 159.39C262.761 156.408 266.429 155.977 271.717 155.961C273.371 155.94 273.371 155.94 275.058 155.918C280.078 156.397 283.692 158.086 286.899 161.639C287.346 162.119 287.792 162.598 288.252 163.092C291.389 167.315 291.574 171.27 291.502 176.249C291.499 176.94 291.497 177.631 291.494 178.344C291.484 180.541 291.46 182.738 291.437 184.935C291.427 186.429 291.419 187.923 291.411 189.418C291.392 193.071 291.356 196.724 291.32 200.377C286.099 200.377 280.877 200.377 275.498 200.377C275.446 197.417 275.446 197.417 275.392 194.397C275.349 192.478 275.302 190.559 275.254 188.64C275.223 187.31 275.197 185.98 275.175 184.65C275.144 182.733 275.095 180.818 275.043 178.902C275.037 178.311 275.031 177.72 275.025 177.111C274.905 173.438 274.301 171.009 271.775 168.113C268.383 167.082 265.031 166.482 261.537 167.264C258.274 169.606 257.01 170.864 256.269 174.641C256.231 175.84 256.218 177.04 256.225 178.239C256.211 178.874 256.197 179.508 256.182 180.162C256.143 182.178 256.134 184.193 256.127 186.209C256.105 187.58 256.082 188.952 256.056 190.323C255.994 193.675 255.974 197.024 255.952 200.377C250.731 200.377 245.51 200.377 240.13 200.377C240.117 198.2 240.103 196.023 240.09 193.781C240.061 191.673 240.025 189.566 239.988 187.458C239.966 185.993 239.953 184.528 239.948 183.063C239.939 180.956 239.901 178.852 239.857 176.746C239.861 176.091 239.865 175.435 239.868 174.76C239.858 172.686 239.858 172.686 239.199 169.811C235.855 167.309 233.111 166.769 228.899 166.899C225.813 167.525 224.334 169.317 222.446 171.509C221.076 174.009 221.294 176.572 221.221 179.317C221.201 179.917 221.182 180.518 221.162 181.137C221.101 183.057 221.046 184.978 220.992 186.899C220.951 188.2 220.911 189.501 220.87 190.802C220.769 193.994 220.677 197.186 220.584 200.377C215.67 200.377 210.756 200.377 205.693 200.377C205.693 186.088 205.693 171.798 205.693 157.075C210.607 157.075 215.521 157.075 220.584 157.075C220.584 158.757 220.584 160.438 220.584 162.17C221.09 161.812 221.595 161.454 222.115 161.085C222.781 160.62 223.447 160.155 224.133 159.676C224.792 159.213 225.45 158.75 226.129 158.273C231.499 154.891 240.343 155.037 246.3 157.056Z" fill="#060606"/>
<path d="M470.952 143.491C476.174 143.491 481.395 143.491 486.775 143.491C486.775 149.935 486.775 156.379 486.775 163.019C487.389 163.019 488.003 163.019 488.636 163.019C488.828 162.529 489.02 162.038 489.218 161.533C491.039 158.815 493.033 157.769 496.082 156.226C498.706 155.895 500.867 155.737 503.47 155.802C504.131 155.813 504.792 155.825 505.473 155.837C510.676 156.025 513.604 156.472 517.489 159.623C521.997 165.015 523.213 169.332 523.164 176.083C523.163 176.777 523.162 177.47 523.161 178.185C523.155 180.4 523.144 182.614 523.132 184.829C523.127 186.331 523.123 187.833 523.119 189.335C523.11 193.016 523.091 196.696 523.074 200.377C517.852 200.377 512.631 200.377 507.251 200.377C507.238 198.343 507.225 196.308 507.211 194.212C507.183 192.233 507.146 190.255 507.109 188.277C507.088 186.906 507.074 185.535 507.069 184.163C507.06 182.188 507.022 180.214 506.978 178.239C506.982 177.629 506.986 177.02 506.99 176.392C506.884 173.055 506.422 171.624 504.085 169.001C500.905 166.717 499.202 166.65 495.297 166.84C492.086 167.519 490.582 169.18 488.636 171.509C487.266 174.009 487.484 176.572 487.411 179.317C487.392 179.917 487.372 180.518 487.353 181.137C487.292 183.057 487.237 184.978 487.182 186.899C487.142 188.2 487.101 189.501 487.06 190.802C486.96 193.994 486.868 197.186 486.775 200.377C481.553 200.377 476.332 200.377 470.952 200.377C470.952 181.605 470.952 162.832 470.952 143.491Z" fill="#0A0A0A"/>
<path d="M567.098 158.541C570.824 161.088 573.434 163.846 574.264 168.113C574.481 170.381 574.657 172.633 574.788 174.906C574.827 175.564 574.867 176.223 574.907 176.902C575.331 184.725 575.275 192.547 575.195 200.377C570.588 200.377 565.98 200.377 561.234 200.377C560.773 197.856 560.773 197.856 560.303 195.283C559.809 195.641 559.314 195.999 558.805 196.368C557.819 197.065 557.819 197.065 556.813 197.777C556.165 198.24 555.517 198.703 554.849 199.18C549.5 202.395 542.232 201.9 536.104 201.226C531.9 199.423 529.351 197.08 526.796 193.585C526.103 189.763 525.868 185.921 527.818 182.401C533.062 176.431 540.067 175.37 547.971 174.428C549.537 174.238 551.103 174.043 552.668 173.841C553.353 173.759 554.038 173.678 554.743 173.594C556.864 173.252 556.864 173.252 559.372 171.509C559.605 169.316 559.605 169.316 559.372 167.264C556.534 166.401 554.436 166.247 551.461 166.203C550.122 166.17 550.122 166.17 548.756 166.137C546.325 166.233 546.325 166.233 544.684 167.543C543.362 169.046 543.362 169.046 542.619 171.509C537.705 171.509 532.79 171.509 527.727 171.509C528.686 165.385 529.289 163.386 534.242 159.623C542.781 154.42 558.095 153.991 567.098 158.541Z" fill="#080808"/>
<path d="M336.926 158.508C342.527 162.36 345.256 166.266 347.164 172.358C347.164 175.441 347.164 178.523 347.164 181.698C334.879 181.698 322.593 181.698 309.935 181.698C311.863 187.859 311.863 187.859 316.45 191.038C319.914 191.61 323.217 191.561 326.688 191.038C327.978 189.968 329.268 188.895 330.462 187.738C334.798 185.474 341.353 186.538 346.234 186.792C345.736 190.131 344.822 192.007 342.394 194.54C341.874 195.103 341.353 195.665 340.817 196.245C333.182 202.211 322.73 201.147 313.282 200.63C307.36 200.011 303.71 197.715 300.053 193.582C298.827 191.916 297.827 190.31 296.905 188.491C296.566 187.849 296.228 187.208 295.879 186.547C293.845 180.946 293.816 172.986 296.614 167.583C299.837 162.817 304.802 158.261 310.78 156.574C318.912 155.121 329.649 154.621 336.926 158.508Z" fill="#050505"/>
<path d="M456.991 158.774C462.17 162.015 465.436 165.138 467.229 170.66C467.229 172.061 467.229 173.462 467.229 174.906C462.315 174.906 457.401 174.906 452.338 174.906C451.416 172.944 450.495 170.983 449.545 168.962C445.203 166.321 440.669 166.751 435.584 167.264C432.758 168.68 431.376 169.417 430.371 172.222C429.284 177.597 429.352 183.495 431.861 188.491C435.786 190.406 439.572 190.546 443.961 190.189C447.048 189.417 447.048 189.417 449.545 187.641C450.467 185.68 451.388 183.719 452.338 181.698C457.252 181.698 462.166 181.698 467.229 181.698C466.037 189.315 464.757 192.287 458.424 197.147C450.962 201.985 441.647 202.156 432.792 201.226C425.172 199.033 419.828 194.909 416.039 188.491C415.549 187.762 415.549 187.762 415.05 187.018C412.391 181.156 413.537 172.918 416.064 167.115C418.603 162.771 423.519 159.527 428.138 157.075C436.464 154.825 449.401 154.725 456.991 158.774Z" fill="#060606"/>
<path d="M356.472 143.491C362.308 143.491 368.143 143.491 374.156 143.491C374.156 147.974 374.156 152.457 374.156 157.076C379.377 157.076 384.599 157.076 389.978 157.076C389.978 160.438 389.978 163.8 389.978 167.264C385.064 167.264 380.15 167.264 375.087 167.264C375.087 174.549 375.087 181.834 375.087 189.34C380.001 189.34 384.915 189.34 389.978 189.34C389.978 192.982 389.978 196.625 389.978 200.377C386.682 200.446 383.387 200.497 380.089 200.537C379.159 200.558 378.23 200.579 377.272 200.601C371.25 200.656 367.163 200.156 362.289 196.663C359.287 193.103 359.04 189.616 359.082 185.237C359.088 184.14 359.094 183.043 359.1 181.912C359.116 180.762 359.132 179.611 359.148 178.461C359.157 177.294 359.166 176.127 359.173 174.96C359.195 172.112 359.226 169.264 359.264 166.415C355.886 166.415 352.507 166.415 349.026 166.415C349.026 163.333 349.026 160.251 349.026 157.076C353.94 157.076 358.855 157.076 363.918 157.076C363.918 156.515 363.918 155.955 363.918 155.377C363.035 155.15 362.152 154.922 361.242 154.688C358.333 153.679 358.333 153.679 356.472 151.132C356.472 148.61 356.472 146.089 356.472 143.491Z" fill="#080808"/>
<path d="M131.234 143.491C135.681 146.396 138.505 149.585 141.472 153.732C142.36 154.942 143.25 156.152 144.14 157.361C144.609 158.001 145.078 158.641 145.561 159.3C148.218 162.89 150.957 166.427 153.688 169.971C158.067 175.665 162.436 181.366 166.747 187.104C168.213 189.014 169.744 190.845 171.314 192.683C173.363 195.638 173.932 196.959 173.117 200.377C171.197 202.818 171.197 202.818 168.463 204.623C165.147 205.1 165.147 205.1 161.948 204.623C158.391 201.927 156.006 198.438 153.455 194.965C152.541 193.736 151.626 192.508 150.71 191.28C150.253 190.666 149.795 190.052 149.324 189.42C147.384 186.839 145.393 184.292 143.392 181.751C142.63 180.783 141.869 179.814 141.108 178.846C140.719 178.351 140.33 177.855 139.929 177.345C136.179 172.57 132.449 167.783 128.77 162.962C127.976 161.927 127.176 160.895 126.368 159.868C120.49 152.393 120.49 152.393 120.879 148.585C122.989 143.452 125.176 142.741 131.234 143.491Z" fill="#B6419D"/>
<path d="M394.632 144.34C399.853 144.34 405.075 144.34 410.454 144.34C410.454 163.112 410.454 181.885 410.454 201.226C405.233 201.226 400.012 201.226 394.632 201.226C394.632 186.657 394.632 172.087 394.632 157.075C398.778 156.655 398.778 156.655 403.009 156.226C401.799 155.824 400.59 155.421 399.344 155.006C395.679 153.785 395.679 153.785 394.632 152.83C394.499 149.998 394.593 147.176 394.632 144.34Z" fill="#101010"/>
<path d="M483.983 60.283C486.133 60.283 488.283 60.283 490.498 60.283C490.498 72.6113 490.498 84.9396 490.498 97.6415C488.348 97.6415 486.198 97.6415 483.983 97.6415C483.676 96.8009 483.368 95.9604 483.052 95.0943C482.745 95.4971 482.438 95.8999 482.121 96.3149C479.295 98.3291 476.298 98.581 472.814 98.4906C467.957 97.0421 465.979 94.8596 463.507 90.8491C461.838 86.2837 461.621 80.8263 463.245 76.2128C465.133 72.9683 467.202 70.9152 470.952 69.6226C476.293 69.0028 478.6 69.124 483.052 72.1698C483.359 68.2472 483.666 64.3245 483.983 60.283Z" fill="#737A87"/>
<path d="M513.766 60.283C515.916 60.283 518.066 60.283 520.281 60.283C520.589 64.2057 520.896 68.1283 521.212 72.1698C522.441 71.3292 523.669 70.4887 524.935 69.6226C529.187 68.8399 532.566 69.295 536.453 71.0024C539.979 73.9127 541.437 76.1076 541.983 80.468C542.264 87.0445 541.164 91.7442 536.395 96.7394C532.982 98.1698 529.62 98.7221 525.866 98.4906C523.015 96.8455 523.015 96.8455 521.212 95.0943C520.905 95.9349 520.598 96.7755 520.281 97.6415C518.131 97.6415 515.981 97.6415 513.766 97.6415C513.766 85.3132 513.766 72.9849 513.766 60.283Z" fill="#747B88"/>
<path d="M265.26 60.283C283.874 60.283 283.874 60.283 289.459 62.8302C293.367 66.7811 294.448 69.2242 294.374 74.445C293.968 77.5022 292.591 79.2298 290.39 81.5094C284.294 85.4425 279.032 84.9768 271.775 84.9057C271.775 89.1085 271.775 93.3113 271.775 97.6415C269.625 97.6415 267.475 97.6415 265.26 97.6415C265.26 85.3132 265.26 72.9849 265.26 60.283Z" fill="#747A88"/>
<path d="M319.301 70.15C323.242 71.8934 325.293 74.295 327.005 77.9374C328.537 82.6124 328.261 86.674 326.048 91.1144C324.201 94.0411 322.56 95.9965 319.242 97.6415C314.789 98.6215 311.166 98.865 306.794 97.5354C303.029 95.0823 300.563 92.1731 298.766 88.3019C297.855 82.6668 298.365 78.1555 302.111 73.523C306.664 68.8158 312.875 68.3849 319.301 70.15Z" fill="#737A87"/>
<path d="M330.411 69.6226C332.561 69.6226 334.711 69.6226 336.926 69.6226C338.769 75.5066 340.612 81.3905 342.511 87.4528C344.261 83.1942 345.714 79.5296 346.815 75.1945C347.998 70.5603 347.998 70.5603 349.026 69.6226C351.197 69.5879 353.37 69.5866 355.541 69.6226C356.324 72.0795 357.099 74.5383 357.868 76.9988C358.09 77.6921 358.312 78.3855 358.541 79.0999C359.603 82.5212 360.516 85.5552 360.195 89.1509C360.809 89.1509 361.423 89.1509 362.056 89.1509C362.133 88.1352 362.21 87.1195 362.289 86.0731C362.954 80.4151 364.892 75.0444 366.71 69.6226C368.86 69.6226 371.01 69.6226 373.225 69.6226C371.056 79.1364 367.989 88.364 364.848 97.6415C362.698 97.6415 360.548 97.6415 358.333 97.6415C356.827 93.6062 355.362 89.5588 353.971 85.4894C353.737 84.8097 353.503 84.13 353.262 83.4297C352.749 81.5094 352.749 81.5094 352.749 78.1132C352.135 78.1132 351.52 78.1132 350.887 78.1132C350.734 79.0539 350.734 79.0539 350.578 80.0136C349.549 86.0249 348.122 91.8072 346.234 97.6415C343.777 97.6415 341.319 97.6415 338.788 97.6415C337.736 94.4057 336.691 91.1682 335.647 87.9304C335.351 87.0225 335.056 86.1146 334.752 85.1792C333.092 80.0214 331.612 74.8856 330.411 69.6226Z" fill="#747A88"/>
<path d="M447.684 69.6226C451.078 70.7382 453.558 72.3773 456.002 74.8231C456.991 77.2641 456.991 77.2641 456.991 85.7547C449.927 85.7547 442.863 85.7547 435.584 85.7547C437.457 91.507 437.457 91.507 440.238 92.5472C443.981 92.7676 443.981 92.7676 447.684 92.5472C449.197 91.309 449.197 91.309 450.476 90C453.443 89.8408 453.443 89.8408 456.061 90C455.79 92.9646 455.357 94.0432 452.978 96.1556C448.782 98.648 445.244 98.9472 440.238 98.4906C436.384 96.9911 433.547 95.1062 430.931 92.1226C429.154 86.4512 428.802 80.5089 431.512 75.0884C436.517 70.4029 440.562 68.504 447.684 69.6226Z" fill="#727986"/>
<path d="M394.632 69.6226C398.026 70.7382 400.506 72.3773 402.951 74.8231C403.939 77.2641 403.939 77.2641 403.939 85.7547C396.875 85.7547 389.811 85.7547 382.533 85.7547C384.405 91.507 384.405 91.507 387.186 92.5472C390.929 92.7676 390.929 92.7676 394.632 92.5472C396.145 91.309 396.145 91.309 397.424 90C400.391 89.8408 400.391 89.8408 403.009 90C402.738 92.9646 402.306 94.0432 399.926 96.1556C395.73 98.648 392.192 98.9472 387.186 98.4906C383.332 96.9911 380.495 95.1062 377.879 92.1226C376.103 86.4512 375.75 80.5089 378.461 75.0884C383.465 70.4029 387.51 68.504 394.632 69.6226Z" fill="#727986"/>
<path d="M545.411 69.6226C547.561 69.6226 549.711 69.6226 551.926 69.6226C553.019 72.5392 554.102 75.4585 555.184 78.3785C555.495 79.2076 555.805 80.0367 556.126 80.8909C556.42 81.6871 556.714 82.4833 557.016 83.3037C557.289 84.0374 557.562 84.771 557.843 85.5269C558.442 87.4528 558.442 87.4528 558.442 90C559.056 90 559.67 90 560.303 90C560.514 89.0018 560.725 88.0036 560.943 86.9752C562.369 81.0483 564.651 75.3506 566.818 69.6226C568.968 69.6226 571.118 69.6226 573.333 69.6226C571.256 76.3112 568.799 82.8674 566.212 89.4032C565.761 90.5497 565.315 91.6982 564.875 92.8483C564.229 94.5356 563.566 96.2165 562.899 97.8969C562.512 98.8877 562.125 99.8786 561.727 100.899C560.142 103.889 558.411 105.684 555.649 107.83C553.363 108.245 553.363 108.245 551.17 108.095C550.435 108.057 549.699 108.019 548.942 107.979C548.115 107.906 548.115 107.906 547.273 107.83C547.58 106.429 547.887 105.028 548.203 103.585C549.557 103.217 549.557 103.217 550.937 102.842C553.887 102.191 553.887 102.191 554.719 100.189C554.425 93.4812 552.138 87.7979 549.541 81.5625C548.762 79.6629 547.985 77.7625 547.211 75.8612C546.866 75.0295 546.521 74.1977 546.165 73.3408C545.411 71.3207 545.411 71.3207 545.411 69.6226Z" fill="#727986"/>
<path d="M317.381 74.717C319.969 76.5937 320.942 77.9569 321.424 80.9523C321.601 85.4215 321.097 88.7353 318.312 92.5472C315.434 93.8597 313.105 93.6455 309.935 93.3962C307.734 91.811 306.528 90.5768 305.281 88.3019C304.806 83.8829 304.48 80.1811 307.026 76.309C310.632 73.4068 312.732 73.6934 317.381 74.717Z" fill="#FBFBFC"/>
<path d="M528.251 73.8149C531.644 74.7716 533.003 75.6 535.173 78.1132C536.661 80.8282 536.447 83.6503 536.104 86.6038C534.648 90.0192 533.882 91.3513 530.519 93.3962C527.368 93.7021 525.561 93.7205 522.783 92.2819C519.949 89.6966 520.056 86.8 519.932 83.3137C519.975 79.7404 520.086 78.3999 522.201 75.3007C524.935 73.8679 524.935 73.8679 528.251 73.8149Z" fill="#F9FAFA"/>
<path d="M476.944 73.9741C480.635 74.801 481.685 75.4233 483.983 78.1132C484.444 80.5244 484.444 80.5244 484.39 83.1545C484.389 84.0202 484.388 84.886 484.386 85.7779C483.933 88.6131 483.035 90.247 481.191 92.5472C478.502 93.7735 476.726 93.7162 473.745 93.3962C470.858 91.2309 469.346 89.8497 468.16 86.6038C467.839 82.0572 467.729 79.2693 470.952 75.566C473.745 73.8679 473.745 73.8679 476.944 73.9741Z" fill="#F9FAFA"/>
<path d="M410.455 69.6227C412.297 69.6227 414.14 69.6227 416.039 69.6227C416.346 70.7434 416.653 71.8642 416.97 73.0189C417.45 72.4585 417.93 71.8981 418.424 71.3208C421.437 69.0654 423.416 69.3565 427.208 69.6227C427.208 71.3038 427.208 72.9849 427.208 74.717C426.317 74.8861 426.317 74.8861 425.408 75.0586C424.255 75.2835 424.255 75.2835 423.078 75.513C421.928 75.7346 421.928 75.7346 420.754 75.9607C418.853 76.2517 418.853 76.2517 417.9 77.2642C417.754 78.7744 417.667 80.2895 417.606 81.8046C417.567 82.7213 417.528 83.6379 417.488 84.5823C417.451 85.5471 417.415 86.5119 417.377 87.5059C417.317 88.958 417.317 88.958 417.255 90.4395C417.156 92.84 417.061 95.2407 416.97 97.6415C414.82 97.6415 412.67 97.6415 410.455 97.6415C410.455 88.3953 410.455 79.1491 410.455 69.6227Z" fill="#767C89"/>
<path d="M271.775 65.3774C282.836 65.0126 282.836 65.0126 286.667 67.9245C287.597 68.7736 287.597 68.7736 287.946 71.9576C287.87 74.713 287.559 75.6255 285.969 78.1132C281.266 80.7534 277.232 80.0849 271.775 79.8113C271.775 75.0481 271.775 70.2849 271.775 65.3774Z" fill="#FDFDFD"/>
<path d="M327.968 165.778C330.499 167.317 331.402 168.04 332.273 170.66C332.273 171.781 332.273 172.902 332.273 174.057C324.901 174.057 317.53 174.057 309.935 174.057C310.854 169.867 311.496 168.553 314.589 165.566C319.342 164.121 323.341 164.215 327.968 165.778Z" fill="#F2F2F2"/>
<path d="M560.303 180C560.771 184.488 559.695 186.716 556.58 190.189C553.727 191.836 551.438 192.138 548.087 192.152C546.874 192.173 546.874 192.173 545.637 192.195C544.948 192.093 544.259 191.992 543.55 191.887C541.688 189.34 541.688 189.34 541.746 187.27C542.924 184.333 544.437 183.431 547.273 181.698C550.341 180.995 550.341 180.995 553.555 180.637C554.625 180.51 555.696 180.383 556.798 180.252C559.372 180 559.372 180 560.303 180Z" fill="#F4F4F4"/>
<path d="M446.935 74.1963C448.615 74.717 448.615 74.717 450.476 76.2559C451.407 78.1132 451.407 78.1132 451.407 81.5094C446.186 81.5094 440.964 81.5094 435.584 81.5094C436.515 77.2642 436.515 77.2642 438.435 75.2476C441.677 73.6116 443.37 73.5887 446.935 74.1963Z" fill="#F6F7F7"/>
<path d="M393.883 74.1963C395.563 74.717 395.563 74.717 397.424 76.2559C398.355 78.1132 398.355 78.1132 398.355 81.5094C393.134 81.5094 387.912 81.5094 382.532 81.5094C383.463 77.2642 383.463 77.2642 385.383 75.2476C388.625 73.6116 390.318 73.5887 393.883 74.1963Z" fill="#F6F7F7"/>
<path d="M304.351 159.623C304.965 159.903 305.579 160.183 306.212 160.472C304.062 162.433 301.912 164.394 299.697 166.415C299.697 163.868 299.697 163.868 302.024 161.586C302.792 160.938 303.56 160.29 304.351 159.623Z" fill="#1F1F1F"/>
</g>
<defs>
<clipPath id="clip0_309_13">
<rect width="645" height="270" fill="white"/>
</clipPath>
</defs>
</svg>
