<svg width="97" height="96" viewBox="0 0 97 96" fill="none" xmlns="http://www.w3.org/2000/svg">
<path d="M39.9429 0.891483C40.752 0.892607 41.561 0.891552 42.3701 0.890887C43.7263 0.890116 45.0824 0.891108 46.4385 0.893182C47.9839 0.895519 49.5293 0.89476 51.0747 0.892397C52.4258 0.890418 53.7769 0.890186 55.128 0.891297C55.9244 0.891951 56.7207 0.892102 57.517 0.890637C60.8532 0.885353 64.1774 0.945209 67.5078 1.14327C67.6543 1.15179 67.8007 1.1603 67.9516 1.16907C75.5656 1.62204 83.5713 2.94307 89.041 8.68358C89.041 8.82537 89.041 8.96717 89.041 9.11326C89.1841 9.11326 89.3272 9.11326 89.4746 9.11326C89.8361 9.54418 90.1657 9.97222 90.4908 10.4292C90.5876 10.565 90.6843 10.7009 90.784 10.8409C97.697 20.7766 96.0523 35.1461 96.0342 46.6284C96.0324 47.9544 96.0337 49.2804 96.0358 50.6064C96.0378 51.9123 96.038 53.2182 96.0369 54.5241C96.0363 55.293 96.0361 56.0619 96.0376 56.8307C96.0431 60.1335 95.9757 63.4229 95.7827 66.7199C95.7741 66.8703 95.7655 67.0207 95.7566 67.1757C95.3643 73.8968 94.2924 80.5528 90.125 86.0273C90.0076 86.1946 89.8902 86.3619 89.7693 86.5342C89.672 86.6505 89.5748 86.7669 89.4746 86.8867C89.3315 86.8867 89.1884 86.8867 89.041 86.8867C88.9739 87.0637 88.9739 87.0637 88.9055 87.2442C88.4948 87.9356 87.9226 88.3956 87.3066 88.9009C87.1791 89.0058 87.0516 89.1106 86.9202 89.2187C81.4901 93.6109 74.2192 94.4381 67.4513 94.8575C67.3052 94.8666 67.1592 94.8757 67.0087 94.885C63.3583 95.1063 59.7095 95.1142 56.0536 95.1085C55.1081 95.1074 54.1627 95.1084 53.2172 95.1091C51.6365 95.1098 50.0559 95.1088 48.4752 95.1068C46.6555 95.1044 44.8357 95.1052 43.016 95.1076C41.4383 95.1095 39.8606 95.1098 38.283 95.1087C37.3471 95.108 36.4112 95.1079 35.4753 95.1093C34.599 95.1106 33.7227 95.1097 32.8464 95.1072C32.5273 95.1067 32.2081 95.1068 31.889 95.1078C30.0048 95.1129 28.2352 94.9807 26.3867 94.6211C25.9132 94.556 25.4393 94.4937 24.9648 94.4364C19.4261 93.7351 14.3182 92.6093 9.91014 89.0351C9.71228 88.8767 9.51442 88.7183 9.31056 88.5551C3.9269 83.9949 2.29876 77.1665 1.52281 70.478C1.49693 70.2578 1.47104 70.0375 1.44437 69.8106C0.972652 65.4227 0.986033 61.0059 0.985207 56.5986C0.98505 56.1269 0.984584 55.6551 0.984016 55.1834C0.982023 53.5228 0.981124 51.8623 0.981297 50.2017C0.981426 48.678 0.979149 47.1542 0.975716 45.6305C0.972836 44.3027 0.971719 42.975 0.971855 41.6472C0.971909 40.8629 0.971363 40.0787 0.968997 39.2944C0.959631 35.9493 1.02046 32.6182 1.21683 29.2786C1.22543 29.1289 1.23404 28.9792 1.2429 28.825C1.55486 23.5202 2.21397 18.1812 4.70702 13.4101C4.8121 13.2027 4.91717 12.9953 5.02544 12.7816C5.71535 11.4669 6.48538 10.189 7.52538 9.11326C7.66846 9.11326 7.81155 9.11326 7.95897 9.11326C8.01179 8.99002 8.06461 8.86678 8.11903 8.7398C9.90554 5.56621 14.7487 3.75409 18.0654 2.80307C21.8096 1.78664 25.5979 1.38381 29.4642 1.14999C29.6185 1.14061 29.7727 1.13124 29.9317 1.12157C33.2684 0.923159 36.6008 0.885333 39.9429 0.891483ZM29.6962 8.23396C29.4262 8.25104 29.1561 8.26813 28.8778 8.28574C22.9866 8.69521 16.6418 9.66662 12.5117 14.2695C9.1509 19.0152 8.39256 25.152 8.39256 30.8125C34.8635 30.8125 61.3344 30.8125 88.6074 30.8125C88.4887 27.4145 88.4887 27.4145 88.1061 24.0583C88.0639 23.795 88.0639 23.795 88.0208 23.5263C87.2878 19.1764 85.7696 14.8509 82.1035 12.1211C75.2313 7.32213 65.1077 7.96666 57.0868 7.98133C56.2752 7.98245 55.4636 7.9814 54.652 7.98073C53.2914 7.97996 51.9309 7.98095 50.5703 7.98303C49.0183 7.98536 47.4663 7.9846 45.9142 7.98224C44.5591 7.98026 43.2039 7.98003 41.8488 7.98114C41.0493 7.9818 40.2498 7.98194 39.4503 7.98048C36.1928 7.97535 32.9474 8.02686 29.6962 8.23396ZM8.17577 37.6875C8.16704 40.7266 8.15834 43.7657 8.15398 46.8048C8.1516 48.4383 8.14859 50.0718 8.14306 51.7052C7.18669 68.1893 7.18669 68.1893 13.4924 82.7987C16.7404 85.9398 21.9582 87.3164 26.3867 87.3164C26.3867 70.9388 26.3867 54.5613 26.3867 37.6875C20.3771 37.6875 14.3675 37.6875 8.17577 37.6875ZM33.541 37.6875C33.541 54.2777 33.541 70.8679 33.541 87.9609C38.3791 87.9698 43.2172 87.9786 48.2019 87.9878C49.7159 87.9917 51.23 87.9956 52.7899 87.9996C54.1758 88.0011 54.1758 88.0011 55.5618 88.0019C56.1676 88.0023 56.7735 88.0039 57.3793 88.0063C71.3446 88.407 71.3446 88.407 83.5533 82.7778C92.8083 72.8822 88.8242 44.9909 88.8242 37.6875C70.5807 37.6875 52.3373 37.6875 33.541 37.6875Z" fill="#D054C8"/>
</svg>
